<svg width="122" height="32" viewBox="0 0 122 32" fill="none" xmlns="http://www.w3.org/2000/svg">
<path d="M15.0253 27.4297H12.1031L10.8815 25.5614V22.5011L6.26245 17.9372V10.8713L11.6406 5.73083L18.1354 5.7124L23.5136 10.8529V17.9243L18.8945 22.4882V25.5485L17.6729 27.4168L15.0253 27.4297ZM12.7774 26.1823L16.9986 26.1639L17.6471 25.1726V21.9667L22.2662 17.4029V11.3872L17.6361 6.96529L12.1418 6.97818L7.51165 11.4001V17.4158L12.1307 21.9796V25.1892L12.7774 26.1823Z" fill="#DF9730"/>
<path d="M20.748 14.4605H19.5006V11.8405L16.9156 9.36972L17.7779 8.46875L20.748 11.308V14.4605Z" fill="#DF9730"/>
<path d="M18.2311 28.5464H11.5448V29.7937H18.2311V28.5464Z" fill="#DF9730"/>
<path d="M18.2311 30.4722H11.5448V31.7195H18.2311V30.4722Z" fill="#DF9730"/>
<path d="M6.21601 0.000995033L5.22974 0.764648L6.98941 3.0373L7.97568 2.27365L6.21601 0.000995033Z" fill="#DF9730"/>
<path d="M0.344288 7.30525L0.00256348 8.50488L2.76686 9.29231L3.10859 8.09268L0.344288 7.30525Z" fill="#DF9730"/>
<path d="M2.49399 15.5452L-0.00268555 16.9692L0.615329 18.0527L3.112 16.6287L2.49399 15.5452Z" fill="#DF9730"/>
<path d="M23.5456 0.00225229L21.7859 2.2749L22.7722 3.03856L24.5318 0.765906L23.5456 0.00225229Z" fill="#DF9730"/>
<path d="M29.4179 7.30729L26.6534 8.09424L26.995 9.29393L29.7594 8.50698L29.4179 7.30729Z" fill="#DF9730"/>
<path d="M27.2649 15.5434L26.6471 16.627L29.144 18.0506L29.7618 16.967L27.2649 15.5434Z" fill="#DF9730"/>
<path d="M34.9094 22.177C34.9135 22.2296 34.9062 22.2825 34.8881 22.3321C34.87 22.3817 34.8414 22.4268 34.8043 22.4644C34.7243 22.532 34.6214 22.5662 34.5169 22.5602H33.7947C33.7421 22.5684 33.6883 22.5642 33.6376 22.548C33.5869 22.5318 33.5406 22.504 33.5026 22.4668C33.4645 22.4296 33.4356 22.384 33.4182 22.3337C33.4007 22.2834 33.3953 22.2298 33.4022 22.177V10.0166C33.3978 9.9644 33.4051 9.91184 33.4234 9.86273C33.4417 9.81361 33.4706 9.76915 33.5081 9.73253C33.5456 9.69591 33.5908 9.66803 33.6403 9.65089C33.6898 9.63376 33.7425 9.62778 33.7947 9.63339H34.5169C34.5688 9.63125 34.6206 9.63943 34.6693 9.65746C34.718 9.67549 34.7627 9.70301 34.8006 9.73841C34.8372 9.77463 34.8657 9.8181 34.8845 9.86601C34.9032 9.91393 34.9117 9.96524 34.9094 10.0166V22.177Z" fill="white"/>
<path d="M47.9356 22.5605C47.8726 22.5605 47.8104 22.5455 47.7543 22.5166C47.6982 22.4878 47.6498 22.446 47.6132 22.3947L39.6721 11.9773V22.1809C39.6721 22.4364 39.5388 22.5642 39.2723 22.5642H38.55C38.498 22.5715 38.4449 22.5667 38.3951 22.5501C38.3452 22.5334 38.2999 22.5054 38.2627 22.4682C38.2256 22.4311 38.1976 22.3857 38.1809 22.3359C38.1643 22.286 38.1594 22.233 38.1668 22.1809V10.0316C38.1631 9.92582 38.2008 9.82272 38.2718 9.74421C38.3077 9.70701 38.351 9.67778 38.399 9.65842C38.4469 9.63905 38.4984 9.62999 38.55 9.63182H39.5173C39.5827 9.6315 39.6472 9.6473 39.7051 9.67783C39.7629 9.70836 39.8123 9.75268 39.849 9.80686L47.6685 19.9847V9.97084C47.6708 9.92322 47.6826 9.87654 47.7033 9.83356C47.7239 9.79058 47.7529 9.75217 47.7886 9.72058C47.8244 9.68899 47.866 9.66486 47.9112 9.64962C47.9564 9.63438 48.0041 9.62832 48.0517 9.63182H48.7666C48.8717 9.63214 48.9734 9.6693 49.054 9.73684C49.0962 9.76963 49.13 9.81192 49.1528 9.86027C49.1755 9.90862 49.1865 9.96166 49.1848 10.0151V22.1754C49.1848 22.4309 49.0454 22.5586 48.7666 22.5586L47.9356 22.5605Z" fill="white"/>
<path d="M62.353 10.7629C62.4106 10.8045 62.4643 10.8513 62.5133 10.9029C62.5558 10.9475 62.5789 11.0071 62.5777 11.0687C62.576 11.1219 62.5628 11.1741 62.5391 11.2217C62.5158 11.272 62.488 11.3201 62.4561 11.3654L62.0877 11.9402C62.0586 11.9955 62.0163 12.0428 61.9645 12.0778C61.9128 12.1129 61.8532 12.1346 61.791 12.1411C61.743 12.1336 61.696 12.1206 61.651 12.1024C61.5886 12.0768 61.5298 12.0434 61.476 12.0029C61.0346 11.6876 60.5491 11.4392 60.0351 11.2659C59.5213 11.0882 58.9814 10.9973 58.4377 10.9969C57.4088 10.9818 56.3993 11.2782 55.5418 11.847C54.6843 12.4158 54.0188 13.2306 53.6325 14.1844C53.3767 14.8031 53.2453 15.4661 53.2456 16.1356C53.2405 16.8305 53.3863 17.5182 53.6731 18.1512C53.9467 18.7598 54.3338 19.3107 54.8136 19.7744C55.2901 20.2335 55.8481 20.5997 56.4589 20.8541C57.0744 21.1148 57.7362 21.2482 58.4045 21.2466C58.6268 21.2469 58.8489 21.234 59.0697 21.2079C59.2922 21.181 59.5122 21.1361 59.7274 21.0734C59.9608 21.0049 60.1892 20.9206 60.411 20.821C60.665 20.7065 60.9112 20.5754 61.148 20.4285C61.2077 20.4011 61.2644 20.3678 61.3175 20.329C61.3789 20.286 61.4366 20.2424 61.4907 20.1982C61.5412 20.1578 61.5948 20.1214 61.651 20.0895C61.6903 20.0643 61.7352 20.0491 61.7818 20.0453C61.8485 20.051 61.9124 20.0748 61.9666 20.114C62.0208 20.1533 62.0633 20.2066 62.0895 20.2682L62.4893 20.9297C62.5296 21.0044 62.5505 21.088 62.5501 21.1729C62.5481 21.2363 62.5282 21.2978 62.4926 21.3503C62.4571 21.4028 62.4074 21.4441 62.3493 21.4695C61.7926 21.8729 61.1791 22.1915 60.5289 22.4147C59.2644 22.8327 57.905 22.8705 56.6192 22.5234C56.064 22.37 55.5313 22.1445 55.0347 21.8528C54.5438 21.5644 54.0918 21.2146 53.6896 20.8118C52.6524 19.7726 51.9885 18.4191 51.8018 16.9627C51.6152 15.5063 51.9162 14.0292 52.6579 12.762C52.947 12.2706 53.2967 11.8175 53.6989 11.4133C54.0996 11.0088 54.5518 10.6588 55.0439 10.3723C55.5428 10.0825 56.0765 9.85718 56.6321 9.70162C57.9031 9.35039 59.2499 9.38502 60.5013 9.80112C61.1633 10.0268 61.7876 10.351 62.353 10.7629Z" fill="white"/>
<path d="M65.0945 10.05C65.0872 9.93694 65.1249 9.82561 65.1996 9.74042C65.2358 9.70389 65.2792 9.67534 65.3272 9.65662C65.3751 9.6379 65.4264 9.62941 65.4778 9.63172H70.5096C71.0614 9.62611 71.6084 9.73463 72.1162 9.95047C72.5992 10.1592 73.0372 10.4595 73.406 10.8349C73.7768 11.2123 74.0726 11.6569 74.2774 12.1449C74.6494 13.0257 74.7048 14.0081 74.4341 14.9252C74.3208 15.2956 74.1564 15.6484 73.9458 15.9735C73.7381 16.2946 73.4863 16.5849 73.1978 16.8358C72.9046 17.0893 72.5763 17.2991 72.2231 17.4586L74.5133 22.1771C74.5372 22.2263 74.5522 22.2793 74.5575 22.3338C74.5573 22.3651 74.5497 22.396 74.5353 22.4238C74.5208 22.4517 74.5001 22.4758 74.4746 22.494C74.4071 22.5406 74.3261 22.5632 74.2443 22.5585H73.3654C73.2664 22.5644 73.1686 22.5336 73.0909 22.4719C73.0172 22.4043 72.9594 22.3213 72.9214 22.2287L70.8154 17.7976C70.7491 17.8097 70.682 17.8171 70.6146 17.8197C70.5446 17.8197 70.4518 17.8197 70.3364 17.8197H66.6017V22.1735C66.6091 22.2255 66.6042 22.2786 66.5876 22.3284C66.5709 22.3783 66.5429 22.4236 66.5057 22.4608C66.4686 22.4979 66.4233 22.5259 66.3734 22.5426C66.3235 22.5592 66.2705 22.5641 66.2184 22.5567H65.4815C65.4294 22.5641 65.3764 22.5592 65.3265 22.5426C65.2766 22.5259 65.2313 22.4979 65.1942 22.4608C65.157 22.4236 65.129 22.3783 65.1123 22.3284C65.0957 22.2786 65.0908 22.2255 65.0982 22.1735L65.0945 10.05ZM73.113 13.7349C73.1143 13.3937 73.046 13.0557 72.9122 12.7418C72.7806 12.4332 72.5932 12.1515 72.3594 11.9109C72.1235 11.6674 71.8426 11.4722 71.5322 11.336C71.2085 11.1927 70.858 11.1198 70.5041 11.1223H66.6017V16.3365H70.5372C70.8877 16.3399 71.235 16.2689 71.5561 16.1283C71.8618 15.9946 72.1385 15.8024 72.3705 15.5626C72.6048 15.3225 72.7923 15.0407 72.9232 14.7317C73.0538 14.4151 73.119 14.0755 73.1148 13.7331L73.113 13.7349Z" fill="white"/>
<path d="M85.9736 9.63173C86.2352 9.63173 86.3661 9.76807 86.3661 10.0408V10.7464C86.3665 10.8489 86.3291 10.948 86.261 11.0246C86.2227 11.0663 86.1754 11.0989 86.1228 11.1199C86.0702 11.141 86.0136 11.1499 85.957 11.1462H78.7216V14.9952H84.4757C84.574 14.9934 84.6696 15.0275 84.7447 15.091C84.7848 15.1301 84.8157 15.1777 84.8351 15.2303C84.8546 15.2829 84.8621 15.3392 84.8571 15.395V16.108C84.8581 16.209 84.8243 16.3073 84.7613 16.3862C84.7264 16.4278 84.6822 16.4605 84.6322 16.4817C84.5822 16.5028 84.5279 16.5118 84.4738 16.5078H78.7216V21.044H86.0418C86.3034 21.044 86.4342 21.1804 86.4342 21.4531V22.1753C86.4416 22.2274 86.4368 22.2804 86.4201 22.3303C86.4035 22.3801 86.3755 22.4254 86.3383 22.4626C86.3011 22.4998 86.2558 22.5278 86.206 22.5444C86.1561 22.5611 86.103 22.5659 86.051 22.5585H77.5977C77.3422 22.5585 77.2145 22.4357 77.2145 22.19V10.0297C77.2145 9.76316 77.3422 9.62988 77.5977 9.62988L85.9736 9.63173Z" fill="white"/>
<path d="M89.4465 22.2124C89.4159 22.3149 89.3524 22.4045 89.2658 22.4674C89.1793 22.5303 89.0745 22.5631 88.9675 22.5606H88.2194C87.9738 22.5606 87.851 22.4679 87.851 22.2824C87.851 22.2267 87.8565 22.1711 87.8675 22.1166C87.8724 22.0949 87.8811 22.0743 87.8933 22.0558L89.5423 18.0576L90.7915 15.0543C91.1453 14.2043 91.4444 13.4889 91.6888 12.9079C91.9333 12.3269 92.1335 11.8466 92.2895 11.467C92.4467 11.0875 92.5695 10.7958 92.658 10.5919L92.8422 10.1441C92.8828 10.0483 92.9085 9.98385 92.9196 9.94884C92.949 9.87427 92.9887 9.80419 93.0375 9.74064C93.0776 9.69811 93.1273 9.66574 93.1824 9.64619C93.2375 9.62665 93.2965 9.6205 93.3544 9.62825H93.8685C93.9239 9.62171 93.98 9.62849 94.0323 9.64804C94.0845 9.66759 94.1313 9.69934 94.1688 9.74064C94.218 9.80566 94.2606 9.8754 94.2959 9.94884L99.3112 22.0594C99.3193 22.0891 99.3298 22.118 99.3425 22.146C99.36 22.1875 99.37 22.2318 99.372 22.2769C99.374 22.3181 99.365 22.3591 99.3459 22.3957C99.3268 22.4323 99.2982 22.4632 99.2633 22.4851C99.1774 22.5352 99.0788 22.5595 98.9795 22.5551H98.2315C98.1268 22.5584 98.0241 22.5259 97.9404 22.4629C97.8586 22.401 97.795 22.3183 97.7561 22.2234L96.7464 19.725H90.4304L89.4465 22.2124ZM91.0569 18.251H96.1495L93.6179 11.8779L91.0569 18.251Z" fill="white"/>
<path d="M108.489 12.3126C108.35 12.1898 108.175 12.0473 107.965 11.8851C107.741 11.7125 107.502 11.5585 107.252 11.4245C106.972 11.2742 106.677 11.1508 106.373 11.056C106.041 10.9522 105.694 10.9006 105.345 10.9031C104.914 10.8942 104.485 10.9564 104.074 11.0873C103.754 11.1901 103.457 11.354 103.199 11.5701C102.991 11.7453 102.824 11.9633 102.709 12.2091C102.594 12.455 102.534 12.7228 102.532 12.9943C102.528 13.2754 102.626 13.5484 102.808 13.7626C103.009 13.9944 103.251 14.1863 103.523 14.3283C103.839 14.4975 104.171 14.6357 104.514 14.741C104.883 14.8577 105.256 14.9682 105.633 15.0726C105.975 15.166 106.328 15.2648 106.69 15.3693C107.053 15.4737 107.405 15.591 107.748 15.7212C108.082 15.8475 108.405 16.0003 108.715 16.1781C109.008 16.3447 109.274 16.5526 109.507 16.7953C109.735 17.0348 109.917 17.314 110.044 17.6189C110.18 17.961 110.246 18.3268 110.239 18.6949C110.248 19.2772 110.117 19.8532 109.859 20.3753C109.61 20.8705 109.255 21.3045 108.818 21.6466C108.355 22.0065 107.83 22.2793 107.269 22.4517C106.652 22.6444 106.008 22.7401 105.362 22.7355C104.914 22.7357 104.468 22.6888 104.03 22.5954C103.598 22.5035 103.178 22.3632 102.777 22.1772C102.375 21.9907 101.997 21.7583 101.649 21.4844C101.296 21.2072 100.979 20.8872 100.704 20.5319C100.625 20.445 100.576 20.3353 100.564 20.2186C100.568 20.1635 100.584 20.1099 100.611 20.0617C100.638 20.0135 100.675 19.9721 100.721 19.9404L101.273 19.4798C101.315 19.4502 101.36 19.4267 101.408 19.4098C101.451 19.3937 101.496 19.385 101.542 19.384C101.584 19.3844 101.625 19.3965 101.66 19.419C101.699 19.4432 101.735 19.471 101.769 19.5019L101.865 19.594L101.926 19.6549C102.182 19.9223 102.469 20.1574 102.782 20.355C103.085 20.548 103.402 20.7168 103.731 20.8598C104.029 20.9897 104.337 21.0933 104.653 21.1694C104.899 21.233 105.152 21.2682 105.406 21.2744C105.659 21.2739 105.911 21.2524 106.16 21.2099C106.418 21.165 106.671 21.0966 106.917 21.0054C107.161 20.9165 107.396 20.8029 107.617 20.6664C107.832 20.5348 108.026 20.3735 108.196 20.1873C108.362 20.0041 108.494 19.7934 108.588 19.5646C108.686 19.3211 108.735 19.0606 108.732 18.7981C108.742 18.4742 108.639 18.1569 108.441 17.9008C108.226 17.6408 107.959 17.4286 107.658 17.2781C107.297 17.094 106.92 16.9464 106.53 16.8377C106.106 16.7149 105.668 16.5957 105.216 16.4803C104.579 16.3193 103.953 16.1187 103.341 15.8796C102.862 15.6969 102.41 15.4489 101.999 15.1426C101.668 14.898 101.394 14.5835 101.198 14.2214C101.016 13.8567 100.925 13.4534 100.933 13.0459C100.926 12.5493 101.032 12.0576 101.243 11.6081C101.455 11.1586 101.765 10.7632 102.152 10.4517C102.571 10.1179 103.05 9.86767 103.564 9.71469C104.161 9.53396 104.782 9.44573 105.406 9.45306C105.766 9.45437 106.125 9.49515 106.477 9.57466C106.841 9.65559 107.197 9.77096 107.54 9.91921C107.88 10.0654 108.207 10.2385 108.52 10.4369C108.822 10.6283 109.103 10.8519 109.356 11.1039C109.431 11.1788 109.507 11.2599 109.583 11.3471C109.648 11.4122 109.688 11.4985 109.695 11.5903C109.691 11.6425 109.677 11.6933 109.653 11.7398C109.629 11.7863 109.596 11.8276 109.555 11.8612L109.032 12.366C109.003 12.4009 108.967 12.4296 108.926 12.4504C108.886 12.4713 108.842 12.4839 108.796 12.4876C108.675 12.4705 108.565 12.4079 108.489 12.3126Z" fill="white"/>
<path d="M121.539 9.63173C121.8 9.63173 121.931 9.76807 121.931 10.0408V10.7464C121.932 10.8489 121.894 10.948 121.826 11.0246C121.788 11.0663 121.741 11.0989 121.688 11.1199C121.635 11.141 121.579 11.1499 121.522 11.1462H114.287V14.9952H120.043C120.141 14.9934 120.237 15.0275 120.312 15.091C120.352 15.1301 120.383 15.1777 120.402 15.2303C120.422 15.2829 120.429 15.3392 120.424 15.395V16.108C120.425 16.209 120.391 16.3073 120.328 16.3862C120.293 16.4278 120.249 16.4605 120.199 16.4817C120.149 16.5028 120.095 16.5118 120.041 16.5078H114.287V21.044H121.601C121.863 21.044 121.994 21.1804 121.994 21.4531V22.1753C122.001 22.2274 121.996 22.2804 121.98 22.3303C121.963 22.3801 121.935 22.4254 121.898 22.4626C121.861 22.4998 121.815 22.5278 121.766 22.5444C121.716 22.5611 121.663 22.5659 121.611 22.5585H113.163C112.907 22.5585 112.78 22.4357 112.78 22.19V10.0297C112.78 9.76316 112.907 9.62988 113.163 9.62988L121.539 9.63173Z" fill="white"/>
<path d="M38.585 26.8292C38.6636 27.657 38.7428 28.4917 38.8226 29.3331C38.8251 29.3504 38.8235 29.368 38.818 29.3845C38.8125 29.4011 38.8032 29.4161 38.7909 29.4284C38.7785 29.4408 38.7635 29.4501 38.7469 29.4556C38.7304 29.4611 38.7128 29.4627 38.6955 29.4602H38.5463C38.5285 29.4622 38.5104 29.4602 38.4935 29.4544C38.4765 29.4485 38.461 29.439 38.4482 29.4265C38.4353 29.414 38.4254 29.3988 38.4191 29.382C38.4128 29.3652 38.4103 29.3473 38.4118 29.3294L38.0138 24.9683L36.2082 28.9885C36.1948 29.0188 36.1714 29.0436 36.1418 29.0586C36.1178 29.0731 36.0907 29.0819 36.0626 29.0844H35.9705C35.9429 29.0854 35.9154 29.081 35.8894 29.0715C35.8603 29.0507 35.8379 29.0219 35.8249 28.9885L34.9203 26.9784L34.0156 24.9683L33.6177 29.3294C33.6203 29.3474 33.6188 29.3657 33.6133 29.383C33.6077 29.4003 33.5982 29.416 33.5856 29.4291C33.5729 29.4421 33.5574 29.452 33.5403 29.458C33.5232 29.4641 33.5049 29.4661 33.4868 29.4639H33.3376C33.3196 29.4652 33.3015 29.4622 33.2848 29.4552C33.2682 29.4481 33.2534 29.4372 33.2418 29.4234C33.22 29.3942 33.209 29.3584 33.2105 29.322L33.6766 24.3216C33.6772 24.3015 33.6824 24.2818 33.6916 24.2639C33.7009 24.246 33.714 24.2305 33.73 24.2184C33.758 24.1982 33.7914 24.1873 33.8259 24.1871H34.0598C34.0819 24.1926 34.1023 24.2036 34.119 24.2191C34.1357 24.2345 34.1483 24.2539 34.1557 24.2755L36.011 28.434L37.8664 24.2792C37.8767 24.2499 37.8969 24.2251 37.9235 24.2092C37.9501 24.1939 37.9796 24.1845 38.0101 24.1815C38.0439 24.1791 38.0777 24.1791 38.1115 24.1815H38.2073C38.244 24.1794 38.2802 24.1912 38.3086 24.2147C38.3205 24.2251 38.3302 24.2378 38.3372 24.2521C38.3441 24.2663 38.3482 24.2818 38.3491 24.2976V24.3216C38.4277 25.1642 38.5064 26 38.585 26.8292Z" fill="#DF9730"/>
<path d="M39.6333 29.3461C39.6665 29.2565 39.7003 29.168 39.7347 29.0808C39.7691 28.9936 39.8029 28.9113 39.836 28.8339L40.4127 27.4484L40.8494 26.4037L41.1737 25.6317L41.4113 25.0642L41.5956 24.6368C41.6459 24.5139 41.6963 24.3942 41.7467 24.2775C41.7567 24.249 41.7731 24.2232 41.7946 24.2019C41.8189 24.182 41.8498 24.1722 41.8812 24.1743H41.9843C42.0163 24.1715 42.0481 24.1814 42.0728 24.2019C42.0926 24.2222 42.1093 24.2451 42.1225 24.2701L44.2174 29.2964C44.2166 29.3062 44.2166 29.3161 44.2174 29.3259C44.2187 29.3381 44.2187 29.3505 44.2174 29.3627C44.2174 29.4143 44.1806 29.4462 44.1069 29.4585H43.9226C43.8925 29.4582 43.8633 29.4479 43.8396 29.4292C43.816 29.4106 43.7991 29.3846 43.7918 29.3553L43.2962 28.1412H40.5564L40.3022 28.7565C40.2174 28.9604 40.1339 29.1668 40.0516 29.3756C40.0438 29.4027 40.0273 29.4264 40.0047 29.4431C39.982 29.4597 39.9544 29.4684 39.9263 29.4677H39.8913H39.7384C39.6647 29.4677 39.6278 29.4309 39.6278 29.3793C39.6277 29.368 39.6295 29.3568 39.6333 29.3461ZM41.9291 24.8081C41.7276 25.2994 41.5274 25.7877 41.3284 26.2729C41.1294 26.7581 40.9292 27.2463 40.7278 27.7376H43.123L41.9291 24.8081Z" fill="#DF9730"/>
<path d="M47.4455 24.1851C47.6674 24.1857 47.8868 24.2314 48.0904 24.3196C48.2862 24.404 48.4638 24.5253 48.6136 24.677C48.7624 24.8284 48.8812 25.0066 48.9637 25.2021C49.1123 25.5595 49.1324 25.9573 49.0208 26.3279C48.9747 26.4787 48.9071 26.622 48.82 26.7535C48.7334 26.8838 48.6293 27.0016 48.5105 27.1035C48.3915 27.2061 48.258 27.2906 48.1143 27.3541L49.0079 29.3108C49.018 29.331 49.0242 29.3529 49.0264 29.3753C49.0252 29.3973 49.0175 29.4185 49.0043 29.4361C48.9966 29.4468 48.9863 29.4553 48.9743 29.4608C48.9624 29.4663 48.9492 29.4686 48.9361 29.4674H48.6874C48.6667 29.4675 48.6466 29.4609 48.63 29.4486C48.6134 29.4364 48.6012 29.419 48.5952 29.3993L47.7182 27.4536C47.6709 27.4653 47.6229 27.4739 47.5745 27.4794C47.5193 27.4827 47.4639 27.4827 47.4087 27.4794H45.6767V29.3219C45.6792 29.3392 45.6776 29.3568 45.6721 29.3733C45.6666 29.3899 45.6573 29.4049 45.645 29.4172C45.6326 29.4296 45.6176 29.4389 45.601 29.4444C45.5845 29.4499 45.5669 29.4515 45.5496 29.449H45.3967C45.3794 29.4515 45.3618 29.4499 45.3453 29.4444C45.3287 29.4389 45.3137 29.4296 45.3013 29.4172C45.289 29.4049 45.2797 29.3899 45.2742 29.3733C45.2687 29.3568 45.2671 29.3392 45.2696 29.3219V24.303C45.2787 24.2701 45.2943 24.2394 45.3156 24.2127C45.3266 24.2031 45.3395 24.1958 45.3535 24.1914C45.3674 24.1869 45.3821 24.1854 45.3967 24.1869L47.4455 24.1851ZM47.2392 27.0851H47.5321C47.628 27.0827 47.723 27.0659 47.814 27.0354H47.8361C47.9584 26.9915 48.0733 26.9294 48.177 26.8511C48.2804 26.7763 48.3712 26.6855 48.446 26.5821C48.6197 26.3402 48.7024 26.0446 48.6795 25.7477C48.6566 25.4507 48.5295 25.1713 48.3207 24.9589C48.2071 24.8442 48.0727 24.7523 47.9246 24.6881C47.7699 24.6211 47.603 24.5873 47.4345 24.5886H45.6786V27.0851H47.2392Z" fill="#DF9730"/>
<path d="M50.5868 29.2962C50.59 29.3189 50.5878 29.3419 50.5805 29.3635C50.5731 29.3851 50.5608 29.4047 50.5445 29.4206C50.5281 29.4366 50.5083 29.4485 50.4865 29.4554C50.4648 29.4623 50.4417 29.4639 50.4191 29.4602H50.3344C50.23 29.4602 50.1778 29.4056 50.1778 29.2962V24.3455C50.1768 24.3049 50.1913 24.2653 50.2183 24.235C50.233 24.2192 50.2511 24.2068 50.2712 24.1988C50.2912 24.1909 50.3128 24.1875 50.3344 24.1889H50.4302C50.4712 24.188 50.5109 24.2032 50.5408 24.2313C50.5562 24.2459 50.5683 24.2636 50.5763 24.2834C50.5842 24.3031 50.5878 24.3243 50.5868 24.3455V27.2935L53.4169 24.2902C53.4383 24.2601 53.4658 24.2348 53.4975 24.2158C53.5292 24.1967 53.5644 24.1845 53.6011 24.1797H53.9825C54.0697 24.1797 54.0826 24.2104 54.0212 24.2718C54.0212 24.2608 54.0212 24.2552 54.0212 24.2589C54.0201 24.2669 54.0201 24.2749 54.0212 24.2829L52.0276 26.3686L54.5058 29.3165C54.5844 29.4111 54.5758 29.4584 54.48 29.4584H54.1667C54.1397 29.4579 54.1137 29.4481 54.093 29.4307C54.0637 29.4061 54.0366 29.379 54.012 29.3497L51.7697 26.6597L50.596 27.896L50.5868 29.2962Z" fill="#DF9730"/>
<path d="M58.9904 24.1851C59.0086 24.1827 59.0272 24.1845 59.0446 24.1904C59.062 24.1963 59.0779 24.2062 59.0909 24.2192C59.1039 24.2322 59.1137 24.248 59.1196 24.2654C59.1255 24.2828 59.1273 24.3014 59.1249 24.3196V24.4615C59.1264 24.4799 59.1238 24.4983 59.1173 24.5155C59.1108 24.5328 59.1006 24.5484 59.0874 24.5612C59.0742 24.574 59.0584 24.5838 59.041 24.5898C59.0236 24.5958 59.005 24.598 58.9867 24.596H55.8379V26.5011H58.3824C58.4177 26.4994 58.4524 26.5105 58.4801 26.5324C58.4934 26.5459 58.5036 26.5621 58.51 26.5799C58.5163 26.5978 58.5187 26.6168 58.5169 26.6356V26.7812C58.5184 26.799 58.5159 26.817 58.5096 26.8338C58.5033 26.8506 58.4933 26.8658 58.4805 26.8783C58.4676 26.8908 58.4522 26.9003 58.4352 26.9061C58.4183 26.912 58.4002 26.914 58.3824 26.912H55.8379V29.0548H59.0402C59.0581 29.0521 59.0765 29.0536 59.0937 29.0592C59.111 29.0647 59.1268 29.0742 59.1398 29.0869C59.1528 29.0995 59.1628 29.115 59.1688 29.1322C59.1748 29.1493 59.1768 29.1676 59.1747 29.1856V29.3349C59.1769 29.3524 59.175 29.3702 59.1691 29.3869C59.1633 29.4036 59.1536 29.4187 59.1409 29.431C59.1283 29.4433 59.1129 29.4525 59.096 29.4579C59.0792 29.4633 59.0613 29.4647 59.0438 29.462H55.5431C55.5282 29.4625 55.5133 29.46 55.4994 29.4546C55.4855 29.4492 55.4728 29.4411 55.4621 29.4307C55.451 29.4182 55.4425 29.4036 55.4371 29.3878C55.4317 29.3719 55.4296 29.3552 55.4307 29.3385V24.3215C55.4293 24.3154 55.4293 24.3091 55.4307 24.303C55.4319 24.2982 55.4319 24.2932 55.4307 24.2883C55.4381 24.222 55.4799 24.1888 55.556 24.1888L58.9904 24.1851Z" fill="#DF9730"/>
<path d="M63.6704 24.1852C63.7057 24.1835 63.7404 24.1946 63.768 24.2166C63.7945 24.2416 63.8104 24.2759 63.8123 24.3124V24.4579C63.8138 24.4944 63.8013 24.53 63.7772 24.5574C63.7633 24.5712 63.7465 24.5818 63.728 24.5884C63.7096 24.5951 63.6899 24.5977 63.6704 24.5961H62.0122V29.335C62.0146 29.3527 62.0129 29.3708 62.0072 29.3878C62.0015 29.4048 61.9919 29.4202 61.9792 29.4329C61.9666 29.4455 61.9511 29.4551 61.9342 29.4608C61.9172 29.4665 61.8991 29.4682 61.8813 29.4658H61.7358C61.718 29.4682 61.7 29.4665 61.683 29.4608C61.666 29.4551 61.6506 29.4455 61.6379 29.4329C61.6252 29.4202 61.6156 29.4048 61.6099 29.3878C61.6042 29.3708 61.6025 29.3527 61.605 29.335V24.598H59.9467C59.862 24.598 59.8196 24.5519 59.8196 24.4598V24.3216C59.8182 24.3045 59.8205 24.2874 59.8264 24.2713C59.8323 24.2553 59.8417 24.2407 59.8538 24.2286C59.8658 24.2165 59.8804 24.2072 59.8965 24.2013C59.9125 24.1954 59.9297 24.1931 59.9467 24.1945L63.6704 24.1852Z" fill="#DF9730"/>
<path d="M64.8163 24.3213C64.8141 24.3038 64.816 24.286 64.8219 24.2693C64.8277 24.2526 64.8374 24.2375 64.8501 24.2252C64.8627 24.2129 64.8781 24.2036 64.8949 24.1983C64.9118 24.1929 64.9297 24.1915 64.9471 24.1942H65.0927C65.1104 24.1929 65.1281 24.1952 65.1449 24.2009C65.1616 24.2066 65.1771 24.2156 65.1903 24.2274C65.2019 24.24 65.2108 24.2548 65.2165 24.271C65.2222 24.2871 65.2246 24.3043 65.2235 24.3213V29.3476C65.2257 29.3652 65.2238 29.383 65.218 29.3997C65.2121 29.4164 65.2025 29.4315 65.1898 29.4438C65.1771 29.4561 65.1617 29.4653 65.1449 29.4707C65.128 29.4761 65.1102 29.4775 65.0927 29.4748H64.9471C64.9297 29.4775 64.9118 29.4761 64.8949 29.4707C64.8781 29.4653 64.8627 29.4561 64.8501 29.4438C64.8374 29.4315 64.8277 29.4164 64.8219 29.3997C64.816 29.383 64.8141 29.3652 64.8163 29.3476V24.3213Z" fill="#DF9730"/>
<path d="M70.5354 24.3067C70.5342 24.2897 70.5367 24.2728 70.5429 24.2569C70.549 24.2411 70.5586 24.2268 70.571 24.2152C70.5833 24.2036 70.5981 24.1948 70.6143 24.1896C70.6305 24.1844 70.6476 24.1828 70.6644 24.1851H70.8247C70.9045 24.1851 70.9451 24.2232 70.9463 24.2993V29.3495C70.947 29.3663 70.944 29.3831 70.9375 29.3986C70.931 29.4141 70.9212 29.428 70.9087 29.4393C70.8962 29.4506 70.8813 29.4589 70.8652 29.4638C70.8491 29.4687 70.8321 29.4699 70.8155 29.4675H70.6478C70.6251 29.4678 70.6025 29.4628 70.5821 29.4529C70.5616 29.443 70.5437 29.4284 70.5299 29.4103L66.9444 24.8742V29.3422C66.9466 29.3597 66.9447 29.3775 66.9389 29.3942C66.933 29.4109 66.9234 29.426 66.9107 29.4383C66.898 29.4507 66.8827 29.4599 66.8658 29.4652C66.849 29.4706 66.8311 29.472 66.8136 29.4693H66.6644C66.6471 29.4718 66.6295 29.4702 66.613 29.4647C66.5964 29.4591 66.5814 29.4498 66.5691 29.4375C66.5567 29.4252 66.5474 29.4101 66.5419 29.3936C66.5364 29.377 66.5348 29.3594 66.5373 29.3422V24.3214C66.5356 24.2885 66.5454 24.2559 66.5649 24.2293C66.5759 24.217 66.5897 24.2075 66.605 24.2014C66.6203 24.1953 66.6369 24.1929 66.6533 24.1943H66.88C66.8933 24.1944 66.9064 24.1976 66.9182 24.2036C66.9301 24.2097 66.9403 24.2185 66.9481 24.2293L67.8233 25.3348L68.7445 26.4882L69.6658 27.6416L70.541 28.7471L70.5354 24.3067Z" fill="#DF9730"/>
<path d="M74.7676 24.5446C74.5577 24.5435 74.3487 24.5721 74.1467 24.6293C73.953 24.6838 73.7673 24.763 73.5939 24.8652C73.2548 25.0663 72.9736 25.352 72.7777 25.6943C72.6792 25.8683 72.6031 26.054 72.5511 26.247C72.4422 26.6413 72.4422 27.0577 72.5511 27.452C72.6046 27.6454 72.6826 27.8312 72.7833 28.0047C72.8825 28.1738 73.0033 28.3292 73.1425 28.4672C73.2821 28.6057 73.4387 28.7258 73.6087 28.8246C73.7823 28.9248 73.9681 29.0022 74.1614 29.055C74.3576 29.1096 74.5603 29.1369 74.7639 29.136C75.0193 29.1389 75.2732 29.0964 75.5138 29.0107C75.7246 28.9365 75.9233 28.8316 76.1034 28.6994V27.2696C76.101 27.2518 76.1027 27.2338 76.1084 27.2168C76.1141 27.1998 76.1236 27.1844 76.1363 27.1717C76.149 27.159 76.1644 27.1495 76.1814 27.1437C76.1984 27.138 76.2165 27.1363 76.2342 27.1388H76.3835C76.4185 27.1369 76.4529 27.1488 76.4793 27.1719C76.4915 27.1849 76.501 27.2003 76.507 27.2171C76.513 27.2339 76.5155 27.2518 76.5143 27.2696V28.8615C76.5154 28.8713 76.5154 28.8812 76.5143 28.891C76.5102 28.9045 76.5047 28.9174 76.4977 28.9297C76.4909 28.9426 76.4822 28.9544 76.4719 28.9647C76.4666 28.97 76.4603 28.9743 76.4533 28.9771C76.4464 28.98 76.4389 28.9814 76.4314 28.9813C76.0948 29.2378 75.7036 29.4134 75.2882 29.4942C74.8728 29.5751 74.4444 29.5591 74.0361 29.4474C73.8102 29.3852 73.5933 29.2935 73.3913 29.1747C73.19 29.0579 73.0043 28.9161 72.8385 28.7528C72.6738 28.5882 72.5319 28.4023 72.4166 28.2C72.299 27.997 72.2079 27.7796 72.1458 27.5533C72.0503 27.2056 72.0253 26.8424 72.0721 26.4848C72.119 26.1273 72.2367 25.7827 72.4184 25.4713C72.6529 25.0701 72.9858 24.7352 73.3857 24.4985C73.5884 24.3787 73.8058 24.2858 74.0325 24.2221C74.617 24.0599 75.2393 24.1008 75.7975 24.3382C75.9087 24.3867 76.0169 24.4414 76.1218 24.5022C76.2249 24.5624 76.3235 24.6301 76.4166 24.7049C76.4347 24.7136 76.4507 24.7263 76.4635 24.7419C76.4762 24.7574 76.4854 24.7756 76.4903 24.7951C76.4935 24.8117 76.4928 24.8288 76.4883 24.8451C76.4839 24.8614 76.4757 24.8765 76.4645 24.8891L76.3687 25.0107C76.3584 25.0276 76.3447 25.0422 76.3286 25.0536C76.3124 25.065 76.2941 25.073 76.2747 25.077C76.2198 25.0713 76.1681 25.048 76.1274 25.0107C75.9288 24.8643 75.7096 24.7482 75.477 24.6662C75.249 24.5862 75.0092 24.5451 74.7676 24.5446Z" fill="#DF9730"/>
<path d="M79.7294 29.346C79.7626 29.2563 79.7963 29.1679 79.8307 29.0807C79.8651 28.9934 79.8989 28.9112 79.9321 28.8338L80.5143 27.4538L80.951 26.4091L81.2752 25.6371L81.5129 25.0696L81.6972 24.6421C81.7475 24.5193 81.7979 24.3995 81.8482 24.2828C81.8583 24.2544 81.8747 24.2285 81.8961 24.2073C81.9204 24.1874 81.9514 24.1775 81.9827 24.1797H82.0859C82.1179 24.1768 82.1497 24.1868 82.1744 24.2073C82.1942 24.2275 82.2109 24.2505 82.2241 24.2755L84.3116 29.2962C84.3108 29.306 84.3108 29.3159 84.3116 29.3257C84.3129 29.338 84.3129 29.3503 84.3116 29.3626C84.3116 29.4141 84.2748 29.4473 84.2011 29.4584H84.0168C83.9867 29.458 83.9575 29.4478 83.9338 29.4291C83.9102 29.4104 83.8933 29.3844 83.886 29.3552L83.3775 28.1281H80.6543L80.4001 28.7435C80.3153 28.9474 80.2318 29.1537 80.1495 29.3626C80.1417 29.3896 80.1252 29.4133 80.1026 29.43C80.0799 29.4467 80.0523 29.4554 80.0242 29.4547H79.9892H79.8363C79.7626 29.4547 79.7257 29.4178 79.7257 29.3662C79.7262 29.3594 79.7275 29.3526 79.7294 29.346ZM82.0251 24.808C81.8237 25.2993 81.6235 25.7875 81.4245 26.2727C81.2255 26.7579 81.0253 27.2462 80.8238 27.7375H83.219L82.0251 24.808Z" fill="#DF9730"/>
<path d="M87.3996 24.5443C87.1897 24.5433 86.9807 24.5718 86.7787 24.6291C86.585 24.6835 86.3992 24.7628 86.2259 24.8649C85.8868 25.0661 85.6056 25.3518 85.4097 25.6941C85.3112 25.868 85.2351 26.0537 85.1831 26.2468C85.0739 26.641 85.0739 27.0575 85.1831 27.4518C85.2365 27.6452 85.3145 27.831 85.4153 28.0045C85.5145 28.1736 85.6353 28.329 85.7745 28.467C86.0563 28.7457 86.4044 28.948 86.7861 29.0547C86.9822 29.1094 87.1849 29.1366 87.3886 29.1358C87.6439 29.1386 87.8978 29.0962 88.1384 29.0105C88.3492 28.9363 88.5479 28.8314 88.728 28.6991V27.2694C88.7256 27.2516 88.7273 27.2335 88.733 27.2166C88.7387 27.1996 88.7483 27.1841 88.7609 27.1715C88.7736 27.1588 88.7891 27.1492 88.806 27.1435C88.823 27.1378 88.8411 27.1361 88.8589 27.1386H89.0081C89.0431 27.1367 89.0775 27.1486 89.1039 27.1717C89.1162 27.1847 89.1256 27.2001 89.1317 27.2169C89.1377 27.2337 89.1401 27.2516 89.1389 27.2694V28.8613C89.1401 28.8711 89.1401 28.881 89.1389 28.8908C89.1349 28.9042 89.1293 28.9172 89.1223 28.9294C89.1155 28.9423 89.1068 28.9541 89.0965 28.9644C89.0913 28.9698 89.0849 28.9741 89.078 28.9769C89.071 28.9798 89.0635 28.9812 89.056 28.981C88.7194 29.2375 88.3282 29.413 87.9128 29.4938C87.4974 29.5746 87.069 29.5587 86.6608 29.4472C86.4348 29.385 86.218 29.2933 86.0159 29.1745C85.8146 29.0577 85.6289 28.9159 85.4632 28.7526C85.2985 28.5879 85.1566 28.402 85.0412 28.1998C84.9236 27.9968 84.8326 27.7794 84.7704 27.5531C84.675 27.2054 84.6499 26.8421 84.6968 26.4846C84.7436 26.1271 84.8613 25.7825 85.0431 25.4711C85.1597 25.2697 85.3015 25.084 85.465 24.9184C85.795 24.5856 86.2058 24.3443 86.6571 24.2182C87.2416 24.056 87.8639 24.0969 88.4222 24.3343C88.5333 24.3827 88.6416 24.4375 88.7465 24.4983C88.8496 24.5585 88.9481 24.6262 89.0413 24.701C89.059 24.7099 89.0747 24.7227 89.0871 24.7382C89.0995 24.7538 89.1083 24.7719 89.1131 24.7912C89.1163 24.8078 89.1156 24.8249 89.1111 24.8412C89.1067 24.8575 89.0985 24.8726 89.0873 24.8852L88.9915 25.0068C88.9812 25.0237 88.9675 25.0382 88.9514 25.0496C88.9352 25.0611 88.9169 25.069 88.8975 25.0731C88.8426 25.0674 88.7909 25.0441 88.7501 25.0068C88.5516 24.8604 88.3324 24.7443 88.0998 24.6623C87.8745 24.5846 87.6379 24.5447 87.3996 24.5443Z" fill="#DF9730"/>
<path d="M93.8022 24.1851C93.8205 24.1827 93.839 24.1845 93.8565 24.1904C93.8739 24.1963 93.8897 24.2062 93.9027 24.2192C93.9157 24.2322 93.9256 24.248 93.9315 24.2654C93.9374 24.2828 93.9392 24.3014 93.9367 24.3196V24.4615C93.9382 24.4799 93.9356 24.4983 93.9291 24.5155C93.9226 24.5328 93.9124 24.5484 93.8992 24.5612C93.886 24.574 93.8702 24.5838 93.8528 24.5898C93.8354 24.5958 93.8169 24.598 93.7986 24.596H90.6479V26.5011H93.1924C93.2277 26.4994 93.2624 26.5105 93.29 26.5324C93.3034 26.5459 93.3136 26.5621 93.32 26.5799C93.3263 26.5978 93.3287 26.6168 93.3269 26.6356V26.7812C93.3284 26.799 93.3258 26.817 93.3196 26.8338C93.3133 26.8506 93.3033 26.8658 93.2905 26.8783C93.2776 26.8908 93.2622 26.9003 93.2452 26.9061C93.2282 26.912 93.2102 26.914 93.1924 26.912H90.6479V29.0548H93.8501C93.8681 29.0521 93.8864 29.0536 93.9037 29.0592C93.921 29.0647 93.9368 29.0742 93.9498 29.0869C93.9628 29.0995 93.9727 29.115 93.9788 29.1322C93.9848 29.1493 93.9868 29.1676 93.9846 29.1856V29.3349C93.9868 29.3524 93.985 29.3702 93.9791 29.3869C93.9732 29.4036 93.9636 29.4187 93.9509 29.431C93.9382 29.4433 93.9229 29.4525 93.906 29.4579C93.8892 29.4633 93.8713 29.4647 93.8538 29.462H90.3531C90.3382 29.4625 90.3233 29.46 90.3094 29.4546C90.2955 29.4492 90.2828 29.4411 90.2721 29.4307C90.261 29.4182 90.2525 29.4036 90.2471 29.3878C90.2417 29.3719 90.2396 29.3552 90.2407 29.3385V24.3215C90.2393 24.3154 90.2393 24.3091 90.2407 24.303C90.2418 24.2982 90.2418 24.2932 90.2407 24.2883C90.2481 24.222 90.2893 24.1888 90.3642 24.1888L93.8022 24.1851Z" fill="#DF9730"/>
<path d="M98.939 24.3067C98.9377 24.2897 98.9403 24.2728 98.9464 24.2569C98.9526 24.2411 98.9622 24.2268 98.9745 24.2152C98.9869 24.2036 99.0017 24.1948 99.0179 24.1896C99.034 24.1844 99.0511 24.1828 99.068 24.1851H99.2283C99.3081 24.1851 99.3486 24.2232 99.3499 24.2993V29.3495C99.3506 29.3663 99.3476 29.3831 99.3411 29.3986C99.3346 29.4141 99.3247 29.428 99.3122 29.4393C99.2997 29.4506 99.2849 29.4589 99.2688 29.4638C99.2527 29.4687 99.2357 29.4699 99.219 29.4675H99.0514C99.0286 29.4678 99.0061 29.4628 98.9856 29.4529C98.9652 29.443 98.9473 29.4284 98.9335 29.4103L95.348 24.8742V29.3422C95.3502 29.3597 95.3483 29.3775 95.3425 29.3942C95.3366 29.4109 95.327 29.426 95.3143 29.4383C95.3016 29.4507 95.2862 29.4599 95.2694 29.4652C95.2525 29.4706 95.2347 29.472 95.2172 29.4693H95.0698C95.0525 29.4718 95.0349 29.4702 95.0184 29.4647C95.0018 29.4591 94.9868 29.4498 94.9744 29.4375C94.9621 29.4252 94.9528 29.4101 94.9473 29.3936C94.9418 29.377 94.9402 29.3594 94.9427 29.3422V24.3214C94.941 24.2885 94.9508 24.2559 94.9703 24.2293C94.9813 24.217 94.9951 24.2075 95.0104 24.2014C95.0257 24.1953 95.0423 24.1929 95.0587 24.1943H95.2835C95.2968 24.1944 95.3099 24.1976 95.3218 24.2036C95.3336 24.2097 95.3439 24.2185 95.3517 24.2293L96.2269 25.3348L97.1481 26.4882L98.0693 27.6416L98.9445 28.7471L98.939 24.3067Z" fill="#DF9730"/>
<path d="M104.835 24.6903C104.853 24.6993 104.868 24.712 104.881 24.7276C104.893 24.7432 104.902 24.7613 104.907 24.7806C104.91 24.7972 104.909 24.8143 104.905 24.8306C104.9 24.8469 104.892 24.8619 104.881 24.8746L104.785 24.9962C104.775 25.013 104.761 25.0276 104.745 25.039C104.729 25.0504 104.711 25.0584 104.691 25.0625C104.636 25.0567 104.585 25.0335 104.544 24.9962C104.345 24.8494 104.126 24.7315 103.893 24.6461C103.663 24.5623 103.42 24.5198 103.175 24.5208C102.964 24.5198 102.754 24.5483 102.55 24.6056C102.356 24.6609 102.171 24.7414 101.998 24.8451C101.827 24.9475 101.669 25.0713 101.53 25.2136C101.251 25.4963 101.048 25.8449 100.94 26.2269C100.886 26.4188 100.858 26.6172 100.859 26.8165C100.859 27.0193 100.888 27.221 100.946 27.4153C101.002 27.609 101.083 27.7947 101.187 27.9681C101.29 28.1402 101.414 28.2992 101.555 28.4416C101.696 28.5823 101.852 28.7059 102.022 28.8101C102.189 28.9139 102.369 28.9956 102.558 29.0533C102.746 29.1111 102.943 29.1402 103.14 29.1399C103.264 29.1392 103.387 29.1275 103.508 29.1049C103.638 29.081 103.766 29.0465 103.89 29.0017C104.017 28.956 104.14 28.9005 104.258 28.8359C104.375 28.7725 104.484 28.6978 104.586 28.6129C104.602 28.6007 104.62 28.5917 104.639 28.5867C104.659 28.5816 104.679 28.5805 104.699 28.5835C104.722 28.5893 104.744 28.6 104.762 28.615C104.781 28.6299 104.796 28.6487 104.807 28.6701L104.861 28.7548C104.881 28.7893 104.889 28.8294 104.885 28.869C104.882 28.8911 104.875 28.9123 104.863 28.9309C104.85 28.9495 104.834 28.9649 104.815 28.9759C104.629 29.1169 104.428 29.235 104.214 29.3278C103.877 29.4683 103.516 29.5397 103.151 29.5379C102.672 29.5393 102.201 29.412 101.788 29.1694C101.586 29.0512 101.401 28.9082 101.235 28.7438C101.07 28.5792 100.927 28.3933 100.811 28.191C100.692 27.986 100.6 27.7669 100.536 27.5388C100.439 27.1904 100.413 26.8259 100.46 26.4673C100.507 26.1086 100.626 25.763 100.809 25.4513C100.926 25.2498 101.069 25.064 101.233 24.8985C101.398 24.7337 101.584 24.5912 101.786 24.4747C101.991 24.3561 102.21 24.2639 102.438 24.2002C102.674 24.1345 102.919 24.1016 103.164 24.1026C103.524 24.1013 103.881 24.174 104.212 24.3163C104.323 24.3647 104.432 24.4195 104.537 24.4803C104.641 24.5427 104.741 24.6129 104.835 24.6903Z" fill="#DF9730"/>
<path d="M105.535 24.3917C105.52 24.3712 105.51 24.3471 105.506 24.3217C105.502 24.2963 105.504 24.2703 105.513 24.2461C105.525 24.226 105.542 24.2099 105.563 24.1997C105.584 24.1895 105.608 24.1858 105.631 24.189H105.756C105.778 24.1869 105.8 24.1869 105.823 24.189C105.84 24.1929 105.857 24.2004 105.872 24.2111C105.891 24.2254 105.907 24.2429 105.92 24.2627C105.937 24.2867 105.955 24.318 105.977 24.3548L107.4 26.739L108.874 24.3069C108.89 24.2714 108.916 24.2409 108.949 24.2189C108.981 24.1968 109.019 24.184 109.058 24.1816H109.233C109.342 24.1816 109.365 24.2363 109.301 24.3456L107.599 27.1462V29.2964C107.602 29.3186 107.6 29.3413 107.592 29.3625C107.585 29.3838 107.573 29.4032 107.557 29.4191C107.542 29.4349 107.522 29.4469 107.501 29.4541C107.48 29.4612 107.457 29.4634 107.435 29.4603H107.35C107.246 29.4603 107.193 29.4057 107.193 29.2964V27.1757L105.535 24.3917Z" fill="#DF9730"/>
</svg>
