<svg width="200" height="52" viewBox="0 0 200 52" fill="none" xmlns="http://www.w3.org/2000/svg">
<path d="M24.636 44.9654H19.8456L17.843 41.9026V36.8856L10.2708 29.404V17.8205L19.0875 9.39349L29.7345 9.36328L38.5512 17.7903V29.3828L30.979 36.8645V41.8815L28.9764 44.9442L24.636 44.9654ZM20.9511 42.9205L27.8709 42.8903L28.9341 41.2653V36.0097L36.5064 28.528V18.6663L28.916 11.4172L19.909 11.4383L12.3186 18.6874V28.5492L19.8909 36.0309V41.2925L20.9511 42.9205Z" fill="#DF9730"/>
<path d="M34.0176 23.7048H31.9728V19.4098L27.7351 15.3593L29.1487 13.8823L34.0176 18.5368V23.7048Z" fill="#DF9730"/>
<path d="M29.8915 46.7959H18.9303V48.8407H29.8915V46.7959Z" fill="#DF9730"/>
<path d="M29.8915 49.9526H18.9303V51.9975H29.8915V49.9526Z" fill="#DF9730"/>
<path d="M10.1946 6.26861e-05L8.57776 1.25195L11.4625 4.97761L13.0793 3.72572L10.1946 6.26861e-05Z" fill="#DF9730"/>
<path d="M0.568993 11.9748L0.00878906 13.9414L4.54042 15.2323L5.10063 13.2657L0.568993 11.9748Z" fill="#DF9730"/>
<path d="M4.09291 25.4823L0 27.8169L1.01314 29.5931L5.10605 27.2586L4.09291 25.4823Z" fill="#DF9730"/>
<path d="M38.6035 0.00139656L35.7188 3.72705L37.3356 4.97894L40.2203 1.25329L38.6035 0.00139656Z" fill="#DF9730"/>
<path d="M48.2302 11.9775L43.6984 13.2676L44.2582 15.2343L48.7901 13.9442L48.2302 11.9775Z" fill="#DF9730"/>
<path d="M44.7008 25.479L43.688 27.2554L47.7813 29.5892L48.7941 27.8128L44.7008 25.479Z" fill="#DF9730"/>
<path d="M57.2328 36.3542C57.2396 36.4405 57.2277 36.5272 57.198 36.6085C57.1683 36.6898 57.1214 36.7638 57.0607 36.8254C56.9295 36.9361 56.7609 36.9923 56.5895 36.9824H55.4055C55.3192 36.9959 55.2311 36.989 55.1479 36.9624C55.0648 36.9358 54.9891 36.8902 54.9266 36.8293C54.8642 36.7683 54.8168 36.6936 54.7883 36.6112C54.7597 36.5287 54.7507 36.4407 54.7621 36.3542V16.4192C54.7549 16.3336 54.7668 16.2474 54.7968 16.1669C54.8268 16.0864 54.8743 16.0135 54.9357 15.9535C54.9972 15.8934 55.0712 15.8477 55.1524 15.8196C55.2336 15.7915 55.32 15.7817 55.4055 15.791H56.5895C56.6745 15.7874 56.7595 15.8009 56.8393 15.8304C56.9192 15.86 56.9923 15.9051 57.0546 15.9631C57.1145 16.0225 57.1613 16.0937 57.192 16.1723C57.2227 16.2508 57.2366 16.335 57.2328 16.4192V36.3542Z" fill="#ffffff"/>
<path d="M78.5874 36.9827C78.4841 36.9827 78.3822 36.9581 78.2902 36.9108C78.1983 36.8635 78.119 36.795 78.0589 36.7109L65.0407 19.6332V36.3605C65.0407 36.7793 64.8222 36.9888 64.3853 36.9888H63.2013C63.1159 37.0008 63.029 36.9929 62.9472 36.9656C62.8655 36.9383 62.7912 36.8924 62.7303 36.8315C62.6693 36.7705 62.6234 36.6963 62.5961 36.6145C62.5688 36.5328 62.5609 36.4458 62.573 36.3605V16.4436C62.5669 16.2702 62.6287 16.1012 62.7452 15.9724C62.804 15.9115 62.875 15.8635 62.9536 15.8318C63.0322 15.8001 63.1166 15.7852 63.2013 15.7882H64.787C64.8942 15.7877 64.9999 15.8136 65.0948 15.8636C65.1896 15.9137 65.2706 15.9863 65.3307 16.0751L78.1495 32.7601V16.344C78.1533 16.2659 78.1727 16.1894 78.2065 16.1189C78.2404 16.0485 78.288 15.9855 78.3465 15.9337C78.405 15.8819 78.4733 15.8424 78.5474 15.8174C78.6215 15.7924 78.6998 15.7825 78.7777 15.7882H79.9497C80.122 15.7887 80.2888 15.8496 80.4209 15.9604C80.49 16.0141 80.5455 16.0834 80.5828 16.1627C80.62 16.242 80.638 16.3289 80.6353 16.4165V36.3514C80.6353 36.7703 80.4068 36.9797 79.9497 36.9797L78.5874 36.9827Z" fill="#ffffff"/>
<path d="M102.222 17.6423C102.317 17.7105 102.405 17.7873 102.485 17.8719C102.555 17.945 102.593 18.0427 102.591 18.1437C102.588 18.2309 102.567 18.3164 102.528 18.3944C102.489 18.4769 102.444 18.5557 102.392 18.63L101.788 19.5724C101.74 19.6631 101.67 19.7406 101.586 19.798C101.501 19.8554 101.403 19.891 101.301 19.9016C101.223 19.8894 101.146 19.8681 101.072 19.8382C100.969 19.7964 100.873 19.7415 100.785 19.6751C100.061 19.1582 99.2653 18.7511 98.4227 18.4669C97.5803 18.1757 96.6953 18.0267 95.804 18.0259C94.1173 18.0013 92.4624 18.487 91.0567 19.4195C89.6509 20.352 88.5599 21.6877 87.9267 23.2513C87.5073 24.2656 87.2918 25.3525 87.2924 26.45C87.284 27.5892 87.5231 28.7166 87.9931 29.7544C88.4417 30.752 89.0763 31.6551 89.8628 32.4154C90.644 33.1679 91.5587 33.7682 92.56 34.1854C93.569 34.6126 94.6539 34.8314 95.7496 34.8287C96.114 34.8293 96.4781 34.8081 96.84 34.7653C97.2049 34.7213 97.5655 34.6475 97.9183 34.5448C98.3008 34.4325 98.6752 34.2943 99.0389 34.131C99.4554 33.9433 99.859 33.7284 100.247 33.4876C100.345 33.4427 100.438 33.388 100.525 33.3245C100.626 33.254 100.72 33.1826 100.809 33.1101C100.892 33.0438 100.98 32.9842 101.072 32.9319C101.136 32.8905 101.21 32.8656 101.286 32.8594C101.395 32.8687 101.5 32.9077 101.589 32.9721C101.678 33.0365 101.748 33.1239 101.791 33.2248L102.446 34.3092C102.512 34.4317 102.546 34.5688 102.546 34.7079C102.542 34.8118 102.51 34.9126 102.451 34.9987C102.393 35.0848 102.312 35.1525 102.216 35.1942C101.304 35.8555 100.298 36.3777 99.2322 36.7437C97.1592 37.4289 94.9307 37.4909 92.8228 36.9219C91.9127 36.6704 91.0394 36.3008 90.2252 35.8224C89.4206 35.3498 88.6796 34.7763 88.0203 34.1159C86.3198 32.4123 85.2316 30.1935 84.9256 27.806C84.6195 25.4185 85.113 22.9969 86.3288 20.9195C86.8028 20.114 87.3762 19.3712 88.0354 18.7086C88.6924 18.0455 89.4337 17.4717 90.2403 17.002C91.0583 16.527 91.9331 16.1576 92.844 15.9026C94.9277 15.3268 97.1355 15.3835 99.1869 16.0657C100.272 16.4356 101.296 16.9672 102.222 17.6423Z" fill="#ffffff"/>
<path d="M106.717 16.4738C106.705 16.2886 106.767 16.1061 106.889 15.9664C106.948 15.9065 107.019 15.8597 107.098 15.829C107.177 15.7983 107.261 15.7844 107.345 15.7882H115.594C116.498 15.779 117.395 15.9569 118.228 16.3107C119.019 16.6529 119.737 17.1452 120.342 17.7606C120.95 18.3794 121.435 19.1082 121.771 19.9081C122.38 21.3521 122.471 22.9627 122.027 24.466C121.842 25.0732 121.572 25.6517 121.227 26.1846C120.887 26.711 120.474 27.1868 120.001 27.5982C119.52 28.0137 118.982 28.3576 118.403 28.6191L122.157 36.3545C122.196 36.4351 122.221 36.522 122.23 36.6112C122.229 36.6626 122.217 36.7132 122.193 36.7589C122.17 36.8046 122.136 36.844 122.094 36.874C121.983 36.9502 121.85 36.9874 121.716 36.9797H120.276C120.113 36.9893 119.953 36.9388 119.825 36.8377C119.705 36.7268 119.61 36.5907 119.548 36.439L116.095 29.1748C115.986 29.1947 115.876 29.2068 115.766 29.2111C115.651 29.2111 115.499 29.2111 115.31 29.2111H109.187V36.3484C109.2 36.4337 109.192 36.5207 109.164 36.6025C109.137 36.6842 109.091 36.7585 109.03 36.8194C108.969 36.8803 108.895 36.9263 108.813 36.9536C108.731 36.9809 108.645 36.9888 108.559 36.9767H107.351C107.266 36.9888 107.179 36.9809 107.097 36.9536C107.015 36.9263 106.941 36.8803 106.88 36.8194C106.819 36.7585 106.773 36.6842 106.746 36.6025C106.719 36.5207 106.711 36.4337 106.723 36.3484L106.717 16.4738ZM119.862 22.5148C119.864 21.9553 119.752 21.4013 119.532 20.8867C119.317 20.3808 119.01 19.919 118.626 19.5245C118.24 19.1254 117.779 18.8054 117.27 18.5821C116.74 18.3472 116.165 18.2277 115.585 18.2317H109.187V26.7796H115.639C116.214 26.7852 116.783 26.6689 117.309 26.4383C117.811 26.2191 118.264 25.9041 118.644 25.511C119.029 25.1173 119.336 24.6553 119.551 24.1488C119.765 23.6299 119.871 23.073 119.865 22.5117L119.862 22.5148Z" fill="#ffffff"/>
<path d="M140.945 15.7882C141.374 15.7882 141.588 16.0117 141.588 16.4587V17.6156C141.589 17.7836 141.527 17.946 141.416 18.0716C141.353 18.14 141.276 18.1933 141.189 18.2278C141.103 18.2623 141.01 18.2771 140.917 18.271H129.056V24.5807H138.489C138.65 24.5778 138.807 24.6337 138.93 24.7378C138.996 24.802 139.046 24.88 139.078 24.9662C139.11 25.0524 139.122 25.1446 139.114 25.2362V26.4051C139.116 26.5706 139.061 26.7318 138.957 26.8612C138.9 26.9293 138.828 26.9829 138.746 27.0176C138.664 27.0522 138.575 27.0669 138.486 27.0605H129.056V34.4969H141.056C141.485 34.4969 141.7 34.7204 141.7 35.1674V36.3514C141.712 36.4367 141.704 36.5237 141.677 36.6054C141.649 36.6872 141.603 36.7615 141.543 36.8224C141.482 36.8833 141.407 36.9293 141.326 36.9566C141.244 36.9838 141.157 36.9918 141.072 36.9797H127.214C126.795 36.9797 126.585 36.7783 126.585 36.3756V16.4406C126.585 16.0036 126.795 15.7852 127.214 15.7852L140.945 15.7882Z" fill="#ffffff"/>
<path d="M146.638 36.4119C146.588 36.5799 146.484 36.7268 146.342 36.83C146.2 36.9331 146.028 36.9868 145.853 36.9827H144.626C144.224 36.9827 144.022 36.8307 144.022 36.5267C144.022 36.4354 144.031 36.3443 144.05 36.2548C144.057 36.2193 144.072 36.1855 144.092 36.1551L146.795 29.6008L148.843 24.6774C149.423 23.284 149.913 22.111 150.314 21.1586C150.715 20.2061 151.043 19.4188 151.299 18.7966C151.556 18.1744 151.758 17.6961 151.903 17.3619L152.205 16.6279C152.271 16.4708 152.313 16.3651 152.332 16.3077C152.38 16.1855 152.445 16.0706 152.525 15.9664C152.591 15.8967 152.672 15.8436 152.762 15.8116C152.853 15.7796 152.949 15.7695 153.044 15.7822H153.887C153.978 15.7715 154.07 15.7826 154.156 15.8146C154.241 15.8467 154.318 15.8987 154.379 15.9664C154.46 16.073 154.53 16.1873 154.588 16.3077L162.81 36.1612C162.823 36.2098 162.84 36.2572 162.861 36.3031C162.89 36.3712 162.906 36.4438 162.909 36.5176C162.913 36.5852 162.898 36.6525 162.866 36.7124C162.835 36.7724 162.788 36.823 162.731 36.8589C162.59 36.941 162.429 36.9809 162.266 36.9737H161.04C160.868 36.9791 160.7 36.9258 160.562 36.8227C160.428 36.7212 160.324 36.5856 160.26 36.43L158.605 32.3343H148.251L146.638 36.4119ZM149.278 29.9179H157.626L153.476 19.4702L149.278 29.9179Z" fill="#ffffff"/>
<path d="M177.854 20.1831C177.627 19.9817 177.341 19.7481 176.996 19.4823C176.628 19.1993 176.237 18.9468 175.828 18.7272C175.367 18.4808 174.885 18.2786 174.387 18.1231C173.841 17.953 173.273 17.8684 172.701 17.8724C171.995 17.8578 171.291 17.9599 170.617 18.1745C170.092 18.3429 169.605 18.6117 169.183 18.9658C168.843 19.2531 168.569 19.6105 168.38 20.0135C168.191 20.4165 168.092 20.8556 168.089 21.3006C168.083 21.7615 168.244 22.209 168.542 22.5602C168.871 22.9401 169.269 23.2547 169.714 23.4874C170.233 23.7648 170.777 23.9914 171.339 24.164C171.943 24.3553 172.554 24.5365 173.173 24.7077C173.734 24.8607 174.312 25.0228 174.906 25.194C175.5 25.3652 176.078 25.5575 176.64 25.7709C177.188 25.9781 177.718 26.2285 178.226 26.52C178.705 26.7931 179.143 27.1339 179.525 27.5318C179.897 27.9245 180.195 28.3821 180.404 28.882C180.627 29.4428 180.736 30.0425 180.724 30.6459C180.738 31.6005 180.524 32.5447 180.101 33.4006C179.693 34.2124 179.11 34.924 178.395 35.4847C177.635 36.0747 176.774 36.522 175.855 36.8046C174.843 37.1204 173.788 37.2773 172.729 37.2698C171.995 37.2701 171.263 37.1932 170.545 37.0402C169.837 36.8895 169.148 36.6595 168.491 36.3546C167.833 36.0489 167.212 35.6678 166.642 35.2189C166.063 34.7644 165.543 34.2399 165.093 33.6573C164.964 33.5148 164.883 33.335 164.863 33.1438C164.869 33.0534 164.895 32.9655 164.94 32.8865C164.984 32.8076 165.046 32.7396 165.12 32.6877L166.026 31.9326C166.094 31.8841 166.168 31.8455 166.247 31.8178C166.317 31.7915 166.392 31.7772 166.467 31.7756C166.536 31.7762 166.603 31.7961 166.66 31.8329C166.724 31.8726 166.784 31.9181 166.839 31.9689L166.996 32.1199L167.095 32.2196C167.515 32.658 167.987 33.0434 168.5 33.3673C168.996 33.6837 169.516 33.9604 170.055 34.1949C170.543 34.4079 171.048 34.5777 171.566 34.7024C171.97 34.8067 172.384 34.8645 172.801 34.8745C173.215 34.8738 173.628 34.8384 174.036 34.7688C174.46 34.6953 174.875 34.583 175.278 34.4336C175.678 34.2879 176.063 34.1016 176.426 33.8778C176.777 33.6621 177.096 33.3977 177.374 33.0925C177.646 32.7921 177.864 32.4466 178.017 32.0716C178.178 31.6724 178.258 31.2453 178.253 30.8151C178.27 30.2842 178.101 29.764 177.776 29.3441C177.424 28.9178 176.987 28.57 176.492 28.3232C175.902 28.0214 175.282 27.7795 174.644 27.6013C173.949 27.3999 173.231 27.2046 172.49 27.0153C171.445 26.7515 170.419 26.4226 169.415 26.0307C168.63 25.7311 167.89 25.3245 167.216 24.8225C166.673 24.4214 166.224 23.9058 165.902 23.3123C165.604 22.7145 165.455 22.0533 165.467 21.3852C165.456 20.5711 165.63 19.765 165.977 19.0282C166.323 18.2914 166.833 17.643 167.467 17.1324C168.154 16.5852 168.939 16.175 169.781 15.9242C170.76 15.628 171.778 15.4833 172.801 15.4953C173.392 15.4975 173.98 15.5643 174.556 15.6947C175.153 15.8273 175.737 16.0165 176.299 16.2595C176.856 16.4991 177.393 16.7829 177.906 17.1082C178.401 17.4219 178.861 17.7885 179.277 18.2016C179.4 18.3245 179.524 18.4574 179.648 18.6003C179.755 18.7071 179.821 18.8484 179.833 18.999C179.826 19.0846 179.802 19.1679 179.763 19.2441C179.723 19.3204 179.669 19.388 179.603 19.4431L178.745 20.2707C178.697 20.3278 178.638 20.3748 178.572 20.409C178.506 20.4433 178.433 20.464 178.359 20.47C178.16 20.442 177.98 20.3394 177.854 20.1831Z" fill="#ffffff"/>
<path d="M199.248 15.7882C199.677 15.7882 199.892 16.0117 199.892 16.4587V17.6156C199.892 17.7836 199.831 17.946 199.72 18.0716C199.657 18.14 199.579 18.1933 199.493 18.2278C199.407 18.2623 199.314 18.2771 199.221 18.271H187.36V24.5807H196.796C196.957 24.5778 197.114 24.6337 197.237 24.7378C197.303 24.802 197.353 24.88 197.385 24.9662C197.417 25.0524 197.429 25.1446 197.421 25.2362V26.4051C197.423 26.5706 197.367 26.7318 197.264 26.8612C197.207 26.9293 197.134 26.9829 197.052 27.0176C196.97 27.0522 196.881 27.0669 196.793 27.0605H187.36V34.4969H199.351C199.78 34.4969 199.994 34.7204 199.994 35.1674V36.3514C200.007 36.4367 199.999 36.5237 199.971 36.6054C199.944 36.6872 199.898 36.7615 199.837 36.8224C199.776 36.8833 199.702 36.9293 199.62 36.9566C199.538 36.9838 199.452 36.9918 199.366 36.9797H185.517C185.099 36.9797 184.889 36.7783 184.889 36.3756V16.4406C184.889 16.0036 185.099 15.7852 185.517 15.7852L199.248 15.7882Z" fill="#ffffff"/>
<path d="M63.2585 43.9811C63.3874 45.3383 63.5173 46.7065 63.6482 48.0859C63.6522 48.1142 63.6496 48.1431 63.6405 48.1702C63.6315 48.1973 63.6163 48.222 63.596 48.2422C63.5758 48.2624 63.5512 48.2776 63.524 48.2867C63.4969 48.2957 63.4681 48.2983 63.4397 48.2943H63.1951C63.1659 48.2975 63.1363 48.2942 63.1085 48.2847C63.0807 48.2751 63.0554 48.2595 63.0343 48.2391C63.0132 48.2186 62.9969 48.1937 62.9866 48.1661C62.9763 48.1386 62.9722 48.1091 62.9746 48.0798L62.3222 40.9304L59.3621 47.5211C59.3402 47.5707 59.3018 47.6113 59.2534 47.6358C59.2139 47.6597 59.1695 47.6741 59.1235 47.6781H58.9725C58.9272 47.6798 58.8821 47.6726 58.8396 47.657C58.7919 47.6229 58.7552 47.5757 58.7339 47.5211L57.2508 44.2257L55.7678 40.9304L55.1154 48.0798C55.1198 48.1093 55.1173 48.1394 55.1082 48.1677C55.0991 48.196 55.0835 48.2219 55.0628 48.2432C55.042 48.2646 55.0166 48.2808 54.9885 48.2907C54.9605 48.3006 54.9305 48.3039 54.9009 48.3003H54.6563C54.6267 48.3025 54.597 48.2976 54.5697 48.286C54.5424 48.2745 54.5183 48.2566 54.4992 48.2339C54.4635 48.1861 54.4454 48.1274 54.4479 48.0678L55.212 39.8703C55.2131 39.8373 55.2215 39.805 55.2366 39.7757C55.2518 39.7465 55.2733 39.721 55.2996 39.7011C55.3454 39.6681 55.4003 39.6502 55.4567 39.6498H55.8403C55.8765 39.6589 55.9098 39.6769 55.9373 39.7023C55.9647 39.7276 55.9854 39.7594 55.9973 39.7947L59.0389 46.6119L62.0805 39.8008C62.0974 39.7528 62.1305 39.7121 62.1742 39.686C62.2177 39.661 62.2661 39.6455 62.3161 39.6407C62.3714 39.6367 62.427 39.6367 62.4823 39.6407H62.6393C62.6996 39.6372 62.7589 39.6566 62.8054 39.6951C62.825 39.7122 62.8409 39.733 62.8523 39.7564C62.8637 39.7797 62.8704 39.8051 62.8719 39.831V39.8703C63.0008 41.2516 63.1296 42.6219 63.2585 43.9811Z" fill="#DF9730"/>
<path d="M64.977 48.1066C65.0313 47.9596 65.0867 47.8146 65.1431 47.6717C65.1995 47.5287 65.2549 47.3938 65.3092 47.2669L66.2546 44.9956L66.9705 43.283L67.5021 42.0174L67.8917 41.0871L68.1938 40.3863C68.2763 40.185 68.3589 39.9887 68.4414 39.7974C68.4579 39.7507 68.4847 39.7083 68.52 39.6735C68.5598 39.6409 68.6106 39.6247 68.6619 39.6282H68.8311C68.8835 39.6236 68.9356 39.6399 68.9761 39.6735C69.0085 39.7067 69.0359 39.7443 69.0576 39.7853L72.4919 48.0251C72.4906 48.0412 72.4906 48.0573 72.4919 48.0734C72.494 48.0935 72.494 48.1137 72.4919 48.1338C72.4919 48.2184 72.4314 48.2707 72.3106 48.2909H72.0086C71.9592 48.2904 71.9113 48.2735 71.8725 48.2429C71.8337 48.2123 71.8062 48.1697 71.7941 48.1217L70.9816 46.1312H66.4902L66.0734 47.1401C65.9345 47.4743 65.7975 47.8126 65.6626 48.1549C65.6499 48.1993 65.6229 48.2382 65.5857 48.2655C65.5485 48.2929 65.5034 48.3071 65.4572 48.306H65.3998H65.1491C65.0283 48.306 64.9679 48.2456 64.9679 48.161C64.9676 48.1425 64.9707 48.1241 64.977 48.1066ZM68.7405 40.6672C68.4102 41.4727 68.082 42.2731 67.7558 43.0685C67.4296 43.8639 67.1014 44.6643 66.7711 45.4698H70.6977L68.7405 40.6672Z" fill="#DF9730"/>
<path d="M77.784 39.646C78.1477 39.647 78.5074 39.722 78.8411 39.8665C79.1621 40.0049 79.4533 40.2038 79.6989 40.4525C79.9428 40.7007 80.1375 40.9927 80.2728 41.3133C80.5163 41.8992 80.5494 42.5513 80.3665 43.1588C80.2909 43.406 80.18 43.641 80.0372 43.8565C79.8953 44.0702 79.7245 44.2633 79.5298 44.4304C79.3347 44.5986 79.1159 44.737 78.8804 44.8412L80.3453 48.0489C80.3618 48.082 80.372 48.1178 80.3755 48.1546C80.3736 48.1907 80.361 48.2254 80.3393 48.2543C80.3267 48.2718 80.3098 48.2858 80.2902 48.2948C80.2706 48.3038 80.249 48.3075 80.2275 48.3056H79.8198C79.7859 48.3058 79.7529 48.295 79.7257 48.2748C79.6985 48.2547 79.6785 48.2263 79.6687 48.1939L78.231 45.0043C78.1534 45.0234 78.0747 45.0375 77.9954 45.0466C77.9049 45.052 77.8141 45.052 77.7236 45.0466H74.8843V48.067C74.8884 48.0953 74.8858 48.1242 74.8767 48.1513C74.8677 48.1784 74.8524 48.2031 74.8322 48.2233C74.812 48.2435 74.7873 48.2588 74.7602 48.2678C74.7331 48.2769 74.7042 48.2795 74.6759 48.2754H74.4252C74.3969 48.2795 74.368 48.2769 74.3409 48.2678C74.3138 48.2588 74.2891 48.2435 74.2689 48.2233C74.2487 48.2031 74.2335 48.1784 74.2244 48.1513C74.2154 48.1242 74.2128 48.0953 74.2168 48.067V39.8393C74.2317 39.7854 74.2574 39.735 74.2923 39.6913C74.3104 39.6755 74.3315 39.6636 74.3544 39.6564C74.3772 39.6491 74.4014 39.6466 74.4252 39.649L77.784 39.646ZM77.4457 44.4002H77.9259C78.0832 44.3962 78.2389 44.3687 78.3881 44.3186H78.4243C78.6247 44.2467 78.8131 44.1448 78.9831 44.0166C79.1526 43.894 79.3014 43.7451 79.4241 43.5756C79.7089 43.179 79.8445 42.6945 79.8069 42.2076C79.7693 41.7208 79.561 41.2628 79.2187 40.9146C79.0325 40.7265 78.8121 40.5758 78.5693 40.4706C78.3157 40.3609 78.0421 40.3053 77.7658 40.3075H74.8873V44.4002H77.4457Z" fill="#DF9730"/>
<path d="M82.9337 48.0255C82.9389 48.0625 82.9353 48.1003 82.9233 48.1357C82.9112 48.1712 82.891 48.2033 82.8642 48.2294C82.8375 48.2556 82.805 48.2751 82.7693 48.2864C82.7336 48.2976 82.6958 48.3004 82.6588 48.2943H82.5199C82.3487 48.2943 82.2631 48.2047 82.2631 48.0255V39.9095C82.2615 39.8429 82.2853 39.7781 82.3296 39.7283C82.3537 39.7024 82.3833 39.6822 82.4162 39.6691C82.4491 39.656 82.4845 39.6505 82.5199 39.6528H82.6769C82.7441 39.6513 82.8092 39.6763 82.8582 39.7223C82.8835 39.7462 82.9034 39.7753 82.9164 39.8076C82.9295 39.84 82.9353 39.8747 82.9337 39.9095V44.7423L87.5731 39.8189C87.6083 39.7696 87.6533 39.728 87.7052 39.6968C87.7572 39.6657 87.815 39.6455 87.8751 39.6377H88.5004C88.6433 39.6377 88.6645 39.688 88.5638 39.7887C88.5638 39.7706 88.5638 39.7615 88.5638 39.7676C88.5619 39.7806 88.5619 39.7938 88.5638 39.8068L85.2957 43.226L89.3582 48.0587C89.4871 48.2138 89.473 48.2913 89.3159 48.2913H88.8024C88.7581 48.2905 88.7155 48.2745 88.6816 48.246C88.6335 48.2056 88.589 48.1612 88.5487 48.1131L84.8728 43.7032L82.9488 45.7299L82.9337 48.0255Z" fill="#DF9730"/>
<path d="M96.7101 39.6462C96.74 39.6423 96.7704 39.6452 96.7989 39.6549C96.8275 39.6646 96.8534 39.6807 96.8748 39.702C96.8961 39.7234 96.9122 39.7493 96.9219 39.7779C96.9316 39.8064 96.9345 39.8368 96.9306 39.8667V40.0993C96.9329 40.1294 96.9287 40.1596 96.918 40.1879C96.9074 40.2161 96.8907 40.2417 96.8691 40.2628C96.8474 40.2838 96.8214 40.2998 96.7929 40.3097C96.7644 40.3196 96.734 40.323 96.704 40.3198H91.5421V43.443H95.7133C95.7711 43.4401 95.828 43.4583 95.8734 43.4943C95.8953 43.5163 95.912 43.5429 95.9225 43.5721C95.9329 43.6014 95.9368 43.6325 95.9338 43.6634V43.9021C95.9362 43.9314 95.9321 43.9608 95.9218 43.9883C95.9115 44.0159 95.8952 44.0408 95.8741 44.0613C95.853 44.0818 95.8277 44.0973 95.7999 44.1069C95.7721 44.1164 95.7425 44.1197 95.7133 44.1165H91.5421V47.6293H96.7916C96.8211 47.6249 96.8511 47.6274 96.8795 47.6365C96.9078 47.6456 96.9336 47.6611 96.955 47.6819C96.9763 47.7027 96.9926 47.7281 97.0025 47.7561C97.0124 47.7842 97.0157 47.8142 97.0121 47.8438V48.0884C97.0157 48.1172 97.0126 48.1464 97.003 48.1737C96.9934 48.2011 96.9776 48.2258 96.9568 48.2461C96.936 48.2663 96.9108 48.2814 96.8832 48.2902C96.8556 48.299 96.8263 48.3013 96.7977 48.2968H91.0588C91.0343 48.2977 91.0099 48.2936 90.9871 48.2848C90.9642 48.2759 90.9434 48.2626 90.9259 48.2455C90.9077 48.225 90.8938 48.2011 90.885 48.1751C90.8761 48.1492 90.8726 48.1218 90.8745 48.0944V39.8698C90.8722 39.8598 90.8722 39.8495 90.8745 39.8396C90.8765 39.8316 90.8765 39.8233 90.8745 39.8154C90.8866 39.7067 90.9551 39.6523 91.0799 39.6523L96.7101 39.6462Z" fill="#DF9730"/>
<path d="M104.382 39.6463C104.44 39.6434 104.497 39.6617 104.542 39.6976C104.586 39.7387 104.612 39.795 104.615 39.8547V40.0933C104.617 40.153 104.597 40.2114 104.557 40.2564C104.534 40.279 104.507 40.2963 104.477 40.3073C104.446 40.3182 104.414 40.3225 104.382 40.3199H101.664V48.0885C101.668 48.1176 101.665 48.1472 101.656 48.175C101.646 48.2029 101.631 48.2282 101.61 48.249C101.589 48.2697 101.564 48.2854 101.536 48.2948C101.508 48.3041 101.478 48.3069 101.449 48.3029H101.211C101.182 48.3069 101.152 48.3041 101.124 48.2948C101.096 48.2854 101.071 48.2697 101.05 48.249C101.029 48.2282 101.014 48.2029 101.004 48.175C100.995 48.1472 100.992 48.1176 100.996 48.0885V40.3229H98.2778C98.1388 40.3229 98.0694 40.2474 98.0694 40.0963V39.8698C98.0671 39.8419 98.0709 39.8137 98.0806 39.7874C98.0902 39.7611 98.1055 39.7372 98.1253 39.7174C98.1452 39.6975 98.1691 39.6823 98.1954 39.6726C98.2217 39.6629 98.2498 39.6591 98.2778 39.6614L104.382 39.6463Z" fill="#DF9730"/>
<path d="M106.26 39.8698C106.257 39.841 106.26 39.8118 106.27 39.7845C106.279 39.7571 106.295 39.7324 106.316 39.7121C106.337 39.6919 106.362 39.6768 106.389 39.668C106.417 39.6592 106.446 39.6569 106.475 39.6614H106.714C106.743 39.6593 106.772 39.663 106.799 39.6724C106.827 39.6817 106.852 39.6965 106.874 39.7158C106.893 39.7364 106.907 39.7608 106.917 39.7872C106.926 39.8137 106.93 39.8418 106.928 39.8698V48.1096C106.932 48.1384 106.929 48.1676 106.919 48.1949C106.909 48.2223 106.894 48.247 106.873 48.2672C106.852 48.2874 106.827 48.3025 106.799 48.3113C106.772 48.3202 106.742 48.3224 106.714 48.318H106.475C106.446 48.3224 106.417 48.3202 106.389 48.3113C106.362 48.3025 106.337 48.2874 106.316 48.2672C106.295 48.247 106.279 48.2223 106.27 48.1949C106.26 48.1676 106.257 48.1384 106.26 48.1096V39.8698Z" fill="#DF9730"/>
<path d="M115.636 39.8455C115.634 39.8178 115.638 39.7899 115.648 39.764C115.658 39.738 115.674 39.7146 115.694 39.6955C115.715 39.6765 115.739 39.6621 115.765 39.6536C115.792 39.645 115.82 39.6425 115.848 39.6462H116.11C116.241 39.6462 116.308 39.7086 116.31 39.8334V48.1125C116.311 48.14 116.306 48.1675 116.295 48.193C116.285 48.2184 116.269 48.2412 116.248 48.2596C116.228 48.2781 116.203 48.2918 116.177 48.2998C116.15 48.3078 116.123 48.3098 116.095 48.3058H115.82C115.783 48.3064 115.746 48.2982 115.713 48.282C115.679 48.2657 115.65 48.2418 115.627 48.2122L109.749 40.7758V48.1004C109.753 48.1292 109.75 48.1584 109.74 48.1857C109.731 48.2131 109.715 48.2379 109.694 48.2581C109.673 48.2783 109.648 48.2934 109.62 48.3022C109.593 48.311 109.564 48.3133 109.535 48.3088H109.29C109.262 48.3129 109.233 48.3103 109.206 48.3012C109.179 48.2922 109.154 48.2769 109.134 48.2567C109.114 48.2365 109.098 48.2118 109.089 48.1847C109.08 48.1576 109.078 48.1287 109.082 48.1004V39.8697C109.079 39.8156 109.095 39.7623 109.127 39.7187C109.145 39.6985 109.168 39.6829 109.193 39.6729C109.218 39.663 109.245 39.659 109.272 39.6613H109.644C109.665 39.6614 109.687 39.6666 109.706 39.6766C109.726 39.6866 109.743 39.701 109.755 39.7187L111.19 41.5309L112.7 43.4217L114.211 45.3125L115.645 47.1248L115.636 39.8455Z" fill="#DF9730"/>
<path d="M122.574 40.2355C122.23 40.2338 121.887 40.2806 121.556 40.3744C121.239 40.4637 120.934 40.5936 120.65 40.7611C120.094 41.0908 119.633 41.5591 119.312 42.1203C119.151 42.4055 119.026 42.7099 118.941 43.0264C118.762 43.6727 118.762 44.3554 118.941 45.0018C119.028 45.3188 119.156 45.6234 119.321 45.9079C119.484 46.185 119.682 46.4399 119.91 46.666C120.139 46.8931 120.396 47.09 120.674 47.252C120.959 47.4162 121.263 47.5431 121.58 47.6296C121.902 47.7191 122.234 47.7639 122.568 47.7625C122.987 47.7671 123.403 47.6976 123.797 47.5571C124.143 47.4354 124.469 47.2634 124.764 47.0466V44.7027C124.76 44.6736 124.763 44.644 124.772 44.6162C124.782 44.5883 124.797 44.563 124.818 44.5422C124.839 44.5215 124.864 44.5058 124.892 44.4964C124.92 44.4871 124.949 44.4843 124.978 44.4883H125.223C125.281 44.4852 125.337 44.5047 125.38 44.5427C125.4 44.5639 125.416 44.5891 125.426 44.6167C125.436 44.6442 125.44 44.6735 125.438 44.7027V47.3124C125.439 47.3285 125.439 47.3447 125.438 47.3607C125.431 47.3829 125.422 47.4041 125.41 47.4242C125.399 47.4453 125.385 47.4647 125.368 47.4816C125.359 47.4904 125.349 47.4973 125.338 47.502C125.326 47.5067 125.314 47.509 125.302 47.5087C124.75 47.9294 124.109 48.2172 123.428 48.3497C122.747 48.4822 122.044 48.456 121.375 48.2729C121.005 48.1709 120.649 48.0206 120.318 47.8259C119.988 47.6344 119.684 47.402 119.412 47.1342C119.142 46.8644 118.909 46.5596 118.72 46.2281C118.527 45.8952 118.378 45.5389 118.276 45.1679C118.12 44.5979 118.079 44.0023 118.155 43.4163C118.232 42.8302 118.425 42.2653 118.723 41.7548C119.107 41.097 119.653 40.5481 120.309 40.16C120.641 39.9635 120.997 39.8112 121.369 39.7069C122.327 39.4409 123.347 39.508 124.263 39.8972C124.445 39.9767 124.622 40.0664 124.794 40.166C124.963 40.2647 125.125 40.3758 125.278 40.4983C125.307 40.5127 125.333 40.5333 125.354 40.5589C125.375 40.5845 125.39 40.6143 125.398 40.6463C125.404 40.6735 125.402 40.7015 125.395 40.7282C125.388 40.7549 125.374 40.7796 125.356 40.8003L125.199 40.9997C125.182 41.0273 125.16 41.0512 125.133 41.0699C125.107 41.0886 125.077 41.1017 125.045 41.1084C124.955 41.099 124.87 41.0609 124.803 40.9997C124.478 40.7597 124.118 40.5694 123.737 40.4348C123.363 40.3038 122.97 40.2364 122.574 40.2355Z" fill="#DF9730"/>
<path d="M130.708 48.1068C130.763 47.9598 130.818 47.8149 130.874 47.6719C130.931 47.5289 130.986 47.394 131.04 47.2672L131.995 45.0048L132.711 43.2922L133.242 42.0267L133.632 41.0964L133.934 40.3956C134.017 40.1943 134.099 39.9979 134.182 39.8066C134.198 39.7599 134.225 39.7176 134.26 39.6828C134.3 39.6502 134.351 39.634 134.402 39.6375H134.571C134.624 39.6329 134.676 39.6492 134.716 39.6828C134.749 39.7159 134.776 39.7535 134.798 39.7946L138.22 48.0253C138.219 48.0414 138.219 48.0575 138.22 48.0736C138.222 48.0937 138.222 48.1139 138.22 48.134C138.22 48.2186 138.16 48.273 138.039 48.2911H137.737C137.687 48.2906 137.64 48.2737 137.601 48.2431C137.562 48.2125 137.534 48.1699 137.522 48.1219L136.689 46.1103H132.224L131.808 47.1192C131.669 47.4534 131.532 47.7917 131.397 48.134C131.384 48.1784 131.357 48.2173 131.32 48.2446C131.283 48.2719 131.238 48.2862 131.191 48.285H131.134H130.883C130.763 48.285 130.702 48.2246 130.702 48.1401C130.703 48.1288 130.705 48.1177 130.708 48.1068ZM134.472 40.6675C134.141 41.4729 133.813 42.2733 133.487 43.0687C133.161 43.8641 132.833 44.6645 132.502 45.47H136.429L134.472 40.6675Z" fill="#DF9730"/>
<path d="M143.282 40.2357C142.938 40.234 142.596 40.2807 142.264 40.3746C141.947 40.4638 141.642 40.5938 141.358 40.7612C140.802 41.091 140.341 41.5593 140.02 42.1204C139.859 42.4057 139.734 42.7101 139.649 43.0266C139.47 43.6729 139.47 44.3557 139.649 45.002C139.736 45.3191 139.864 45.6236 140.029 45.9081C140.192 46.1852 140.39 46.4401 140.618 46.6662C141.08 47.1231 141.651 47.4548 142.277 47.6297C142.598 47.7193 142.93 47.764 143.264 47.7626C143.683 47.7672 144.099 47.6977 144.494 47.5573C144.839 47.4356 145.165 47.2636 145.46 47.0468V44.7029C145.456 44.6738 145.459 44.6442 145.468 44.6163C145.478 44.5885 145.493 44.5632 145.514 44.5424C145.535 44.5217 145.56 44.506 145.588 44.4966C145.616 44.4873 145.645 44.4845 145.675 44.4885H145.919C145.977 44.4854 146.033 44.5049 146.076 44.5428C146.096 44.5641 146.112 44.5893 146.122 44.6169C146.132 44.6444 146.136 44.6737 146.134 44.7029V47.3126C146.136 47.3286 146.136 47.3449 146.134 47.3609C146.127 47.383 146.118 47.4043 146.106 47.4244C146.095 47.4454 146.081 47.4647 146.064 47.4817C146.056 47.4906 146.045 47.4975 146.034 47.5022C146.022 47.5069 146.01 47.5092 145.998 47.5089C145.446 47.9294 144.805 48.217 144.124 48.3495C143.443 48.4821 142.74 48.4559 142.071 48.2731C141.701 48.1711 141.345 48.0208 141.014 47.8261C140.684 47.6346 140.38 47.4022 140.108 47.1344C139.838 46.8645 139.605 46.5598 139.416 46.2283C139.223 45.8953 139.074 45.539 138.972 45.1681C138.816 44.598 138.775 44.0025 138.851 43.4164C138.928 42.8303 139.121 42.2655 139.419 41.755C139.61 41.4248 139.843 41.1203 140.111 40.8488C140.652 40.3033 141.325 39.9078 142.065 39.7011C143.023 39.435 144.044 39.5021 144.959 39.8913C145.141 39.9707 145.318 40.0605 145.49 40.1602C145.659 40.2589 145.821 40.3699 145.974 40.4924C146.003 40.5071 146.028 40.528 146.049 40.5535C146.069 40.5791 146.084 40.6087 146.091 40.6404C146.097 40.6676 146.095 40.6956 146.088 40.7223C146.081 40.7491 146.067 40.7737 146.049 40.7945L145.892 40.9938C145.875 41.0214 145.853 41.0453 145.826 41.064C145.8 41.0827 145.77 41.0958 145.738 41.1025C145.648 41.0931 145.563 41.055 145.496 40.9938C145.171 40.7538 144.812 40.5635 144.43 40.429C144.061 40.3016 143.673 40.2363 143.282 40.2357Z" fill="#DF9730"/>
<path d="M153.778 39.6462C153.808 39.6423 153.839 39.6452 153.867 39.6549C153.896 39.6646 153.922 39.6807 153.943 39.702C153.964 39.7234 153.981 39.7493 153.99 39.7779C154 39.8064 154.003 39.8368 153.999 39.8667V40.0993C154.001 40.1294 153.997 40.1596 153.986 40.1879C153.976 40.2161 153.959 40.2417 153.937 40.2628C153.916 40.2838 153.89 40.2998 153.861 40.3097C153.833 40.3196 153.802 40.323 153.772 40.3198H148.607V43.443H152.779C152.837 43.4401 152.893 43.4583 152.939 43.4943C152.961 43.5163 152.977 43.5429 152.988 43.5721C152.998 43.6014 153.002 43.6325 152.999 43.6634V43.9021C153.002 43.9314 152.997 43.9608 152.987 43.9883C152.977 44.0159 152.961 44.0408 152.939 44.0613C152.918 44.0818 152.893 44.0973 152.865 44.1069C152.837 44.1164 152.808 44.1197 152.779 44.1165H148.607V47.6293H153.857C153.886 47.6249 153.917 47.6274 153.945 47.6365C153.973 47.6456 153.999 47.6611 154.02 47.6819C154.042 47.7027 154.058 47.7281 154.068 47.7561C154.078 47.7842 154.081 47.8142 154.077 47.8438V48.0884C154.081 48.1172 154.078 48.1464 154.068 48.1737C154.059 48.2011 154.043 48.2258 154.022 48.2461C154.001 48.2663 153.976 48.2814 153.949 48.2902C153.921 48.299 153.892 48.3013 153.863 48.2968H148.124C148.1 48.2977 148.075 48.2936 148.052 48.2848C148.03 48.2759 148.009 48.2626 147.991 48.2455C147.973 48.225 147.959 48.2011 147.95 48.1751C147.942 48.1492 147.938 48.1218 147.94 48.0944V39.8698C147.938 39.8598 147.938 39.8495 147.94 39.8396C147.942 39.8316 147.942 39.8234 147.94 39.8154C147.952 39.7067 148.019 39.6523 148.142 39.6523L153.778 39.6462Z" fill="#DF9730"/>
<path d="M162.199 39.8455C162.197 39.8178 162.202 39.7899 162.212 39.764C162.222 39.738 162.237 39.7146 162.258 39.6955C162.278 39.6765 162.302 39.6621 162.329 39.6536C162.355 39.645 162.383 39.6425 162.411 39.6462H162.674C162.805 39.6462 162.871 39.7086 162.873 39.8334V48.1125C162.874 48.14 162.869 48.1675 162.859 48.193C162.848 48.2184 162.832 48.2412 162.811 48.2596C162.791 48.2781 162.766 48.2918 162.74 48.2998C162.714 48.3078 162.686 48.3098 162.659 48.3058H162.384C162.346 48.3064 162.309 48.2982 162.276 48.282C162.242 48.2657 162.213 48.2418 162.19 48.2122L156.313 40.7758V48.1004C156.316 48.1292 156.313 48.1584 156.304 48.1857C156.294 48.2131 156.278 48.2379 156.257 48.2581C156.237 48.2783 156.211 48.2934 156.184 48.3022C156.156 48.311 156.127 48.3133 156.098 48.3088H155.856C155.828 48.3129 155.799 48.3103 155.772 48.3012C155.745 48.2922 155.72 48.2769 155.7 48.2567C155.68 48.2365 155.665 48.2118 155.656 48.1847C155.647 48.1576 155.644 48.1287 155.648 48.1004V39.8697C155.645 39.8156 155.661 39.7623 155.693 39.7187C155.711 39.6985 155.734 39.6829 155.759 39.6729C155.784 39.663 155.811 39.659 155.838 39.6613H156.207C156.229 39.6614 156.25 39.6666 156.27 39.6766C156.289 39.6866 156.306 39.701 156.319 39.7187L157.753 41.5309L159.264 43.4217L160.774 45.3125L162.209 47.1248L162.199 39.8455Z" fill="#DF9730"/>
<path d="M171.865 40.4748C171.894 40.4895 171.92 40.5104 171.94 40.5359C171.96 40.5615 171.975 40.5911 171.983 40.6228C171.988 40.65 171.987 40.678 171.979 40.7047C171.972 40.7314 171.959 40.7561 171.94 40.7768L171.783 40.9762C171.766 41.0038 171.744 41.0277 171.718 41.0464C171.691 41.0651 171.661 41.0782 171.629 41.0849C171.539 41.0755 171.455 41.0374 171.388 40.9762C171.061 40.7355 170.702 40.5423 170.321 40.4023C169.944 40.2649 169.545 40.1953 169.143 40.1969C168.797 40.1953 168.453 40.242 168.12 40.3358C167.802 40.4266 167.497 40.5586 167.213 40.7285C166.933 40.8964 166.675 41.0994 166.446 41.3326C165.989 41.7961 165.657 42.3675 165.48 42.9938C165.391 43.3083 165.346 43.6336 165.347 43.9604C165.346 44.2927 165.394 44.6234 165.489 44.942C165.582 45.2595 165.715 45.564 165.884 45.8482C166.054 46.1304 166.256 46.3911 166.489 46.6244C166.719 46.855 166.975 47.0578 167.253 47.2285C167.527 47.3986 167.823 47.5326 168.132 47.6272C168.441 47.7219 168.763 47.7698 169.086 47.7692C169.289 47.7681 169.491 47.7489 169.69 47.7118C169.903 47.6726 170.112 47.6161 170.315 47.5426C170.523 47.4677 170.725 47.3768 170.92 47.2708C171.11 47.1669 171.29 47.0444 171.457 46.9053C171.483 46.8852 171.513 46.8706 171.544 46.8622C171.576 46.8539 171.609 46.8522 171.641 46.857C171.68 46.8666 171.715 46.8842 171.746 46.9087C171.777 46.9331 171.802 46.9639 171.82 46.999L171.907 47.1379C171.94 47.1944 171.954 47.2601 171.946 47.3252C171.943 47.3614 171.93 47.3962 171.91 47.4266C171.89 47.4571 171.863 47.4824 171.832 47.5004C171.528 47.7315 171.197 47.9252 170.847 48.0773C170.295 48.3076 169.702 48.4247 169.104 48.4216C168.319 48.4239 167.547 48.2153 166.869 47.8175C166.539 47.6237 166.235 47.3893 165.963 47.1198C165.692 46.85 165.458 46.5452 165.268 46.2136C165.074 45.8776 164.923 45.5184 164.818 45.1444C164.659 44.5732 164.616 43.9758 164.693 43.3878C164.77 42.7998 164.965 42.2334 165.265 41.7222C165.457 41.3919 165.691 41.0874 165.96 40.8161C166.23 40.5459 166.535 40.3123 166.866 40.1214C167.202 39.9269 167.561 39.7757 167.935 39.6713C168.323 39.5636 168.723 39.5097 169.125 39.5113C169.716 39.5092 170.301 39.6284 170.844 39.8616C171.026 39.941 171.204 40.0308 171.376 40.1305C171.547 40.2328 171.711 40.3479 171.865 40.4748Z" fill="#DF9730"/>
<path d="M173.013 39.9854C172.987 39.9518 172.971 39.9124 172.964 39.8707C172.958 39.8291 172.962 39.7865 172.976 39.7468C172.996 39.7139 173.024 39.6874 173.059 39.6707C173.093 39.654 173.132 39.6479 173.17 39.6532H173.375C173.411 39.6497 173.448 39.6497 173.484 39.6532C173.513 39.6595 173.541 39.6718 173.565 39.6894C173.596 39.7129 173.623 39.7415 173.644 39.774C173.671 39.8133 173.701 39.8646 173.738 39.925L176.069 43.8335L178.486 39.8465C178.513 39.7882 178.555 39.7383 178.608 39.7022C178.662 39.666 178.724 39.6449 178.788 39.6411H179.075C179.254 39.6411 179.291 39.7307 179.186 39.9099L176.396 44.501V48.0259C176.401 48.0624 176.397 48.0995 176.385 48.1344C176.374 48.1693 176.354 48.201 176.328 48.227C176.302 48.2531 176.27 48.2727 176.235 48.2845C176.2 48.2962 176.163 48.2997 176.127 48.2947H175.988C175.817 48.2947 175.731 48.2051 175.731 48.0259V44.5493L173.013 39.9854Z" fill="#DF9730"/>
</svg>
