<svg width="116" height="31" viewBox="0 0 116 31" fill="none" xmlns="http://www.w3.org/2000/svg">
<path d="M14.2889 26.0799H11.5104L10.349 24.3035V21.3936L5.95703 17.0543V10.3359L11.0707 5.44818L17.246 5.43066L22.3597 10.3184V17.042L17.9678 21.3814V24.2912L16.8063 26.0676L14.2889 26.0799ZM12.1516 24.8939L16.1651 24.8763L16.7818 23.9338V20.8856L21.1737 16.5462V10.8264L16.7713 6.62193L11.5472 6.63419L7.14479 10.8387V16.5585L11.5367 20.8979V23.9496L12.1516 24.8939Z" fill="#DF9730"/>
<path d="M19.7302 13.7488H18.5442V11.2577L16.0863 8.90842L16.9062 8.05176L19.7302 10.7514V13.7488Z" fill="#DF9730"/>
<path d="M17.3371 27.1416H10.9796V28.3276H17.3371V27.1416Z" fill="#DF9730"/>
<path d="M17.3371 28.9727H10.9796V30.1587H17.3371V28.9727Z" fill="#DF9730"/>
<path d="M5.91286 -2.22154e-05L4.9751 0.726074L6.64823 2.88695L7.586 2.16086L5.91286 -2.22154e-05Z" fill="#DF9730"/>
<path d="M0.330046 6.9453L0.00512695 8.08594L2.63348 8.83464L2.95839 7.69401L0.330046 6.9453Z" fill="#DF9730"/>
<path d="M2.37389 14.7797L0 16.1338L0.58762 17.164L2.96151 15.81L2.37389 14.7797Z" fill="#DF9730"/>
<path d="M22.3901 0.000741637L20.7169 2.16162L21.6547 2.88772L23.3278 0.726838L22.3901 0.000741637Z" fill="#DF9730"/>
<path d="M27.9736 6.94707L25.3451 7.69531L25.6698 8.836L28.2983 8.08776L27.9736 6.94707Z" fill="#DF9730"/>
<path d="M25.9264 14.7778L25.339 15.8081L27.7131 17.1617L28.3006 16.1314L25.9264 14.7778Z" fill="#DF9730"/>
<path d="M33.1951 21.0854C33.199 21.1354 33.1921 21.1857 33.1749 21.2329C33.1576 21.28 33.1305 21.3229 33.0952 21.3587C33.0191 21.4229 32.9213 21.4555 32.8219 21.4497H32.1352C32.0852 21.4575 32.034 21.4535 31.9858 21.4381C31.9376 21.4227 31.8937 21.3963 31.8575 21.3609C31.8213 21.3255 31.7938 21.2822 31.7772 21.2344C31.7607 21.1866 31.7555 21.1355 31.762 21.0854V9.52307C31.7579 9.47341 31.7648 9.42344 31.7822 9.37674C31.7996 9.33004 31.8271 9.28777 31.8628 9.25295C31.8984 9.21813 31.9413 9.19162 31.9884 9.17532C32.0355 9.15903 32.0856 9.15335 32.1352 9.15868H32.8219C32.8713 9.15665 32.9205 9.16443 32.9668 9.18157C33.0131 9.19871 33.0556 9.22487 33.0917 9.25854C33.1265 9.29298 33.1536 9.3343 33.1714 9.37986C33.1892 9.42542 33.1973 9.47421 33.1951 9.52307V21.0854Z" fill="white"/>
<path d="M45.5807 21.45C45.5208 21.45 45.4617 21.4357 45.4084 21.4083C45.355 21.3809 45.309 21.3411 45.2742 21.2923L37.7236 11.3873V21.0891C37.7236 21.332 37.5969 21.4535 37.3435 21.4535H36.6568C36.6073 21.4605 36.5568 21.4559 36.5094 21.4401C36.462 21.4242 36.4189 21.3976 36.3836 21.3623C36.3483 21.3269 36.3216 21.2838 36.3058 21.2364C36.29 21.189 36.2854 21.1386 36.2924 21.0891V9.53732C36.2889 9.4367 36.3247 9.33868 36.3922 9.26403C36.4264 9.22866 36.4676 9.20086 36.5131 9.18245C36.5587 9.16404 36.6076 9.15543 36.6568 9.15717H37.5765C37.6387 9.15686 37.7 9.17188 37.755 9.20091C37.81 9.22994 37.857 9.27208 37.8918 9.32359L45.3267 19.0009V9.47951C45.3289 9.43423 45.3402 9.38985 45.3598 9.34898C45.3794 9.30812 45.407 9.27159 45.441 9.24156C45.475 9.21152 45.5146 9.18858 45.5575 9.17409C45.6005 9.15959 45.6459 9.15384 45.6911 9.15717H46.3708C46.4708 9.15747 46.5675 9.1928 46.6441 9.25702C46.6842 9.28819 46.7164 9.32841 46.738 9.37438C46.7596 9.42035 46.7701 9.47078 46.7685 9.52155V21.0838C46.7685 21.3268 46.636 21.4482 46.3708 21.4482L45.5807 21.45Z" fill="white"/>
<path d="M59.289 10.2326C59.3439 10.2721 59.3949 10.3167 59.4415 10.3657C59.4819 10.4081 59.5039 10.4648 59.5028 10.5234C59.5012 10.5739 59.4886 10.6235 59.466 10.6688C59.4439 10.7166 59.4175 10.7623 59.3872 10.8054L59.0368 11.352C59.0091 11.4046 58.9689 11.4495 58.9197 11.4829C58.8705 11.5162 58.8138 11.5368 58.7547 11.543C58.7091 11.5358 58.6644 11.5235 58.6216 11.5062C58.5623 11.4819 58.5064 11.4501 58.4552 11.4116C58.0355 11.1118 57.5739 10.8756 57.0852 10.7108C56.5966 10.5419 56.0833 10.4555 55.5663 10.4551C54.588 10.4407 53.6282 10.7225 52.8129 11.2634C51.9975 11.8042 51.3647 12.5789 50.9975 13.4858C50.7543 14.074 50.6293 14.7044 50.6296 15.341C50.6247 16.0017 50.7634 16.6557 51.036 17.2575C51.2962 17.8362 51.6642 18.36 52.1204 18.8009C52.5735 19.2374 53.1041 19.5856 53.6848 19.8275C54.27 20.0753 54.8993 20.2023 55.5348 20.2007C55.7462 20.201 55.9573 20.1887 56.1672 20.1639C56.3788 20.1383 56.588 20.0956 56.7926 20.036C57.0145 19.9709 57.2317 19.8907 57.4426 19.796C57.6841 19.6872 57.9182 19.5625 58.1433 19.4228C58.2001 19.3968 58.2541 19.3651 58.3045 19.3282C58.3629 19.2874 58.4178 19.2459 58.4692 19.2039C58.5172 19.1654 58.5681 19.1309 58.6216 19.1005C58.659 19.0765 58.7017 19.0621 58.746 19.0585C58.8094 19.0639 58.8701 19.0865 58.9217 19.1238C58.9732 19.1612 59.0136 19.2119 59.0385 19.2704L59.4187 19.8993C59.457 19.9704 59.4768 20.0499 59.4765 20.1306C59.4746 20.1909 59.4556 20.2493 59.4218 20.2993C59.388 20.3492 59.3408 20.3885 59.2855 20.4126C58.7563 20.7962 58.1729 21.0991 57.5547 21.3114C56.3524 21.7088 55.0598 21.7447 53.8373 21.4147C53.3094 21.2688 52.8029 21.0545 52.3306 20.777C51.864 20.5029 51.4342 20.1703 51.0518 19.7872C50.0655 18.7992 49.4343 17.5122 49.2568 16.1275C49.0793 14.7427 49.3656 13.3382 50.0707 12.1333C50.3457 11.6661 50.6782 11.2353 51.0605 10.851C51.4416 10.4664 51.8716 10.1336 52.3394 9.86118C52.8138 9.58567 53.3212 9.37141 53.8495 9.2235C55.0581 8.88954 56.3386 8.92247 57.5284 9.3181C58.1579 9.53269 58.7515 9.84098 59.289 10.2326Z" fill="white"/>
<path d="M61.8956 9.55476C61.8886 9.4473 61.9245 9.34145 61.9955 9.26045C62.0299 9.22571 62.0713 9.19857 62.1168 9.18077C62.1624 9.16296 62.2112 9.1549 62.26 9.15709H67.0444C67.569 9.15176 68.0891 9.25494 68.572 9.46016C69.0312 9.6586 69.4477 9.94416 69.7983 10.3011C70.1509 10.66 70.4321 11.0827 70.6269 11.5466C70.9806 12.3841 71.0332 13.3183 70.7758 14.1902C70.6681 14.5424 70.5119 14.8779 70.3116 15.187C70.1141 15.4923 69.8747 15.7683 69.6003 16.0069C69.3216 16.2479 69.0094 16.4473 68.6736 16.599L70.8512 21.0855C70.8739 21.1323 70.8881 21.1827 70.8932 21.2344C70.893 21.2642 70.8858 21.2936 70.8721 21.3201C70.8584 21.3466 70.8386 21.3694 70.8144 21.3868C70.7502 21.4311 70.6732 21.4526 70.5954 21.4482H69.7598C69.6656 21.4537 69.5726 21.4244 69.4987 21.3658C69.4287 21.3015 69.3737 21.2225 69.3376 21.1346L67.3352 16.9213C67.2721 16.9329 67.2083 16.9399 67.1442 16.9424C67.0776 16.9424 66.9895 16.9424 66.8797 16.9424H63.3287V21.082C63.3357 21.1315 63.3311 21.1819 63.3153 21.2294C63.2994 21.2768 63.2728 21.3198 63.2374 21.3552C63.2021 21.3905 63.159 21.4172 63.1116 21.433C63.0642 21.4488 63.0138 21.4534 62.9643 21.4464H62.2635C62.214 21.4534 62.1636 21.4488 62.1162 21.433C62.0688 21.4172 62.0257 21.3905 61.9904 21.3552C61.955 21.3198 61.9284 21.2768 61.9126 21.2294C61.8967 21.1819 61.8921 21.1315 61.8991 21.082L61.8956 9.55476ZM69.5197 13.0585C69.521 12.734 69.456 12.4127 69.3288 12.1142C69.2037 11.8208 69.0255 11.553 68.8032 11.3241C68.5789 11.0927 68.3118 10.907 68.0166 10.7776C67.7089 10.6413 67.3757 10.572 67.0391 10.5743H63.3287V15.5321H67.0706C67.4039 15.5353 67.7341 15.4679 68.0394 15.3342C68.3301 15.207 68.5931 15.0243 68.8137 14.7963C69.0366 14.568 69.2148 14.3 69.3393 14.0062C69.4634 13.7053 69.5254 13.3823 69.5215 13.0567L69.5197 13.0585Z" fill="white"/>
<path d="M81.7479 9.15703C81.9967 9.15703 82.1211 9.28666 82.1211 9.54594V10.2169C82.1215 10.3144 82.0859 10.4086 82.0212 10.4814C81.9847 10.5211 81.9398 10.552 81.8898 10.572C81.8398 10.592 81.7859 10.6006 81.7321 10.5971H74.8526V14.2567H80.3236C80.4171 14.255 80.508 14.2874 80.5794 14.3478C80.6176 14.385 80.6469 14.4303 80.6654 14.4803C80.6839 14.5303 80.691 14.5838 80.6863 14.6369V15.3148C80.6873 15.4109 80.6551 15.5043 80.5952 15.5794C80.562 15.6189 80.52 15.65 80.4725 15.6701C80.425 15.6902 80.3733 15.6987 80.3219 15.695H74.8526V20.0081H81.8127C82.0615 20.0081 82.1859 20.1377 82.1859 20.397V21.0837C82.1929 21.1332 82.1883 21.1836 82.1725 21.231C82.1566 21.2784 82.13 21.3215 82.0947 21.3569C82.0593 21.3922 82.0162 21.4189 81.9688 21.4347C81.9214 21.4505 81.871 21.4551 81.8215 21.4481H73.7839C73.541 21.4481 73.4196 21.3313 73.4196 21.0977V9.53543C73.4196 9.28199 73.541 9.15527 73.7839 9.15527L81.7479 9.15703Z" fill="white"/>
<path d="M85.0501 21.1187C85.0209 21.2162 84.9606 21.3014 84.8783 21.3612C84.796 21.421 84.6963 21.4522 84.5946 21.4498H83.8833C83.6497 21.4498 83.533 21.3616 83.533 21.1853C83.533 21.1323 83.5382 21.0795 83.5487 21.0276C83.5534 21.007 83.5617 20.9874 83.5732 20.9698L85.1412 17.1683L86.3289 14.3127C86.6653 13.5045 86.9497 12.8242 87.1821 12.2718C87.4145 11.7194 87.6049 11.2627 87.7532 10.9018C87.9027 10.541 88.0195 10.2636 88.1036 10.0697L88.2788 9.644C88.3173 9.55291 88.3418 9.49159 88.3523 9.45831C88.3803 9.3874 88.418 9.32076 88.4645 9.26035C88.5026 9.21991 88.5498 9.18912 88.6022 9.17054C88.6546 9.15196 88.7107 9.14611 88.7658 9.15348H89.2545C89.3072 9.14726 89.3606 9.15371 89.4103 9.1723C89.4599 9.19088 89.5044 9.22107 89.5401 9.26035C89.5868 9.32216 89.6273 9.38847 89.661 9.45831L94.4295 20.9733C94.4373 21.0015 94.4473 21.029 94.4593 21.0556C94.476 21.0951 94.4855 21.1372 94.4873 21.18C94.4893 21.2192 94.4807 21.2582 94.4626 21.293C94.4444 21.3278 94.4173 21.3572 94.384 21.378C94.3023 21.4256 94.2087 21.4487 94.1142 21.4446H93.4029C93.3034 21.4477 93.2058 21.4168 93.1262 21.357C93.0484 21.2981 92.9879 21.2194 92.951 21.1292L91.9909 18.7537H85.9856L85.0501 21.1187ZM86.5812 17.3522H91.4233L89.0163 11.2925L86.5812 17.3522Z" fill="white"/>
<path d="M103.155 11.7061C103.024 11.5893 102.858 11.4538 102.658 11.2997C102.444 11.1355 102.217 10.9891 101.98 10.8617C101.713 10.7188 101.433 10.6015 101.144 10.5113C100.828 10.4127 100.498 10.3636 100.167 10.3659C99.757 10.3575 99.3486 10.4167 98.958 10.5411C98.6536 10.6388 98.3709 10.7947 98.1259 11.0001C97.9287 11.1667 97.77 11.374 97.6605 11.6078C97.551 11.8415 97.4935 12.0962 97.4917 12.3543C97.4879 12.6216 97.5813 12.8812 97.7545 13.0848C97.9453 13.3052 98.1759 13.4876 98.4342 13.6226C98.735 13.7835 99.0506 13.915 99.3767 14.0151C99.7271 14.126 100.082 14.2311 100.44 14.3304C100.766 14.4192 101.101 14.5132 101.446 14.6124C101.79 14.7117 102.125 14.8233 102.451 14.9471C102.769 15.0672 103.076 15.2125 103.371 15.3815C103.649 15.5399 103.903 15.7376 104.124 15.9684C104.341 16.1961 104.513 16.4615 104.634 16.7515C104.763 17.0767 104.827 17.4246 104.82 17.7746C104.828 18.3282 104.704 18.8759 104.459 19.3723C104.222 19.8431 103.884 20.2558 103.469 20.581C103.028 20.9233 102.529 21.1827 101.996 21.3466C101.409 21.5298 100.797 21.6208 100.183 21.6164C99.7569 21.6166 99.3323 21.572 98.916 21.4832C98.5052 21.3958 98.1056 21.2624 97.7247 21.0856C97.343 20.9083 96.9832 20.6872 96.6526 20.4269C96.3167 20.1633 96.0149 19.8591 95.7539 19.5212C95.679 19.4385 95.6324 19.3342 95.6207 19.2233C95.6241 19.1709 95.6393 19.1199 95.665 19.0741C95.6908 19.0283 95.7266 18.9889 95.7696 18.9588L96.2952 18.5209C96.3345 18.4927 96.3775 18.4703 96.4231 18.4543C96.464 18.439 96.5073 18.4307 96.551 18.4298C96.5907 18.4301 96.6296 18.4417 96.6631 18.463C96.6999 18.4861 96.7345 18.5124 96.7664 18.5419L96.8575 18.6295L96.9154 18.6873C97.1587 18.9416 97.4323 19.1651 97.73 19.353C98.0176 19.5365 98.3193 19.697 98.6322 19.833C98.915 19.9565 99.2081 20.055 99.5081 20.1273C99.7424 20.1878 99.9828 20.2213 100.225 20.2272C100.465 20.2267 100.704 20.2062 100.941 20.1659C101.187 20.1232 101.428 20.0581 101.661 19.9714C101.893 19.8869 102.117 19.7789 102.327 19.6491C102.531 19.5239 102.716 19.3706 102.877 19.1936C103.035 19.0193 103.161 18.819 103.25 18.6014C103.343 18.3699 103.39 18.1222 103.387 17.8727C103.397 17.5647 103.299 17.263 103.11 17.0195C102.906 16.7723 102.652 16.5705 102.365 16.4274C102.023 16.2523 101.664 16.1121 101.293 16.0087C100.89 15.8919 100.474 15.7786 100.044 15.6688C99.4384 15.5158 98.8428 15.325 98.2608 15.0977C97.8054 14.924 97.3762 14.6882 96.9854 14.397C96.6703 14.1643 96.4102 13.8653 96.2234 13.521C96.0502 13.1743 95.9637 12.7908 95.9711 12.4033C95.9645 11.9311 96.0655 11.4636 96.2665 11.0363C96.4674 10.6089 96.763 10.2329 97.1308 9.93673C97.5291 9.61934 97.9847 9.38144 98.4728 9.23598C99.0406 9.06414 99.6314 8.98025 100.225 8.98722C100.567 8.98846 100.908 9.02724 101.242 9.10284C101.589 9.17979 101.927 9.28948 102.253 9.43044C102.577 9.56943 102.888 9.73404 103.185 9.92271C103.473 10.1046 103.739 10.3173 103.981 10.5569C104.052 10.6281 104.124 10.7052 104.196 10.7881C104.258 10.85 104.296 10.932 104.303 11.0194C104.299 11.069 104.285 11.1173 104.262 11.1615C104.239 11.2057 104.208 11.245 104.17 11.2769L103.672 11.7569C103.644 11.79 103.61 11.8173 103.572 11.8372C103.533 11.857 103.491 11.869 103.448 11.8725C103.333 11.8563 103.228 11.7968 103.155 11.7061Z" fill="white"/>
<path d="M115.564 9.15703C115.813 9.15703 115.937 9.28666 115.937 9.54594V10.2169C115.938 10.3144 115.902 10.4086 115.837 10.4814C115.801 10.5211 115.756 10.552 115.706 10.572C115.656 10.592 115.602 10.6006 115.548 10.5971H108.669V14.2567H114.142C114.235 14.255 114.326 14.2874 114.397 14.3478C114.435 14.385 114.465 14.4303 114.483 14.4803C114.502 14.5303 114.509 14.5838 114.504 14.6369V15.3148C114.505 15.4109 114.473 15.5043 114.413 15.5794C114.38 15.6189 114.338 15.65 114.29 15.6701C114.243 15.6902 114.191 15.6987 114.14 15.695H108.669V20.0081H115.624C115.872 20.0081 115.997 20.1377 115.997 20.397V21.0837C116.004 21.1332 115.999 21.1836 115.983 21.231C115.968 21.2784 115.941 21.3215 115.906 21.3569C115.87 21.3922 115.827 21.4189 115.78 21.4347C115.732 21.4505 115.682 21.4551 115.632 21.4481H107.6C107.357 21.4481 107.236 21.3313 107.236 21.0977V9.53543C107.236 9.28199 107.357 9.15527 107.6 9.15527L115.564 9.15703Z" fill="white"/>
<path d="M36.6899 25.5089C36.7646 26.2961 36.84 27.0897 36.9159 27.8897C36.9182 27.9061 36.9167 27.9229 36.9115 27.9386C36.9062 27.9543 36.8974 27.9686 36.8857 27.9803C36.8739 27.9921 36.8596 28.0009 36.8439 28.0062C36.8282 28.0114 36.8114 28.0129 36.795 28.0106H36.6531C36.6362 28.0124 36.619 28.0105 36.6029 28.005C36.5868 27.9995 36.5721 27.9904 36.5598 27.9785C36.5476 27.9666 36.5382 27.9522 36.5322 27.9362C36.5262 27.9203 36.5238 27.9032 36.5252 27.8862L36.1468 23.7395L34.43 27.5621C34.4173 27.5909 34.395 27.6144 34.3669 27.6287C34.344 27.6425 34.3183 27.6509 34.2916 27.6532H34.204C34.1778 27.6542 34.1516 27.65 34.1269 27.6409C34.0993 27.6212 34.078 27.5938 34.0656 27.5621L33.2054 25.6508L32.3453 23.7395L31.9669 27.8862C31.9694 27.9033 31.968 27.9207 31.9627 27.9371C31.9574 27.9536 31.9484 27.9686 31.9364 27.9809C31.9243 27.9933 31.9096 28.0028 31.8933 28.0085C31.877 28.0142 31.8596 28.0162 31.8425 28.0141H31.7006C31.6834 28.0153 31.6662 28.0125 31.6504 28.0058C31.6346 27.9991 31.6206 27.9887 31.6095 27.9755C31.5888 27.9478 31.5783 27.9138 31.5797 27.8792L32.0229 23.1246C32.0235 23.1055 32.0284 23.0868 32.0372 23.0698C32.046 23.0528 32.0585 23.038 32.0737 23.0265C32.1003 23.0074 32.1321 22.997 32.1648 22.9967H32.3873C32.4083 23.002 32.4277 23.0125 32.4436 23.0272C32.4595 23.0419 32.4715 23.0603 32.4784 23.0808L34.2426 27.0348L36.0067 23.0843C36.0164 23.0565 36.0356 23.0329 36.061 23.0178C36.0863 23.0033 36.1143 22.9943 36.1433 22.9915C36.1754 22.9892 36.2076 22.9892 36.2397 22.9915H36.3308C36.3657 22.9894 36.4001 23.0007 36.4271 23.023C36.4384 23.033 36.4477 23.045 36.4543 23.0586C36.4609 23.0721 36.4648 23.0868 36.4657 23.1019V23.1246C36.5404 23.9258 36.6152 24.7206 36.6899 25.5089Z" fill="#DF9730"/>
<path d="M37.6867 27.9018C37.7182 27.8166 37.7503 27.7325 37.783 27.6495C37.8157 27.5666 37.8478 27.4884 37.8794 27.4148L38.4277 26.0974L38.8429 25.1041L39.1512 24.3701L39.3772 23.8305L39.5524 23.4241C39.6003 23.3073 39.6482 23.1934 39.696 23.0824C39.7056 23.0553 39.7212 23.0308 39.7416 23.0106C39.7647 22.9917 39.7941 22.9823 39.8239 22.9843H39.922C39.9524 22.9817 39.9827 22.9911 40.0061 23.0106C40.0249 23.0298 40.0409 23.0517 40.0534 23.0754L42.0453 27.8545C42.0445 27.8638 42.0445 27.8732 42.0453 27.8825C42.0465 27.8942 42.0465 27.9059 42.0453 27.9176C42.0453 27.9666 42.0103 27.997 41.9402 28.0087H41.765C41.7363 28.0084 41.7086 27.9986 41.6861 27.9808C41.6636 27.9631 41.6476 27.9384 41.6406 27.9106L41.1694 26.7561H38.5643L38.3226 27.3412C38.242 27.5351 38.1626 27.7313 38.0843 27.9298C38.077 27.9556 38.0613 27.9781 38.0397 27.994C38.0182 28.0098 37.992 28.0181 37.9652 28.0174H37.9319H37.7865C37.7164 28.0174 37.6814 27.9824 37.6814 27.9333C37.6812 27.9226 37.683 27.9119 37.6867 27.9018ZM39.8695 23.587C39.6779 24.0541 39.4876 24.5184 39.2984 24.9797C39.1092 25.441 38.9188 25.9053 38.7273 26.3724H41.0047L39.8695 23.587Z" fill="#DF9730"/>
<path d="M45.1147 22.9946C45.3256 22.9952 45.5343 23.0387 45.7278 23.1225C45.914 23.2028 46.0829 23.3182 46.2254 23.4624C46.3668 23.6063 46.4797 23.7757 46.5582 23.9617C46.6995 24.3015 46.7187 24.6797 46.6125 25.032C46.5687 25.1754 46.5044 25.3117 46.4216 25.4367C46.3392 25.5607 46.2402 25.6727 46.1273 25.7696C46.0141 25.8671 45.8872 25.9474 45.7506 26.0078L46.6003 27.8683C46.6098 27.8875 46.6158 27.9083 46.6178 27.9296C46.6167 27.9506 46.6094 27.9707 46.5968 27.9874C46.5895 27.9976 46.5797 28.0057 46.5683 28.0109C46.557 28.0162 46.5444 28.0183 46.532 28.0172H46.2955C46.2758 28.0173 46.2567 28.011 46.2409 27.9994C46.2251 27.9877 46.2135 27.9712 46.2079 27.9524L45.374 26.1024C45.329 26.1135 45.2833 26.1217 45.2373 26.127C45.1848 26.1301 45.1322 26.1301 45.0797 26.127H43.4329V27.8788C43.4352 27.8952 43.4337 27.912 43.4285 27.9277C43.4232 27.9434 43.4144 27.9577 43.4027 27.9695C43.391 27.9812 43.3767 27.99 43.3609 27.9953C43.3452 28.0005 43.3284 28.002 43.312 27.9997H43.1666C43.1502 28.002 43.1335 28.0005 43.1177 27.9953C43.102 27.99 43.0877 27.9812 43.076 27.9695C43.0642 27.9577 43.0554 27.9434 43.0502 27.9277C43.0449 27.912 43.0434 27.8952 43.0457 27.8788V23.1067C43.0544 23.0755 43.0693 23.0463 43.0895 23.0209C43.1 23.0118 43.1123 23.0049 43.1255 23.0006C43.1388 22.9964 43.1528 22.995 43.1666 22.9964L45.1147 22.9946ZM44.9185 25.7521H45.197C45.2882 25.7497 45.3786 25.7338 45.4651 25.7048H45.4861C45.6023 25.663 45.7116 25.604 45.8102 25.5296C45.9085 25.4584 45.9948 25.3721 46.066 25.2738C46.2311 25.0438 46.3098 24.7627 46.288 24.4804C46.2662 24.198 46.1454 23.9324 45.9468 23.7304C45.8388 23.6213 45.711 23.5339 45.5702 23.4729C45.4231 23.4093 45.2644 23.377 45.1042 23.3783H43.4347V25.7521H44.9185Z" fill="#DF9730"/>
<path d="M48.1015 27.8547C48.1045 27.8762 48.1024 27.8981 48.0955 27.9186C48.0885 27.9392 48.0767 27.9578 48.0612 27.973C48.0457 27.9881 48.0268 27.9994 48.0061 28.006C47.9854 28.0125 47.9635 28.0141 47.9421 28.0106H47.8615C47.7622 28.0106 47.7126 27.9586 47.7126 27.8547V23.1474C47.7116 23.1088 47.7254 23.0712 47.7511 23.0423C47.7651 23.0273 47.7823 23.0155 47.8014 23.008C47.8204 23.0004 47.841 22.9972 47.8615 22.9985H47.9526C47.9915 22.9977 48.0293 23.0121 48.0577 23.0388C48.0724 23.0527 48.0839 23.0696 48.0915 23.0883C48.099 23.1071 48.1024 23.1272 48.1015 23.1474V25.9504L50.7923 23.0949C50.8128 23.0662 50.8388 23.0421 50.869 23.0241C50.8991 23.006 50.9327 22.9943 50.9675 22.9897H51.3302C51.4131 22.9897 51.4253 23.0189 51.367 23.0773C51.367 23.0668 51.367 23.0616 51.367 23.0651C51.3659 23.0726 51.3659 23.0803 51.367 23.0878L49.4714 25.071L51.8277 27.8739C51.9024 27.9639 51.8943 28.0088 51.8032 28.0088H51.5054C51.4797 28.0084 51.4549 27.9991 51.4353 27.9826C51.4074 27.9592 51.3816 27.9334 51.3582 27.9055L49.2262 25.3478L48.1102 26.5233L48.1015 27.8547Z" fill="#DF9730"/>
<path d="M56.0918 22.9946C56.1091 22.9923 56.1268 22.9941 56.1433 22.9997C56.1599 23.0053 56.1749 23.0146 56.1873 23.027C56.1997 23.0394 56.209 23.0544 56.2146 23.071C56.2203 23.0876 56.222 23.1052 56.2197 23.1225V23.2574C56.2211 23.2749 56.2186 23.2924 56.2124 23.3088C56.2063 23.3252 56.1966 23.34 56.184 23.3522C56.1715 23.3644 56.1564 23.3737 56.1398 23.3794C56.1233 23.3852 56.1057 23.3872 56.0883 23.3853H53.0944V25.1967H55.5137C55.5472 25.1951 55.5802 25.2057 55.6065 25.2265C55.6192 25.2393 55.6289 25.2547 55.635 25.2717C55.641 25.2886 55.6433 25.3067 55.6416 25.3246V25.463C55.6429 25.48 55.6406 25.4971 55.6346 25.5131C55.6286 25.529 55.6192 25.5435 55.6069 25.5554C55.5947 25.5672 55.58 25.5763 55.5639 25.5818C55.5478 25.5874 55.5306 25.5893 55.5137 25.5874H53.0944V27.6248H56.1391C56.1562 27.6223 56.1736 27.6237 56.19 27.629C56.2065 27.6343 56.2215 27.6433 56.2338 27.6553C56.2462 27.6674 56.2556 27.6821 56.2614 27.6984C56.2671 27.7147 56.269 27.7321 56.267 27.7492V27.8911C56.2691 27.9078 56.2673 27.9247 56.2617 27.9406C56.2561 27.9565 56.247 27.9708 56.2349 27.9825C56.2228 27.9943 56.2082 28.003 56.1922 28.0081C56.1762 28.0132 56.1592 28.0146 56.1426 28.012H52.8141C52.7999 28.0125 52.7857 28.0101 52.7725 28.005C52.7592 27.9999 52.7471 27.9921 52.737 27.9822C52.7264 27.9703 52.7183 27.9565 52.7132 27.9414C52.7081 27.9264 52.7061 27.9105 52.7072 27.8946V23.1243C52.7058 23.1185 52.7058 23.1125 52.7072 23.1068C52.7083 23.1022 52.7083 23.0974 52.7072 23.0928C52.7142 23.0297 52.7539 22.9981 52.8263 22.9981L56.0918 22.9946Z" fill="#DF9730"/>
<path d="M60.5416 22.9948C60.5752 22.9931 60.6082 23.0037 60.6345 23.0246C60.6597 23.0484 60.6748 23.081 60.6765 23.1157V23.2541C60.678 23.2887 60.6661 23.3226 60.6433 23.3487C60.63 23.3618 60.614 23.3718 60.5965 23.3782C60.5789 23.3845 60.5602 23.387 60.5416 23.3855H58.965V27.8913C58.9673 27.9081 58.9657 27.9253 58.9602 27.9415C58.9548 27.9576 58.9457 27.9723 58.9337 27.9843C58.9216 27.9964 58.907 28.0055 58.8908 28.0109C58.8747 28.0163 58.8575 28.018 58.8406 28.0156H58.7022C58.6853 28.018 58.6681 28.0163 58.652 28.0109C58.6358 28.0055 58.6212 27.9964 58.6091 27.9843C58.5971 27.9723 58.588 27.9576 58.5825 27.9415C58.5771 27.9253 58.5755 27.9081 58.5778 27.8913V23.3872H57.0011C56.9205 23.3872 56.8803 23.3434 56.8803 23.2558V23.1244C56.8789 23.1082 56.8811 23.0919 56.8868 23.0767C56.8924 23.0614 56.9012 23.0475 56.9127 23.036C56.9242 23.0245 56.9381 23.0157 56.9534 23.0101C56.9686 23.0045 56.9849 23.0022 57.0011 23.0036L60.5416 22.9948Z" fill="#DF9730"/>
<path d="M61.6311 23.1246C61.629 23.1079 61.6308 23.091 61.6364 23.0751C61.6419 23.0592 61.6511 23.0449 61.6632 23.0332C61.6752 23.0214 61.6898 23.0127 61.7059 23.0076C61.7219 23.0025 61.7389 23.0011 61.7555 23.0037H61.8939C61.9107 23.0025 61.9275 23.0047 61.9435 23.0101C61.9594 23.0155 61.9741 23.0241 61.9867 23.0353C61.9977 23.0473 62.0062 23.0614 62.0116 23.0767C62.017 23.0921 62.0193 23.1083 62.0183 23.1246V27.9037C62.0204 27.9204 62.0185 27.9373 62.013 27.9532C62.0074 27.969 61.9982 27.9834 61.9862 27.9951C61.9741 28.0068 61.9595 28.0156 61.9435 28.0207C61.9275 28.0258 61.9105 28.0271 61.8939 28.0246H61.7555C61.7389 28.0271 61.7219 28.0258 61.7059 28.0207C61.6898 28.0156 61.6752 28.0068 61.6632 27.9951C61.6511 27.9834 61.6419 27.969 61.6364 27.9532C61.6308 27.9373 61.629 27.9204 61.6311 27.9037V23.1246Z" fill="#DF9730"/>
<path d="M67.069 23.1102C67.0678 23.0941 67.0702 23.078 67.0761 23.0629C67.0819 23.0479 67.091 23.0343 67.1028 23.0232C67.1145 23.0122 67.1286 23.0038 67.144 22.9989C67.1593 22.9939 67.1756 22.9925 67.1916 22.9946H67.344C67.4199 22.9946 67.4585 23.0308 67.4596 23.1032V27.9051C67.4603 27.9211 67.4575 27.937 67.4513 27.9517C67.4451 27.9665 67.4357 27.9797 67.4238 27.9904C67.412 28.0011 67.3979 28.0091 67.3825 28.0137C67.3672 28.0183 67.3511 28.0195 67.3352 28.0172H67.1758C67.1542 28.0175 67.1328 28.0128 67.1133 28.0034C67.0938 27.9939 67.0769 27.9801 67.0637 27.9629L63.6546 23.6498V27.8981C63.6567 27.9147 63.6549 27.9317 63.6493 27.9476C63.6437 27.9634 63.6346 27.9778 63.6225 27.9895C63.6105 28.0012 63.5958 28.01 63.5798 28.0151C63.5638 28.0202 63.5468 28.0215 63.5302 28.0189H63.3883C63.3719 28.0213 63.3551 28.0198 63.3394 28.0145C63.3237 28.0093 63.3094 28.0004 63.2977 27.9887C63.2859 27.977 63.2771 27.9627 63.2718 27.947C63.2666 27.9312 63.2651 27.9145 63.2674 27.8981V23.1242C63.2659 23.0929 63.2751 23.062 63.2937 23.0366C63.3042 23.025 63.3173 23.0159 63.3318 23.0101C63.3464 23.0044 63.3622 23.002 63.3778 23.0034H63.5933C63.6059 23.0034 63.6184 23.0065 63.6297 23.0123C63.6409 23.018 63.6507 23.0264 63.6581 23.0366L64.4902 24.0878L65.3662 25.1844L66.2421 26.2811L67.0742 27.3322L67.069 23.1102Z" fill="#DF9730"/>
<path d="M71.093 23.3364C70.8934 23.3354 70.6947 23.3626 70.5026 23.417C70.3185 23.4688 70.1419 23.5441 69.9771 23.6412C69.6546 23.8325 69.3872 24.1041 69.201 24.4296C69.1074 24.595 69.035 24.7716 68.9855 24.9551C68.882 25.33 68.882 25.726 68.9855 26.1009C69.0364 26.2847 69.1105 26.4614 69.2063 26.6264C69.3006 26.7871 69.4155 26.9349 69.5479 27.0661C69.6805 27.1978 69.8295 27.312 69.9911 27.406C70.1562 27.5012 70.3328 27.5748 70.5167 27.625C70.7031 27.6769 70.8959 27.7029 71.0895 27.7021C71.3324 27.7048 71.5737 27.6644 71.8025 27.5829C72.0029 27.5123 72.1918 27.4126 72.3631 27.2869V25.9274C72.3608 25.9105 72.3624 25.8934 72.3678 25.8772C72.3733 25.8611 72.3824 25.8464 72.3944 25.8343C72.4065 25.8223 72.4211 25.8132 72.4373 25.8078C72.4534 25.8023 72.4706 25.8007 72.4875 25.803H72.6294C72.6627 25.8013 72.6954 25.8126 72.7205 25.8346C72.7322 25.8469 72.7412 25.8615 72.7469 25.8775C72.7526 25.8935 72.755 25.9105 72.7538 25.9274V27.441C72.7549 27.4503 72.7549 27.4597 72.7538 27.4691C72.75 27.4819 72.7447 27.4942 72.738 27.5058C72.7316 27.5181 72.7233 27.5293 72.7135 27.5391C72.7085 27.5442 72.7025 27.5483 72.6958 27.551C72.6892 27.5537 72.6821 27.555 72.6749 27.5549C72.355 27.7989 71.983 27.9658 71.588 28.0426C71.193 28.1195 70.7857 28.1043 70.3975 27.9981C70.1827 27.939 69.9765 27.8518 69.7844 27.7388C69.593 27.6278 69.4164 27.493 69.2588 27.3377C69.1022 27.1812 68.9673 27.0044 68.8576 26.8121C68.7458 26.619 68.6592 26.4124 68.6001 26.1972C68.5094 25.8666 68.4856 25.5212 68.5301 25.1813C68.5746 24.8413 68.6866 24.5137 68.8594 24.2176C69.0823 23.8361 69.3989 23.5177 69.7791 23.2926C69.9718 23.1787 70.1785 23.0903 70.394 23.0298C70.9498 22.8755 71.5415 22.9145 72.0723 23.1402C72.178 23.1863 72.2809 23.2383 72.3806 23.2961C72.4787 23.3534 72.5724 23.4178 72.6609 23.4888C72.6782 23.4972 72.6934 23.5092 72.7055 23.524C72.7176 23.5388 72.7263 23.5561 72.731 23.5747C72.734 23.5904 72.7334 23.6067 72.7291 23.6222C72.7249 23.6377 72.7171 23.652 72.7065 23.664L72.6154 23.7796C72.6056 23.7957 72.5926 23.8095 72.5772 23.8204C72.5618 23.8312 72.5444 23.8388 72.526 23.8427C72.4738 23.8372 72.4246 23.8151 72.3859 23.7796C72.1971 23.6405 71.9887 23.5301 71.7675 23.452C71.5507 23.376 71.3227 23.3369 71.093 23.3364Z" fill="#DF9730"/>
<path d="M75.8108 27.9019C75.8423 27.8167 75.8744 27.7326 75.9071 27.6497C75.9398 27.5667 75.9719 27.4885 76.0035 27.4149L76.557 26.1028L76.9722 25.1095L77.2806 24.3754L77.5066 23.8359L77.6817 23.4294C77.7296 23.3126 77.7775 23.1988 77.8254 23.0878C77.8349 23.0607 77.8505 23.0362 77.8709 23.016C77.894 22.9971 77.9235 22.9877 77.9533 22.9897H78.0514C78.0818 22.987 78.112 22.9965 78.1355 23.016C78.1543 23.0352 78.1702 23.057 78.1828 23.0808L80.1676 27.8546C80.1668 27.864 80.1668 27.8733 80.1676 27.8827C80.1689 27.8943 80.1689 27.906 80.1676 27.9177C80.1676 27.9667 80.1326 27.9983 80.0625 28.0088H79.8873C79.8587 28.0085 79.8309 27.9987 79.8084 27.9809C79.7859 27.9632 79.7699 27.9385 79.763 27.9107L79.2794 26.7439H76.6902L76.4484 27.3291C76.3678 27.5229 76.2884 27.7192 76.2102 27.9177C76.2028 27.9434 76.1871 27.966 76.1656 27.9818C76.144 27.9977 76.1178 28.0059 76.0911 28.0053H76.0578H75.9124C75.8423 28.0053 75.8073 27.9703 75.8073 27.9212C75.8077 27.9147 75.8089 27.9082 75.8108 27.9019ZM77.9936 23.5871C77.802 24.0543 77.6117 24.5185 77.4225 24.9798C77.2333 25.4411 77.0429 25.9054 76.8514 26.3726H79.1288L77.9936 23.5871Z" fill="#DF9730"/>
<path d="M83.1038 23.3365C82.9042 23.3355 82.7055 23.3626 82.5134 23.4171C82.3293 23.4688 82.1526 23.5442 81.9879 23.6413C81.6654 23.8326 81.398 24.1042 81.2118 24.4297C81.1182 24.5951 81.0458 24.7717 80.9963 24.9552C80.8925 25.3301 80.8925 25.7261 80.9963 26.1009C81.0471 26.2849 81.1212 26.4615 81.2171 26.6265C81.3114 26.7872 81.4262 26.935 81.5587 27.0662C81.8265 27.3312 82.1576 27.5236 82.5204 27.6251C82.7069 27.677 82.8997 27.7029 83.0933 27.7021C83.3361 27.7048 83.5775 27.6645 83.8063 27.583C84.0067 27.5124 84.1956 27.4127 84.3669 27.2869V25.9275C84.3646 25.9106 84.3662 25.8934 84.3716 25.8773C84.3771 25.8611 84.3861 25.8465 84.3982 25.8344C84.4102 25.8224 84.4249 25.8133 84.4411 25.8078C84.4572 25.8024 84.4744 25.8008 84.4913 25.8031H84.6332C84.6665 25.8013 84.6992 25.8127 84.7243 25.8347C84.736 25.847 84.7449 25.8616 84.7507 25.8776C84.7564 25.8936 84.7587 25.9106 84.7576 25.9275V27.4411C84.7587 27.4504 84.7587 27.4598 84.7576 27.4691C84.7537 27.482 84.7484 27.4943 84.7418 27.5059C84.7353 27.5181 84.727 27.5294 84.7173 27.5392C84.7123 27.5443 84.7063 27.5484 84.6996 27.5511C84.693 27.5538 84.6859 27.5551 84.6787 27.555C84.3587 27.7988 83.9867 27.9657 83.5918 28.0425C83.1968 28.1194 82.7895 28.1042 82.4013 27.9982C82.1864 27.9391 81.9803 27.8519 81.7882 27.7389C81.5968 27.6279 81.4202 27.4931 81.2626 27.3378C81.1061 27.1812 80.9711 27.0045 80.8614 26.8122C80.7496 26.6191 80.663 26.4124 80.6039 26.1973C80.5132 25.8667 80.4894 25.5213 80.5339 25.1813C80.5784 24.8414 80.6904 24.5138 80.8632 24.2177C80.9741 24.0262 81.1089 23.8496 81.2644 23.6921C81.5781 23.3757 81.9687 23.1463 82.3978 23.0264C82.9536 22.8721 83.5453 22.911 84.0761 23.1368C84.1818 23.1828 84.2847 23.2349 84.3844 23.2927C84.4825 23.35 84.5762 23.4144 84.6647 23.4854C84.6816 23.4939 84.6965 23.506 84.7083 23.5209C84.7201 23.5357 84.7285 23.5529 84.733 23.5712C84.7361 23.587 84.7354 23.6033 84.7312 23.6188C84.7269 23.6343 84.7192 23.6486 84.7085 23.6606L84.6174 23.7762C84.6076 23.7922 84.5946 23.8061 84.5792 23.8169C84.5639 23.8278 84.5465 23.8354 84.5281 23.8393C84.4758 23.8338 84.4267 23.8117 84.3879 23.7762C84.1991 23.637 83.9907 23.5266 83.7695 23.4486C83.5553 23.3747 83.3304 23.3369 83.1038 23.3365Z" fill="#DF9730"/>
<path d="M89.1915 22.9946C89.2088 22.9923 89.2265 22.9941 89.243 22.9997C89.2596 23.0053 89.2746 23.0146 89.287 23.027C89.2994 23.0394 89.3087 23.0544 89.3143 23.071C89.32 23.0876 89.3217 23.1052 89.3194 23.1225V23.2574C89.3208 23.2749 89.3183 23.2924 89.3121 23.3088C89.306 23.3252 89.2963 23.34 89.2837 23.3522C89.2712 23.3644 89.2561 23.3737 89.2395 23.3794C89.223 23.3852 89.2054 23.3872 89.188 23.3853H86.1923V25.1967H88.6116C88.6452 25.1951 88.6782 25.2057 88.7045 25.2265C88.7171 25.2393 88.7269 25.2547 88.7329 25.2717C88.739 25.2886 88.7412 25.3067 88.7395 25.3246V25.463C88.7409 25.48 88.7385 25.4971 88.7325 25.5131C88.7265 25.529 88.7171 25.5435 88.7049 25.5554C88.6927 25.5672 88.678 25.5763 88.6618 25.5818C88.6457 25.5874 88.6286 25.5893 88.6116 25.5874H86.1923V27.6248H89.237C89.2541 27.6223 89.2715 27.6237 89.288 27.629C89.3044 27.6343 89.3194 27.6433 89.3318 27.6553C89.3442 27.6674 89.3536 27.6821 89.3593 27.6984C89.3651 27.7147 89.367 27.7321 89.3649 27.7492V27.8911C89.367 27.9078 89.3652 27.9247 89.3596 27.9406C89.3541 27.9565 89.3449 27.9708 89.3328 27.9825C89.3208 27.9943 89.3062 28.003 89.2902 28.0081C89.2741 28.0132 89.2572 28.0146 89.2405 28.012H85.912C85.8978 28.0125 85.8837 28.0101 85.8704 28.005C85.8572 27.9999 85.8451 27.9921 85.8349 27.9822C85.8244 27.9703 85.8163 27.9565 85.8112 27.9414C85.8061 27.9264 85.804 27.9105 85.8051 27.8946V23.1243C85.8037 23.1185 85.8037 23.1125 85.8051 23.1068C85.8061 23.1021 85.8061 23.0974 85.8051 23.0928C85.8121 23.0297 85.8513 22.9981 85.9225 22.9981L89.1915 22.9946Z" fill="#DF9730"/>
<path d="M94.0756 23.1102C94.0745 23.0941 94.0769 23.078 94.0827 23.0629C94.0886 23.0479 94.0977 23.0343 94.1095 23.0232C94.1212 23.0122 94.1353 23.0038 94.1506 22.9989C94.166 22.9939 94.1823 22.9925 94.1983 22.9946H94.3507C94.4266 22.9946 94.4651 23.0308 94.4663 23.1032V27.9051C94.467 27.9211 94.4641 27.937 94.458 27.9517C94.4518 27.9665 94.4424 27.9797 94.4305 27.9904C94.4186 28.0011 94.4045 28.0091 94.3892 28.0137C94.3739 28.0183 94.3578 28.0195 94.3419 28.0172H94.1825C94.1609 28.0175 94.1395 28.0128 94.12 28.0034C94.1005 27.9939 94.0835 27.9801 94.0704 27.9629L90.6613 23.6498V27.8981C90.6634 27.9147 90.6616 27.9317 90.656 27.9476C90.6504 27.9634 90.6413 27.9778 90.6292 27.9895C90.6171 28.0012 90.6025 28.01 90.5865 28.0151C90.5705 28.0202 90.5535 28.0215 90.5369 28.0189H90.3967C90.3803 28.0213 90.3636 28.0198 90.3478 28.0145C90.3321 28.0093 90.3178 28.0004 90.3061 27.9887C90.2944 27.977 90.2855 27.9627 90.2803 27.947C90.275 27.9312 90.2735 27.9145 90.2759 27.8981V23.1242C90.2743 23.0929 90.2836 23.062 90.3021 23.0366C90.3126 23.025 90.3257 23.0159 90.3403 23.0101C90.3549 23.0044 90.3706 23.002 90.3862 23.0034H90.5999C90.6126 23.0034 90.6251 23.0065 90.6363 23.0123C90.6476 23.018 90.6573 23.0264 90.6648 23.0366L91.4969 24.0878L92.3728 25.1844L93.2488 26.2811L94.0809 27.3322L94.0756 23.1102Z" fill="#DF9730"/>
<path d="M99.6817 23.4754C99.6986 23.4839 99.7135 23.496 99.7253 23.5108C99.7371 23.5256 99.7455 23.5428 99.75 23.5612C99.753 23.577 99.7524 23.5932 99.7481 23.6087C99.7439 23.6242 99.7362 23.6385 99.7255 23.6506L99.6344 23.7662C99.6246 23.7822 99.6116 23.7961 99.5962 23.8069C99.5809 23.8178 99.5635 23.8254 99.5451 23.8292C99.4928 23.8238 99.4437 23.8017 99.4049 23.7662C99.2155 23.6266 99.0073 23.5145 98.7865 23.4333C98.5676 23.3536 98.3363 23.3133 98.1033 23.3142C97.9025 23.3132 97.7026 23.3404 97.5094 23.3948C97.325 23.4474 97.1483 23.524 96.9838 23.6225C96.8212 23.7199 96.6717 23.8376 96.5389 23.9729C96.2738 24.2417 96.081 24.5731 95.9783 24.9364C95.9267 25.1188 95.9008 25.3075 95.9012 25.497C95.901 25.6898 95.9287 25.8816 95.9835 26.0664C96.0376 26.2505 96.1147 26.4271 96.213 26.5919C96.3112 26.7556 96.4288 26.9068 96.5634 27.0422C96.6969 27.1759 96.8457 27.2935 97.0066 27.3925C97.1659 27.4912 97.3373 27.5689 97.5164 27.6238C97.6958 27.6787 97.8824 27.7064 98.07 27.7061C98.1875 27.7055 98.3048 27.6944 98.4204 27.6728C98.5437 27.6501 98.665 27.6173 98.783 27.5747C98.9037 27.5312 99.0208 27.4785 99.1334 27.4171C99.244 27.3568 99.3485 27.2858 99.4452 27.2051C99.4602 27.1934 99.4774 27.1849 99.4958 27.1801C99.5141 27.1753 99.5333 27.1742 99.5521 27.1771C99.5742 27.1826 99.5949 27.1928 99.6127 27.207C99.6305 27.2212 99.6451 27.2391 99.6554 27.2594L99.7062 27.34C99.7254 27.3728 99.7334 27.4109 99.729 27.4486C99.7268 27.4696 99.7196 27.4898 99.708 27.5074C99.6964 27.5251 99.6808 27.5398 99.6624 27.5502C99.4862 27.6842 99.2944 27.7966 99.0913 27.8848C98.7712 28.0184 98.4274 28.0863 98.0805 28.0845C97.6248 28.0859 97.1771 27.9649 96.7841 27.7341C96.5927 27.6217 96.4162 27.4858 96.2586 27.3295C96.1015 27.173 95.966 26.9962 95.8556 26.8039C95.7428 26.609 95.6551 26.4006 95.5946 26.1837C95.5023 25.8525 95.4776 25.5059 95.5222 25.1649C95.5667 24.8239 95.6795 24.4953 95.8539 24.1989C95.9654 24.0073 96.1008 23.8307 96.2568 23.6733C96.4136 23.5166 96.5903 23.3811 96.7824 23.2704C96.9773 23.1576 97.1856 23.0699 97.4025 23.0094C97.6273 22.9469 97.8595 22.9156 98.0928 22.9165C98.4354 22.9153 98.7747 22.9845 99.0896 23.1197C99.1952 23.1658 99.2982 23.2178 99.3979 23.2757C99.4974 23.335 99.5923 23.4018 99.6817 23.4754Z" fill="#DF9730"/>
<path d="M100.347 23.1914C100.333 23.1719 100.323 23.149 100.319 23.1249C100.316 23.1007 100.318 23.076 100.326 23.053C100.338 23.0339 100.354 23.0185 100.374 23.0089C100.394 22.9992 100.416 22.9957 100.438 22.9987H100.558C100.579 22.9967 100.6 22.9967 100.621 22.9987C100.638 23.0024 100.654 23.0095 100.668 23.0197C100.686 23.0333 100.701 23.0499 100.713 23.0688C100.729 23.0916 100.747 23.1213 100.768 23.1564L102.12 25.4233L103.522 23.1108C103.537 23.077 103.562 23.0481 103.593 23.0271C103.624 23.0061 103.66 22.9939 103.697 22.9917H103.863C103.967 22.9917 103.989 23.0437 103.928 23.1476L102.309 25.8104V27.8549C102.312 27.876 102.31 27.8976 102.303 27.9178C102.297 27.938 102.285 27.9564 102.27 27.9715C102.255 27.9866 102.237 27.998 102.216 28.0048C102.196 28.0117 102.175 28.0137 102.153 28.0108H102.073C101.974 28.0108 101.924 27.9588 101.924 27.8549V25.8385L100.347 23.1914Z" fill="#DF9730"/>
</svg>
