<svg width="32" height="35" viewBox="0 0 32 35" fill="none" xmlns="http://www.w3.org/2000/svg">
<path d="M16.1565 29.4885H13.0149L11.7016 27.4799V24.1897L6.7356 19.2831V11.6865L12.5177 6.15995L19.5002 6.14014L25.2824 11.6667V19.2693L20.3163 24.1758V27.466L19.003 29.4746L16.1565 29.4885ZM13.7399 28.1475L18.278 28.1276L18.9753 27.0619V23.6153L23.9413 18.7087V12.2412L18.9634 7.48712L13.0565 7.50098L8.07862 12.255V18.7225L13.0446 23.6291V27.0798L13.7399 28.1475Z" fill="#DF9730"/>
<path d="M22.3091 15.5453H20.9681V12.7285L18.189 10.0722L19.116 9.10352L22.3091 12.156V15.5453Z" fill="#DF9730"/>
<path d="M19.6033 30.6895H12.4148V32.0305H19.6033V30.6895Z" fill="#DF9730"/>
<path d="M19.6033 32.7598H12.4148V34.1008H19.6033V32.7598Z" fill="#DF9730"/>
<path d="M6.68583 -0.000207053L5.62549 0.820801L7.51732 3.26414L8.57767 2.44313L6.68583 -0.000207053Z" fill="#DF9730"/>
<path d="M0.373005 7.85284L0.00561523 9.14258L2.97753 9.98915L3.34492 8.69942L0.373005 7.85284Z" fill="#DF9730"/>
<path d="M2.68419 16.7116L0 18.2427L0.66443 19.4075L3.34862 17.8765L2.68419 16.7116Z" fill="#DF9730"/>
<path d="M25.3169 0.00148601L23.425 2.44482L24.4854 3.26583L26.3772 0.822494L25.3169 0.00148601Z" fill="#DF9730"/>
<path d="M31.6303 7.85512L28.6582 8.70117L29.0254 9.99097L31.9974 9.14492L31.6303 7.85512Z" fill="#DF9730"/>
<path d="M29.3156 16.7095L28.6514 17.8745L31.3358 19.4051L32 18.2401L29.3156 16.7095Z" fill="#DF9730"/>
</svg>
