<svg width="32" height="25" viewBox="0 0 32 25" fill="none" xmlns="http://www.w3.org/2000/svg">
  <path d="M29.2414 20.9655H2.75863C2.45396 20.9655 2.20691 20.7185 2.20691 20.4138V2.75862C2.20691 2.02707 2.49755 1.3254 3.01476 0.80785C3.53224 0.29061 4.23398 0 4.96553 0H27.0345C27.7661 0 28.4677 0.290642 28.9853 0.80785C29.5025 1.32534 29.7931 2.02707 29.7931 2.75862V20.4138C29.7931 20.5601 29.735 20.7005 29.6315 20.8039C29.5281 20.9074 29.3877 20.9655 29.2414 20.9655ZM3.31036 19.8621H28.6897V2.75862C28.6897 2.31971 28.5153 1.8985 28.2049 1.58821C27.8946 1.27792 27.4734 1.10348 27.0345 1.10348H4.96556C4.52665 1.10348 4.10544 1.27786 3.79515 1.58821C3.48486 1.89856 3.31042 2.31976 3.31042 2.75862L3.31036 19.8621Z" fill="#259609"/>
  <path d="M25.931 18.7586H6.06896C5.63005 18.7586 5.20884 18.5842 4.89855 18.2739C4.58826 17.9636 4.41382 17.5423 4.41382 17.1035V3.86211C4.41382 3.4232 4.5882 3.00199 4.89855 2.6917C5.20889 2.38141 5.6301 2.20697 6.06896 2.20697H25.931C26.3699 2.20697 26.7912 2.38135 27.1014 2.6917C27.4117 3.00205 27.5862 3.42325 27.5862 3.86211V17.1035C27.5862 17.5424 27.4118 17.9636 27.1014 18.2739C26.7911 18.5842 26.3699 18.7586 25.931 18.7586ZM6.06896 3.31036C5.76428 3.31036 5.51723 3.5574 5.51723 3.86208V17.1035C5.51723 17.2498 5.57536 17.3902 5.67881 17.4936C5.78226 17.5971 5.92265 17.6552 6.06896 17.6552H25.931C26.0773 17.6552 26.2177 17.5971 26.3212 17.4936C26.4246 17.3902 26.4828 17.2498 26.4828 17.1035V3.86208C26.4828 3.71578 26.4246 3.57538 26.3212 3.47193C26.2177 3.36849 26.0773 3.31036 25.931 3.31036H6.06896Z" fill="#259609"/>
  <path d="M29.2414 24.2759H2.75862C2.02707 24.2759 1.3254 23.9852 0.80785 23.468C0.29061 22.9505 0 22.2488 0 21.5172V20.4138C0 20.1091 0.247046 19.8621 0.551724 19.8621H31.4483C31.5946 19.8621 31.735 19.9202 31.8384 20.0236C31.9419 20.1271 32 20.2675 32 20.4138V21.5172C32 22.2488 31.7094 22.9505 31.1921 23.468C30.6747 23.9852 29.9729 24.2759 29.2414 24.2759ZM1.10345 20.9655V21.5172C1.10345 21.9561 1.27783 22.3774 1.58818 22.6876C1.89852 22.9979 2.31973 23.1724 2.75859 23.1724H29.2413C29.6803 23.1724 30.1015 22.998 30.4118 22.6876C30.7221 22.3773 30.8965 21.9561 30.8965 21.5172V20.9655H1.10345Z" fill="#259609"/>
  <path d="M18.7587 24.2759H13.2414C12.5099 24.2759 11.8082 23.9852 11.2906 23.468C10.7734 22.9505 10.4828 22.2488 10.4828 21.5172V20.4138C10.4828 20.1091 10.7298 19.8621 11.0345 19.8621H20.9655C21.1119 19.8621 21.2522 19.9202 21.3557 20.0236C21.4591 20.1271 21.5173 20.2675 21.5173 20.4138V21.5172C21.5173 22.2488 21.2266 22.9505 20.7094 23.468C20.1919 23.9852 19.4902 24.2759 18.7587 24.2759ZM11.5862 20.9655V21.5172C11.5862 21.9561 11.7606 22.3774 12.071 22.6876C12.3813 22.9979 12.8025 23.1724 13.2414 23.1724H18.7586C19.1975 23.1724 19.6187 22.998 19.929 22.6876C20.2393 22.3773 20.4138 21.9561 20.4138 21.5172V20.9655H11.5862Z" fill="#259609"/>
  <path d="M15.167 13.7931C14.9771 13.7916 14.7894 13.7522 14.6153 13.6773C13.6195 13.2409 12.5331 13.0517 11.4483 13.1256C11.0522 13.1549 10.6618 13.0168 10.3724 12.7448C10.0887 12.4862 9.92811 12.1192 9.93107 11.7352V6.35026C9.93255 5.98351 10.0789 5.63201 10.3382 5.37267C10.5976 5.11332 10.949 4.967 11.3158 4.96552C12.835 4.96355 14.3382 5.27735 15.7296 5.88694C15.9781 5.99654 16.1885 6.17684 16.3348 6.40566C16.4808 6.63423 16.5564 6.90098 16.5518 7.1724V12.4468C16.5515 12.9118 16.3173 13.3453 15.9284 13.6C15.6981 13.7357 15.434 13.8027 15.167 13.7931ZM11.8567 11.9778C12.9569 11.9946 14.0424 12.237 15.0456 12.6897C15.1328 12.7283 15.2338 12.7209 15.3145 12.67C15.3953 12.619 15.4453 12.5313 15.4483 12.436V7.1724C15.4515 7.06328 15.3912 6.9623 15.2939 6.91304C14.0436 6.3618 12.6931 6.07435 11.3269 6.06893C11.2508 6.06745 11.1774 6.09627 11.1224 6.14898C11.0675 6.20193 11.036 6.2741 11.0345 6.35021V11.7352C11.032 11.8103 11.0621 11.8827 11.1173 11.9337C11.1845 11.9955 11.2747 12.0255 11.3655 12.0164C11.5126 12.0054 11.6781 11.9999 11.8621 11.9999L11.8567 11.9778Z" fill="#259609"/>
  <path d="M16.8329 13.7931C16.5622 13.7911 16.2977 13.7106 16.0716 13.5613C15.6894 13.3108 15.4559 12.8874 15.4482 12.4303V7.17237C15.445 6.90636 15.5196 6.64503 15.6627 6.42064C15.8059 6.19625 16.011 6.01842 16.2536 5.90881C17.6445 5.296 19.1477 4.98021 20.6674 4.98198C21.0344 4.97902 21.3876 5.12114 21.6499 5.37754C21.9125 5.6337 22.063 5.98346 22.0689 6.35022V11.7352C22.0716 12.1162 21.9135 12.481 21.6329 12.7394C21.3366 13.0182 20.9349 13.1566 20.5295 13.1199C19.445 13.0468 18.3585 13.2359 17.3627 13.6716C17.1955 13.7458 17.0157 13.7869 16.8329 13.7931ZM20.695 6.06897C19.3238 6.06651 17.9672 6.35025 16.7117 6.90198C16.6061 6.94878 16.5418 7.0574 16.5516 7.17242V12.4468C16.5507 12.5409 16.5987 12.6288 16.6785 12.6786C16.7635 12.729 16.8694 12.729 16.9543 12.6786C18.1108 12.1675 19.3721 11.9387 20.6344 12.0111C20.7233 12.0192 20.8117 11.9891 20.8772 11.9283C20.9361 11.8795 20.9689 11.8061 20.9654 11.7295V6.35026C20.9654 6.19485 20.8396 6.06898 20.6841 6.06898L20.695 6.06897Z" fill="#259609"/>
  <path d="M22.8912 16H9.0981C8.73307 15.9955 8.38458 15.848 8.12738 15.5889C7.87049 15.3298 7.72566 14.98 7.72418 14.6153V7.99459C7.72862 7.62956 7.87616 7.28107 8.13526 7.02387C8.39438 6.76697 8.74413 6.62214 9.10888 6.62067H9.66061C10.0256 6.6251 10.3741 6.77264 10.6313 7.03175C10.8882 7.29087 11.0331 7.64061 11.0345 8.00537V11.7352C11.0321 11.8103 11.0621 11.8827 11.1173 11.9337C11.1845 11.9955 11.2747 12.0255 11.3656 12.0164C12.6283 11.9438 13.8902 12.1746 15.0456 12.6896C15.1328 12.7283 15.2338 12.7209 15.3146 12.6699C15.3953 12.6189 15.4453 12.5312 15.4483 12.4359C15.4483 12.131 15.6953 11.8842 16 11.8842C16.3047 11.8842 16.5517 12.131 16.5517 12.4359C16.5508 12.5297 16.5988 12.6177 16.6786 12.6674C16.7636 12.7179 16.8695 12.7179 16.9545 12.6674C18.1109 12.1563 19.3722 11.9276 20.6345 11.9999C20.7234 12.0081 20.8118 11.978 20.8773 11.9172C20.9362 11.8687 20.969 11.795 20.9655 11.7187V8.00534C20.967 7.63859 21.1133 7.28709 21.3727 7.02775C21.632 6.7684 21.9835 6.62208 22.3503 6.62061H22.902C23.267 6.62504 23.6155 6.77258 23.8727 7.03169C24.1296 7.2908 24.2744 7.64055 24.2759 8.00531V14.626C24.2715 14.991 24.1239 15.3395 23.8648 15.5967C23.6057 15.8536 23.256 15.9984 22.8912 15.9999L22.8912 16ZM9.0981 7.72412C8.94268 7.72412 8.81658 7.84998 8.81658 8.0054V14.6261C8.81658 14.7815 8.94268 14.9076 9.0981 14.9076H22.8912C23.0466 14.9076 23.1725 14.7815 23.1725 14.6261V8.0054C23.1725 7.84998 23.0466 7.72412 22.8912 7.72412H22.3395C22.1841 7.72412 22.058 7.84998 22.058 8.0054V11.7352C22.0609 12.1162 21.9025 12.481 21.6222 12.7394C21.3257 13.0182 20.924 13.1566 20.5188 13.1199C19.4341 13.0468 18.3478 13.2359 17.3518 13.6716C16.921 13.8593 16.4247 13.8157 16.0331 13.5559L16 13.5337L15.9284 13.5835C15.537 13.8433 15.0404 13.8869 14.6097 13.6992C13.6138 13.263 12.5274 13.0736 11.4429 13.1475C11.0468 13.1763 10.6567 13.0381 10.3671 12.767C10.0794 12.5022 9.92026 12.1258 9.93109 11.7352V8.00543C9.93109 7.85001 9.80523 7.72415 9.64982 7.72415L9.0981 7.72412Z" fill="#259609"/>
</svg>
