<svg xmlns="http://www.w3.org/2000/svg" xmlns:xlink="http://www.w3.org/1999/xlink"><symbol id="icon-footer-logo"><g fill="none"><path d="M24.636 44.965h-4.79l-2.003-3.062v-5.017l-7.572-7.482V17.82l8.816-8.427 10.648-.03 8.816 8.427v11.593l-7.572 7.482v5.017l-2.003 3.062-4.34.021Zm-3.685-2.045 6.92-.03 1.063-1.625V36.01l7.572-7.482v-9.862l-7.59-7.249-9.007.021-7.59 7.25v9.861l7.572 7.482v5.261l1.06 1.628Z" fill="#DF9730"/><path d="M34.018 23.705h-2.045V19.41l-4.238-4.05 1.414-1.478 4.869 4.655v5.168ZM29.892 46.796H18.93v2.045h10.962v-2.045ZM29.892 49.953H18.93v2.044h10.962v-2.044ZM10.195 0 8.578 1.252l2.885 3.726 1.616-1.252L10.195 0ZM.569 11.975l-.56 1.966 4.531 1.291.56-1.966L.57 11.975ZM4.093 25.482 0 27.817l1.013 1.776 4.093-2.334-1.013-1.777ZM38.603.001 35.72 3.727l1.617 1.252 2.884-3.726L38.603.001ZM48.23 11.977l-4.532 1.29.56 1.967 4.532-1.29-.56-1.967ZM44.7 25.479l-1.012 1.776 4.093 2.334 1.013-1.776-4.093-2.334Z" fill="#DF9730"/><path d="M57.233 36.354a.603.603 0 0 1-.172.471.67.67 0 0 1-.471.157h-1.184a.56.56 0 0 1-.644-.628V16.42a.583.583 0 0 1 .644-.628h1.184a.643.643 0 0 1 .465.172.604.604 0 0 1 .178.456v19.935ZM78.587 36.983a.65.65 0 0 1-.528-.272L65.04 19.633v16.728c0 .418-.219.628-.656.628h-1.184a.557.557 0 0 1-.628-.628V16.444a.668.668 0 0 1 .172-.472.604.604 0 0 1 .456-.184h1.586a.654.654 0 0 1 .544.287L78.15 32.76V16.344a.587.587 0 0 1 .628-.556h1.172c.172 0 .339.062.47.172a.556.556 0 0 1 .215.456v19.935c0 .42-.228.629-.685.629l-1.363.003ZM102.222 17.642c.095.069.183.145.263.23.07.073.108.17.106.272a.606.606 0 0 1-.063.25 1.609 1.609 0 0 1-.136.236l-.604.942a.633.633 0 0 1-.487.33 1.042 1.042 0 0 1-.229-.064 1.267 1.267 0 0 1-.287-.163 9.034 9.034 0 0 0-2.362-1.208 8.038 8.038 0 0 0-2.619-.441 8.367 8.367 0 0 0-7.877 5.225 8.36 8.36 0 0 0-.635 3.199 7.87 7.87 0 0 0 .701 3.304 8.616 8.616 0 0 0 4.567 4.431 8.13 8.13 0 0 0 3.19.644c.364 0 .728-.02 1.09-.064a6.748 6.748 0 0 0 1.078-.22c.383-.113.757-.25 1.12-.414.417-.188.821-.403 1.209-.643.098-.045.191-.1.278-.163.101-.071.195-.142.284-.215.083-.066.171-.126.263-.178a.465.465 0 0 1 .214-.073.605.605 0 0 1 .505.366l.655 1.084c.066.123.1.26.1.399a.55.55 0 0 1-.33.486 11.38 11.38 0 0 1-2.984 1.55 11.158 11.158 0 0 1-6.41.178 10.813 10.813 0 0 1-2.597-1.1 10.891 10.891 0 0 1-2.19-17.114 10.644 10.644 0 0 1 2.205-1.706 10.9 10.9 0 0 1 8.947-.936c1.085.37 2.109.901 3.035 1.576ZM106.717 16.474a.703.703 0 0 1 .172-.508.596.596 0 0 1 .456-.178h8.249a6.568 6.568 0 0 1 2.634.523 6.69 6.69 0 0 1 2.114 1.45 6.849 6.849 0 0 1 1.429 2.147c.609 1.444.7 3.055.256 4.558a6.823 6.823 0 0 1-.8 1.719 6.67 6.67 0 0 1-1.226 1.413 6.6 6.6 0 0 1-1.598 1.021l3.754 7.736c.039.08.064.167.073.256a.33.33 0 0 1-.136.263.607.607 0 0 1-.378.106h-1.44a.664.664 0 0 1-.451-.142 1.121 1.121 0 0 1-.277-.399l-3.453-7.264c-.109.02-.219.032-.329.036H109.187v7.137a.551.551 0 0 1-.374.605.555.555 0 0 1-.254.024h-1.208a.556.556 0 0 1-.628-.629l-.006-19.874Zm13.145 6.04a4.104 4.104 0 0 0-.33-1.627 4.446 4.446 0 0 0-.906-1.363c-.386-.399-.847-.719-1.356-.942a4.091 4.091 0 0 0-1.685-.35h-6.398v8.548h6.452a4.06 4.06 0 0 0 1.67-.342c.502-.219.955-.534 1.335-.927.385-.394.692-.856.907-1.362.214-.52.32-1.076.314-1.637l-.003.003ZM140.945 15.788c.429 0 .643.224.643.67v1.158a.684.684 0 0 1-.172.456.617.617 0 0 1-.499.199h-11.861v6.31h9.433a.665.665 0 0 1 .441.157.617.617 0 0 1 .184.498v1.17a.714.714 0 0 1-.157.455.559.559 0 0 1-.471.2h-9.43v7.436h12c.429 0 .644.223.644.67v1.184a.56.56 0 0 1-.157.471.562.562 0 0 1-.471.158h-13.858c-.419 0-.629-.202-.629-.604V16.44c0-.437.21-.656.629-.656l13.731.003ZM146.638 36.412a.798.798 0 0 1-.785.57h-1.227c-.402 0-.604-.151-.604-.455 0-.092.009-.183.028-.272a.282.282 0 0 1 .042-.1l2.703-6.554 2.048-4.924c.58-1.393 1.07-2.566 1.471-3.518.401-.953.729-1.74.985-2.362.257-.623.459-1.1.604-1.435l.302-.734a5.38 5.38 0 0 0 .127-.32c.048-.122.113-.237.193-.342a.606.606 0 0 1 .519-.184h.843a.577.577 0 0 1 .492.184c.081.107.151.221.209.342l8.222 19.853a.9.9 0 0 0 .051.142.61.61 0 0 1 .048.215.38.38 0 0 1-.178.341.849.849 0 0 1-.465.115h-1.226a.758.758 0 0 1-.478-.151.941.941 0 0 1-.302-.393l-1.655-4.096h-10.354l-1.613 4.078Zm2.64-6.494h8.348l-4.15-10.448-4.198 10.448ZM177.854 20.183a16.39 16.39 0 0 0-.858-.7 8.311 8.311 0 0 0-2.609-1.36 5.535 5.535 0 0 0-1.686-.25 6.43 6.43 0 0 0-2.084.301 4.25 4.25 0 0 0-1.434.792 3.089 3.089 0 0 0-1.094 2.335c-.006.46.155.908.453 1.26.329.38.727.694 1.172.926a9.139 9.139 0 0 0 1.625.677 51.83 51.83 0 0 0 1.834.544c.561.153 1.139.315 1.733.486.594.171 1.172.364 1.734.577.548.207 1.078.457 1.586.749.479.273.917.614 1.299 1.012.372.392.67.85.879 1.35.223.56.332 1.16.32 1.764.014.954-.2 1.899-.623 2.755a6.17 6.17 0 0 1-1.706 2.084 7.957 7.957 0 0 1-2.54 1.32 10.252 10.252 0 0 1-3.126.465c-.734 0-1.466-.077-2.184-.23a9.654 9.654 0 0 1-2.054-.685 9.37 9.37 0 0 1-1.849-1.136 8.905 8.905 0 0 1-1.549-1.562.906.906 0 0 1-.23-.513.6.6 0 0 1 .257-.456l.906-.755a.883.883 0 0 1 .221-.115.669.669 0 0 1 .22-.042c.069 0 .136.02.193.057.064.04.124.085.179.136l.157.15.099.1c.42.439.892.824 1.405 1.148a11.2 11.2 0 0 0 1.555.828c.488.213.993.383 1.511.507.404.105.818.163 1.235.172a7.02 7.02 0 0 0 2.477-.44c.4-.146.785-.332 1.148-.556.351-.216.67-.48.948-.785.272-.3.49-.646.643-1.021.161-.4.241-.827.236-1.257a2.284 2.284 0 0 0-.477-1.47 3.951 3.951 0 0 0-1.284-1.022 9.92 9.92 0 0 0-1.848-.722 69.926 69.926 0 0 0-2.154-.586 25.862 25.862 0 0 1-3.075-.984 9.134 9.134 0 0 1-2.199-1.208 4.614 4.614 0 0 1-1.314-1.51 4.152 4.152 0 0 1-.435-1.928 5.362 5.362 0 0 1 2-4.253 6.854 6.854 0 0 1 2.314-1.208 10.02 10.02 0 0 1 3.02-.429 8.081 8.081 0 0 1 1.755.2 9.684 9.684 0 0 1 1.743.564c.557.24 1.094.524 1.607.85.495.313.955.68 1.371 1.093.123.122.247.255.371.398a.635.635 0 0 1 .185.399.656.656 0 0 1-.23.444l-.858.828a.567.567 0 0 1-.386.199.79.79 0 0 1-.505-.287ZM199.248 15.788c.429 0 .644.224.644.67v1.158c0 .168-.061.33-.172.456a.626.626 0 0 1-.499.199H187.36v6.31h9.436a.665.665 0 0 1 .441.157.617.617 0 0 1 .184.498v1.17a.72.72 0 0 1-.157.455.562.562 0 0 1-.471.2h-9.433v7.436h11.991c.429 0 .643.223.643.67v1.184a.55.55 0 0 1-.374.605.556.556 0 0 1-.254.024h-13.849c-.418 0-.628-.202-.628-.604V16.44c0-.437.21-.656.628-.656l13.731.003Z" fill="#fff"/><path d="M63.258 43.981c.13 1.357.26 2.725.39 4.105a.184.184 0 0 1-.208.208h-.245a.2.2 0 0 1-.208-.128.2.2 0 0 1-.012-.086l-.653-7.15-2.96 6.591a.235.235 0 0 1-.109.115.301.301 0 0 1-.13.042h-.15a.348.348 0 0 1-.133-.021.302.302 0 0 1-.106-.136l-1.483-3.295-1.483-3.296-.653 7.15a.194.194 0 0 1-.214.22h-.245a.186.186 0 0 1-.157-.066.26.26 0 0 1-.051-.166l.764-8.198a.223.223 0 0 1 .088-.169c.045-.033.1-.05.157-.051h.383a.223.223 0 0 1 .157.145l3.042 6.817L62.08 39.8a.218.218 0 0 1 .094-.115.353.353 0 0 1 .142-.045c.055-.004.111-.004.166 0h.157c.06-.004.12.016.166.054a.194.194 0 0 1 .067.136v.04l.386 4.11ZM64.977 48.107a21.095 21.095 0 0 1 .332-.84l.946-2.271.716-1.713.531-1.266.39-.93.302-.7c.082-.202.165-.398.247-.59a.327.327 0 0 1 .079-.123.202.202 0 0 1 .142-.046h.17a.2.2 0 0 1 .144.045c.032.034.06.071.082.112l3.434 8.24a.3.3 0 0 0 0 .048.29.29 0 0 1 0 .06c0 .085-.06.138-.181.158h-.302a.224.224 0 0 1-.215-.17l-.812-1.99H66.49l-.417 1.01c-.138.333-.275.672-.41 1.014a.208.208 0 0 1-.206.151h-.307c-.122 0-.182-.06-.182-.145 0-.019.003-.037.009-.054Zm3.763-7.44-.984 2.401-.985 2.402h3.927l-1.957-4.803ZM77.784 39.646a2.718 2.718 0 0 1 2.489 1.667c.243.586.276 1.238.094 1.846a2.684 2.684 0 0 1-.33.697 2.79 2.79 0 0 1-.507.574 2.615 2.615 0 0 1-.65.411l1.465 3.208a.3.3 0 0 1 .03.106.182.182 0 0 1-.036.1.125.125 0 0 1-.111.05h-.408a.156.156 0 0 1-.151-.111l-1.438-3.19c-.078.02-.156.034-.236.043-.09.005-.18.005-.271 0h-2.84v3.02a.183.183 0 0 1-.124.2.183.183 0 0 1-.084.008h-.25a.183.183 0 0 1-.202-.124.185.185 0 0 1-.007-.084v-8.228a.414.414 0 0 1 .075-.148.174.174 0 0 1 .133-.042l3.359-.003Zm-.338 4.754h.48c.157-.004.313-.031.462-.081h.036c.2-.072.39-.174.56-.302a1.97 1.97 0 0 0 .44-.441 2.072 2.072 0 0 0-.855-3.105 1.984 1.984 0 0 0-.803-.163h-2.879V44.4h2.559ZM82.934 48.026a.24.24 0 0 1-.275.268h-.14c-.17 0-.256-.09-.256-.268v-8.117a.263.263 0 0 1 .067-.18.24.24 0 0 1 .19-.076h.157a.257.257 0 0 1 .181.07.241.241 0 0 1 .076.187v4.832l4.64-4.923a.443.443 0 0 1 .301-.181h.625c.143 0 .165.05.064.15v-.02a.136.136 0 0 0 0 .039l-3.268 3.419 4.062 4.833c.13.155.115.232-.042.232h-.514a.193.193 0 0 1-.12-.045 1.076 1.076 0 0 1-.133-.133l-3.676-4.41-1.924 2.027-.015 2.296ZM96.71 39.646a.197.197 0 0 1 .22.22v.233a.206.206 0 0 1-.226.22h-5.162v3.124h4.171a.238.238 0 0 1 .16.051.212.212 0 0 1 .06.17v.238a.2.2 0 0 1-.22.215h-4.17v3.512h5.249a.194.194 0 0 1 .22.215v.244a.187.187 0 0 1-.214.209h-5.74a.18.18 0 0 1-.132-.051.205.205 0 0 1-.052-.152V39.87a.067.067 0 0 1 0-.03.05.05 0 0 0 0-.025c.013-.108.081-.163.206-.163l5.63-.006ZM104.382 39.646a.238.238 0 0 1 .16.052.23.23 0 0 1 .073.157v.238a.233.233 0 0 1-.058.163.224.224 0 0 1-.175.064h-2.718v7.769a.195.195 0 0 1-.008.086.192.192 0 0 1-.207.128h-.238a.193.193 0 0 1-.161-.054.196.196 0 0 1-.046-.074.195.195 0 0 1-.008-.086v-7.766h-2.718c-.14 0-.209-.076-.209-.227v-.226a.193.193 0 0 1 .209-.209l6.104-.015ZM106.26 39.87a.19.19 0 0 1 .129-.202.188.188 0 0 1 .086-.007h.239a.217.217 0 0 1 .16.054.21.21 0 0 1 .054.154v8.24a.189.189 0 0 1-.129.202.184.184 0 0 1-.085.007h-.239a.188.188 0 0 1-.159-.05.19.19 0 0 1-.056-.158v-8.24ZM115.636 39.846a.189.189 0 0 1 .058-.15.19.19 0 0 1 .154-.05h.262c.131 0 .198.063.2.187v8.28a.186.186 0 0 1-.015.08.186.186 0 0 1-.2.113h-.275a.235.235 0 0 1-.193-.094l-5.878-7.436V48.1a.177.177 0 0 1-.009.086.187.187 0 0 1-.205.123h-.245a.182.182 0 0 1-.156-.052.187.187 0 0 1-.045-.072.185.185 0 0 1-.007-.085v-8.23a.233.233 0 0 1 .045-.151.176.176 0 0 1 .145-.058h.372a.137.137 0 0 1 .111.058l1.435 1.812 1.51 1.89 1.511 1.892 1.434 1.812-.009-7.28ZM122.574 40.236a3.669 3.669 0 0 0-1.018.138 3.738 3.738 0 0 0-2.615 2.652 3.7 3.7 0 0 0 0 1.976 3.734 3.734 0 0 0 1.733 2.25c.285.164.589.291.906.378.322.09.654.134.988.133.419.004.835-.065 1.229-.206.346-.122.672-.294.967-.51v-2.344a.195.195 0 0 1 .008-.087.192.192 0 0 1 .206-.128h.245a.219.219 0 0 1 .157.055.215.215 0 0 1 .058.16v2.61a.39.39 0 0 1 0 .048.297.297 0 0 1-.028.063.232.232 0 0 1-.042.058.098.098 0 0 1-.03.02.092.092 0 0 1-.036.007 4.513 4.513 0 0 1-3.927.764 4.537 4.537 0 0 1-1.963-1.139 4.482 4.482 0 0 1-1.136-1.966 4.444 4.444 0 0 1 .447-3.413 4.474 4.474 0 0 1 2.646-2.048 4.394 4.394 0 0 1 3.425.459c.169.099.331.21.484.332a.232.232 0 0 1 .12.148.181.181 0 0 1-.042.154l-.157.2a.234.234 0 0 1-.154.108.425.425 0 0 1-.242-.108 4.087 4.087 0 0 0-1.066-.565 3.542 3.542 0 0 0-1.163-.2ZM130.708 48.107a18.9 18.9 0 0 1 .332-.84l.955-2.262.716-1.713.531-1.265.39-.93.302-.701c.083-.202.165-.398.248-.59a.323.323 0 0 1 .078-.123.203.203 0 0 1 .142-.045h.169a.198.198 0 0 1 .145.045c.033.033.06.07.082.112l3.422 8.23a.39.39 0 0 0 0 .049c.002.02.002.04 0 .06 0 .085-.06.139-.181.157h-.302a.222.222 0 0 1-.215-.17l-.833-2.01h-4.465l-.416 1.008c-.139.334-.276.673-.411 1.015a.211.211 0 0 1-.206.151h-.308c-.12 0-.181-.06-.181-.145a.188.188 0 0 1 .006-.033Zm3.764-7.44-.985 2.402-.985 2.401h3.927l-1.957-4.803ZM143.282 40.236a3.67 3.67 0 0 0-1.018.139 3.74 3.74 0 0 0-2.615 2.652 3.7 3.7 0 0 0 0 1.975 3.734 3.734 0 0 0 .969 1.664 3.822 3.822 0 0 0 1.659.964c.321.09.653.134.987.133.419.004.835-.065 1.23-.206.345-.121.671-.293.966-.51v-2.344a.196.196 0 0 1 .008-.087.192.192 0 0 1 .207-.128h.244a.219.219 0 0 1 .157.055.217.217 0 0 1 .058.16v2.61a.195.195 0 0 1 0 .048.3.3 0 0 1-.07.12.086.086 0 0 1-.066.028 4.515 4.515 0 0 1-3.927.764 4.537 4.537 0 0 1-1.963-1.139 4.486 4.486 0 0 1-1.136-1.966 4.443 4.443 0 0 1 .447-3.413 4.43 4.43 0 0 1 2.646-2.054 4.393 4.393 0 0 1 3.425.46c.169.098.331.209.484.331a.219.219 0 0 1 .117.148.181.181 0 0 1-.042.154l-.157.2a.234.234 0 0 1-.154.108.425.425 0 0 1-.242-.108 4.068 4.068 0 0 0-1.066-.565 3.534 3.534 0 0 0-1.148-.193ZM153.778 39.646a.197.197 0 0 1 .221.22v.233a.206.206 0 0 1-.227.22h-5.165v3.124h4.172a.239.239 0 0 1 .16.051.217.217 0 0 1 .049.078c.01.03.014.06.011.091v.24a.195.195 0 0 1-.06.158.197.197 0 0 1-.16.056h-4.172v3.512h5.25a.195.195 0 0 1 .211.127c.01.028.013.058.009.088v.244a.177.177 0 0 1-.009.086.19.19 0 0 1-.119.117.188.188 0 0 1-.086.006h-5.739a.184.184 0 0 1-.133-.051.212.212 0 0 1-.041-.07.22.22 0 0 1-.01-.082V39.87a.077.077 0 0 1 0-.03.05.05 0 0 0 0-.025c.012-.108.079-.163.202-.163l5.636-.006ZM162.199 39.846a.19.19 0 0 1 .212-.2h.263c.131 0 .197.063.199.187v8.28a.186.186 0 0 1-.133.187.185.185 0 0 1-.081.006h-.275a.236.236 0 0 1-.194-.094l-5.877-7.436V48.1a.205.205 0 0 1-.009.086.191.191 0 0 1-.12.116.188.188 0 0 1-.086.007h-.242a.182.182 0 0 1-.156-.052.185.185 0 0 1-.052-.157v-8.23a.233.233 0 0 1 .045-.151.176.176 0 0 1 .145-.058h.369a.14.14 0 0 1 .112.058l1.434 1.812 1.511 1.89 1.51 1.892 1.435 1.812-.01-7.28ZM171.865 40.475a.225.225 0 0 1 .118.148.175.175 0 0 1-.004.082.17.17 0 0 1-.039.072l-.157.2a.244.244 0 0 1-.065.07.244.244 0 0 1-.089.038.422.422 0 0 1-.241-.109 4.303 4.303 0 0 0-1.067-.574 3.401 3.401 0 0 0-1.178-.205 3.708 3.708 0 0 0-1.93.531 3.861 3.861 0 0 0-1.733 2.265 3.51 3.51 0 0 0 .009 1.949 3.941 3.941 0 0 0 1 1.682c.23.231.486.434.764.604.274.17.57.305.879.4a3.237 3.237 0 0 0 1.558.084c.213-.04.422-.096.625-.17.208-.074.41-.165.605-.271.19-.104.37-.227.537-.366a.243.243 0 0 1 .184-.048.273.273 0 0 1 .179.142l.087.139a.3.3 0 0 1 .039.187.234.234 0 0 1-.114.175 4.768 4.768 0 0 1-.985.577 4.468 4.468 0 0 1-1.743.345 4.392 4.392 0 0 1-2.235-.604 4.588 4.588 0 0 1-.906-.698 4.286 4.286 0 0 1-.695-.906 4.653 4.653 0 0 1-.45-1.07 4.414 4.414 0 0 1 .447-3.422 4.362 4.362 0 0 1 1.601-1.6 4.604 4.604 0 0 1 1.069-.45 4.382 4.382 0 0 1 1.19-.16 4.317 4.317 0 0 1 1.719.35 3.993 3.993 0 0 1 1.021.613ZM173.013 39.985a.255.255 0 0 1-.037-.238.196.196 0 0 1 .194-.094h.205a.567.567 0 0 1 .109 0 .215.215 0 0 1 .081.036.335.335 0 0 1 .079.085c.027.04.057.09.094.151l2.331 3.909 2.417-3.988a.355.355 0 0 1 .302-.205h.287c.179 0 .216.09.111.269l-2.79 4.591v3.525a.235.235 0 0 1-.011.108.239.239 0 0 1-.258.16h-.139c-.171 0-.257-.089-.257-.268v-3.477l-2.718-4.564Z" fill="#DF9730"/></g></symbol><symbol id="icon-logo"><g fill="none"><path d="M14.289 26.08H11.51l-1.161-1.776v-2.91l-4.392-4.34v-6.718l5.114-4.888 6.175-.017 5.114 4.887v6.724l-4.392 4.34v2.91l-1.162 1.776-2.517.012Zm-2.137-1.186 4.013-.018.617-.942v-3.048l4.392-4.34v-5.72L16.77 6.622l-5.224.012-4.402 4.205v5.72l4.392 4.339v3.052l.615.944Z" fill="#DF9730"/><path d="M19.73 13.749h-1.186v-2.491l-2.458-2.35.82-.856 2.824 2.7v2.997ZM17.337 27.142H10.98v1.186h6.357v-1.186ZM17.337 28.973H10.98v1.186h6.357v-1.186ZM5.913 0l-.938.726 1.673 2.161.938-.726L5.913 0ZM.33 6.945l-.325 1.14 2.628.75.325-1.141L.33 6.945ZM2.374 14.78 0 16.134l.588 1.03 2.374-1.354-.588-1.03ZM22.39 0l-1.673 2.162.938.726L23.328.727 22.39 0ZM27.974 6.947l-2.629.748.325 1.141 2.628-.748-.324-1.14ZM25.926 14.778l-.587 1.03 2.374 1.354.588-1.03-2.375-1.354Z" fill="#DF9730"/><path d="M33.195 21.085a.351.351 0 0 1-.1.274.389.389 0 0 1-.273.09h-.687a.326.326 0 0 1-.373-.364V9.523a.34.34 0 0 1 .373-.364h.687a.373.373 0 0 1 .27.1.35.35 0 0 1 .103.264v11.562ZM45.58 21.45a.377.377 0 0 1-.306-.158l-7.55-9.905v9.702c0 .243-.127.364-.38.364h-.687a.323.323 0 0 1-.365-.364V9.537a.387.387 0 0 1 .1-.273.352.352 0 0 1 .265-.107h.92a.378.378 0 0 1 .315.167L45.327 19V9.48a.34.34 0 0 1 .364-.323h.68c.1 0 .197.036.273.1a.322.322 0 0 1 .125.265v11.562c0 .243-.133.364-.398.364l-.79.002ZM59.289 10.233c.055.04.106.084.152.133.04.042.063.099.062.157a.35.35 0 0 1-.037.146.879.879 0 0 1-.079.136l-.35.547a.362.362 0 0 1-.282.191.608.608 0 0 1-.133-.037.75.75 0 0 1-.167-.094c-.42-.3-.881-.536-1.37-.701a4.66 4.66 0 0 0-1.519-.256 4.851 4.851 0 0 0-4.569 3.03 4.85 4.85 0 0 0-.367 1.856c-.005.66.133 1.315.406 1.917a4.995 4.995 0 0 0 2.649 2.57 4.714 4.714 0 0 0 1.85.373c.211 0 .422-.012.632-.037a3.92 3.92 0 0 0 .626-.128c.221-.065.439-.145.65-.24.241-.109.475-.233.7-.373a.924.924 0 0 0 .161-.095c.059-.04.114-.082.165-.124.048-.039.1-.073.153-.104a.27.27 0 0 1 .124-.042.35.35 0 0 1 .292.212l.38.63c.039.07.059.15.059.23a.319.319 0 0 1-.191.283 6.604 6.604 0 0 1-1.731.898 6.472 6.472 0 0 1-3.718.104 6.272 6.272 0 0 1-1.506-.638 6.317 6.317 0 0 1-1.27-9.926 6.175 6.175 0 0 1 1.278-.99 6.322 6.322 0 0 1 5.189-.543c.63.215 1.224.523 1.761.915ZM61.896 9.555a.406.406 0 0 1 .1-.295.35.35 0 0 1 .264-.103h4.784a3.807 3.807 0 0 1 1.528.303c.46.199.876.484 1.226.841.353.359.634.782.829 1.246.354.837.406 1.771.149 2.643a3.965 3.965 0 0 1-.464.997 3.823 3.823 0 0 1-1.638 1.412l2.177 4.486a.44.44 0 0 1 .042.15.19.19 0 0 1-.079.152.35.35 0 0 1-.219.061h-.835a.384.384 0 0 1-.261-.082.649.649 0 0 1-.161-.231l-2.003-4.214a1.346 1.346 0 0 1-.19.021H63.328v4.14a.323.323 0 0 1-.365.364h-.7a.323.323 0 0 1-.365-.364l-.003-11.527Zm7.624 3.504a2.384 2.384 0 0 0-.191-.945 2.595 2.595 0 0 0-.526-.79 2.485 2.485 0 0 0-.786-.546 2.373 2.373 0 0 0-.978-.204h-3.71v4.958h3.742c.333.003.663-.064.968-.198.291-.127.554-.31.775-.538a2.415 2.415 0 0 0 .708-1.74l-.002.002ZM81.748 9.157c.249 0 .373.13.373.389v.67a.396.396 0 0 1-.1.265.36.36 0 0 1-.289.116h-6.88v3.66h5.472a.385.385 0 0 1 .255.09.358.358 0 0 1 .107.29v.678a.417.417 0 0 1-.09.264.327.327 0 0 1-.274.116h-5.47v4.313h6.96c.25 0 .374.13.374.389v.687a.323.323 0 0 1-.365.364h-8.037c-.243 0-.364-.117-.364-.35V9.535c0-.253.121-.38.364-.38l7.964.002ZM85.05 21.119a.464.464 0 0 1-.455.33h-.712c-.233 0-.35-.087-.35-.264 0-.053.005-.105.016-.157a.178.178 0 0 1 .024-.058l1.568-3.802 1.188-2.855c.336-.809.62-1.489.853-2.041.233-.553.423-1.01.571-1.37.15-.361.266-.638.35-.832l.176-.426c.038-.091.063-.152.073-.186a.815.815 0 0 1 .112-.198.35.35 0 0 1 .302-.107h.488a.333.333 0 0 1 .286.107c.047.062.087.128.121.198l4.769 11.515a.57.57 0 0 0 .03.083c.016.04.026.081.027.124a.22.22 0 0 1-.103.198.493.493 0 0 1-.27.067h-.711a.438.438 0 0 1-.277-.088.544.544 0 0 1-.175-.228l-.96-2.375h-6.005l-.936 2.365Zm1.531-3.767h4.842l-2.407-6.06-2.435 6.06ZM103.155 11.706a9.209 9.209 0 0 0-.497-.406 4.807 4.807 0 0 0-1.514-.788 3.207 3.207 0 0 0-.977-.146c-.41-.008-.818.05-1.209.175a2.47 2.47 0 0 0-.832.46 1.788 1.788 0 0 0-.634 1.353c-.004.268.09.527.262.73.191.221.422.404.68.539.301.16.617.292.943.392.35.111.705.216 1.063.315.326.09.661.183 1.006.282.344.1.679.211 1.005.335.318.12.625.266.92.435.278.158.532.356.753.586.217.228.389.494.51.784.129.325.193.673.186 1.023a3.496 3.496 0 0 1-.361 1.597c-.237.471-.575.884-.99 1.209-.441.342-.94.602-1.473.766a5.944 5.944 0 0 1-1.813.27 6.06 6.06 0 0 1-1.267-.134c-.41-.087-.81-.22-1.191-.397a5.433 5.433 0 0 1-1.072-.66 5.163 5.163 0 0 1-.9-.905.526.526 0 0 1-.132-.298.352.352 0 0 1 .149-.264l.525-.438a.507.507 0 0 1 .128-.067.388.388 0 0 1 .128-.024c.04 0 .079.012.112.033a.7.7 0 0 1 .103.079l.091.087.058.058c.244.255.517.478.815.666.288.183.59.344.902.48.283.123.576.222.876.294.234.06.475.094.717.1a4.05 4.05 0 0 0 2.102-.578c.204-.125.389-.278.55-.455a2.02 2.02 0 0 0 .373-.593c.093-.231.14-.479.137-.728.01-.308-.088-.61-.277-.854a2.292 2.292 0 0 0-.745-.592 5.723 5.723 0 0 0-1.072-.418c-.403-.117-.819-.23-1.249-.34a15.005 15.005 0 0 1-1.783-.571 5.29 5.29 0 0 1-1.276-.701 2.674 2.674 0 0 1-.762-.876 2.398 2.398 0 0 1-.252-1.118 3.11 3.11 0 0 1 1.16-2.466 3.975 3.975 0 0 1 1.342-.701 5.813 5.813 0 0 1 1.752-.249c.342.001.683.04 1.017.116.347.077.685.186 1.011.327.324.14.635.304.932.493a4.692 4.692 0 0 1 1.011.865c.062.062.1.144.107.231a.373.373 0 0 1-.133.258l-.498.48a.334.334 0 0 1-.224.116.459.459 0 0 1-.293-.167ZM115.564 9.157c.249 0 .373.13.373.389v.67a.391.391 0 0 1-.1.265.354.354 0 0 1-.289.116h-6.879v3.66h5.473a.383.383 0 0 1 .255.09.355.355 0 0 1 .107.29v.678a.417.417 0 0 1-.091.264.322.322 0 0 1-.273.116h-5.471v4.313h6.955c.248 0 .373.13.373.389v.687a.32.32 0 0 1-.014.147.316.316 0 0 1-.203.204.326.326 0 0 1-.148.013H107.6c-.243 0-.364-.117-.364-.35V9.535c0-.253.121-.38.364-.38l7.964.002Z" fill="#fff"/><path d="m36.69 25.509.226 2.38a.108.108 0 0 1-.03.091.108.108 0 0 1-.091.03h-.142a.117.117 0 0 1-.093-.032.116.116 0 0 1-.035-.092l-.378-4.146-1.717 3.822a.137.137 0 0 1-.063.067.175.175 0 0 1-.075.024h-.088a.2.2 0 0 1-.077-.012.175.175 0 0 1-.061-.079l-.86-1.911-.86-1.912-.38 4.147a.112.112 0 0 1-.123.128H31.7a.11.11 0 0 1-.091-.038.15.15 0 0 1-.03-.097l.443-4.754a.128.128 0 0 1 .05-.099.159.159 0 0 1 .092-.03h.222a.13.13 0 0 1 .091.085l1.765 3.954 1.764-3.95a.125.125 0 0 1 .054-.067.205.205 0 0 1 .082-.027.674.674 0 0 1 .097 0h.09c.036-.002.07.01.097.032a.114.114 0 0 1 .039.079v.023c.074.8.15 1.596.224 2.384ZM37.687 27.902a12.757 12.757 0 0 1 .192-.487l.549-1.318.415-.993.308-.734.226-.54.175-.406c.048-.117.096-.23.144-.342a.19.19 0 0 1 .046-.071.117.117 0 0 1 .082-.027h.098c.03-.002.06.007.084.027.019.019.035.04.047.064l1.992 4.78v.027a.172.172 0 0 1 0 .036c0 .049-.035.079-.105.09h-.175a.13.13 0 0 1-.124-.097l-.472-1.155h-2.605l-.241.585c-.081.194-.16.39-.239.589a.12.12 0 0 1-.119.087h-.179c-.07 0-.105-.035-.105-.084 0-.01.002-.021.006-.031Zm2.183-4.315-.572 1.393c-.189.461-.38.925-.57 1.392h2.277l-1.136-2.785ZM45.115 22.995a1.578 1.578 0 0 1 1.013 2.775c-.114.097-.24.177-.377.238l.85 1.86c.009.02.015.04.017.062a.105.105 0 0 1-.021.057.072.072 0 0 1-.065.03h-.236a.091.091 0 0 1-.088-.065l-.834-1.85c-.045.011-.09.02-.137.025a1.337 1.337 0 0 1-.157 0h-1.647v1.752a.108.108 0 0 1-.03.09.107.107 0 0 1-.091.03h-.145a.108.108 0 0 1-.091-.03.106.106 0 0 1-.03-.09v-4.772a.243.243 0 0 1 .044-.086.104.104 0 0 1 .035-.02c.014-.005.028-.006.042-.005l1.948-.001Zm-.197 2.757h.279a.92.92 0 0 0 .268-.047h.021c.116-.042.226-.101.324-.175.098-.072.185-.158.256-.256a1.202 1.202 0 0 0-.496-1.801 1.15 1.15 0 0 0-.466-.095h-1.67v2.374h1.485ZM48.102 27.855a.14.14 0 0 1-.04.118.14.14 0 0 1-.12.038h-.08c-.1 0-.15-.052-.15-.156v-4.708a.152.152 0 0 1 .04-.105.138.138 0 0 1 .11-.044h.09c.04 0 .077.014.106.04a.141.141 0 0 1 .044.11v2.802l2.69-2.855a.254.254 0 0 1 .175-.105h.363c.083 0 .095.029.037.087v-.012a.078.078 0 0 0 0 .023l-1.896 1.983 2.357 2.803c.074.09.066.135-.025.135h-.298a.112.112 0 0 1-.07-.026.624.624 0 0 1-.077-.078l-2.132-2.557-1.116 1.175-.008 1.332ZM56.092 22.995a.114.114 0 0 1 .128.127v.135a.118.118 0 0 1-.08.122.117.117 0 0 1-.052.006h-2.994v1.812h2.42a.139.139 0 0 1 .092.03.123.123 0 0 1 .036.098v.138a.117.117 0 0 1-.035.092.116.116 0 0 1-.043.027c-.016.005-.033.007-.05.005h-2.42v2.038h3.045a.112.112 0 0 1 .128.124v.142a.108.108 0 0 1-.075.117.108.108 0 0 1-.05.004h-3.328a.105.105 0 0 1-.077-.03.118.118 0 0 1-.03-.087v-4.77a.037.037 0 0 1 0-.018.03.03 0 0 0 0-.014c.007-.063.047-.095.12-.095l3.265-.003ZM60.542 22.995a.138.138 0 0 1 .093.03c.025.023.04.056.041.09v.14a.135.135 0 0 1-.033.094.13.13 0 0 1-.101.037h-1.577v4.505a.11.11 0 0 1-.074.12.11.11 0 0 1-.05.005h-.139a.11.11 0 0 1-.12-.074.111.111 0 0 1-.004-.05v-4.505H57c-.08 0-.12-.044-.12-.131v-.132a.112.112 0 0 1 .12-.12l3.54-.01ZM61.631 23.125a.108.108 0 0 1 .075-.117.108.108 0 0 1 .05-.004h.138a.127.127 0 0 1 .093.031.12.12 0 0 1 .031.09v4.779a.11.11 0 0 1-.075.117.11.11 0 0 1-.05.004h-.138a.11.11 0 0 1-.119-.072.108.108 0 0 1-.005-.05v-4.778ZM67.069 23.11a.108.108 0 0 1 .075-.111.108.108 0 0 1 .048-.004h.152c.076 0 .115.036.116.108v4.802a.108.108 0 0 1-.078.109.11.11 0 0 1-.047.003h-.16a.14.14 0 0 1-.111-.054l-3.41-4.313v4.248a.108.108 0 0 1-.124.12h-.142a.105.105 0 0 1-.09-.03.107.107 0 0 1-.03-.09v-4.774a.137.137 0 0 1 .026-.087.103.103 0 0 1 .084-.034h.215a.08.08 0 0 1 .065.034l.832 1.05.876 1.097.876 1.097.832 1.051-.005-4.222ZM71.093 23.336a2.219 2.219 0 0 0-1.116.305 2.169 2.169 0 0 0-.992 1.314 2.153 2.153 0 0 0 .221 1.671 2.154 2.154 0 0 0 .785.78 2.225 2.225 0 0 0 1.099.296c.242.003.484-.038.712-.12.2-.07.39-.17.561-.295v-1.36a.111.111 0 0 1 .074-.12.11.11 0 0 1 .05-.004h.142a.128.128 0 0 1 .091.032.121.121 0 0 1 .034.092v1.514a.12.12 0 0 1 0 .028.17.17 0 0 1-.04.07.052.052 0 0 1-.04.016 2.615 2.615 0 0 1-2.277.443 2.625 2.625 0 0 1-1.139-.66 2.603 2.603 0 0 1-.729-2.156 2.575 2.575 0 0 1 1.25-1.89 2.548 2.548 0 0 1 2.882.196.132.132 0 0 1 .07.087.105.105 0 0 1-.024.089l-.092.116a.138.138 0 0 1-.089.063.245.245 0 0 1-.14-.063 2.376 2.376 0 0 0-.618-.328 2.052 2.052 0 0 0-.675-.116ZM75.81 27.902a12.512 12.512 0 0 1 .194-.487l.553-1.312.415-.994.309-.734.226-.54.175-.406.143-.341a.19.19 0 0 1 .046-.072.118.118 0 0 1 .082-.026h.098c.03-.003.061.007.084.026a.28.28 0 0 1 .048.065l1.985 4.774v.028a.158.158 0 0 1 0 .035c0 .049-.035.08-.106.09h-.175a.13.13 0 0 1-.124-.097l-.484-1.167H76.69l-.242.585c-.08.194-.16.39-.238.589a.121.121 0 0 1-.119.087h-.179c-.07 0-.105-.035-.105-.084 0-.006.002-.013.004-.02Zm2.184-4.315-.572 1.393c-.189.461-.38.925-.57 1.393h2.277l-1.135-2.786ZM83.104 23.337a2.213 2.213 0 0 0-1.116.305 2.169 2.169 0 0 0-.992 1.313c-.103.375-.103.771 0 1.146a2.15 2.15 0 0 0 .562.965c.269.265.6.458.962.56.187.051.38.077.573.076.243.003.484-.038.713-.119.2-.07.39-.17.56-.296v-1.36a.11.11 0 0 1 .075-.12.11.11 0 0 1 .05-.004h.142a.128.128 0 0 1 .091.032.123.123 0 0 1 .034.092v1.514a.12.12 0 0 1 0 .028.18.18 0 0 1-.04.07.052.052 0 0 1-.04.016 2.619 2.619 0 0 1-2.277.443 2.625 2.625 0 0 1-1.139-.66 2.605 2.605 0 0 1-.659-1.14 2.576 2.576 0 0 1 .26-1.98 2.57 2.57 0 0 1 1.535-1.191 2.547 2.547 0 0 1 2.267.458.13.13 0 0 1 .068.086.105.105 0 0 1-.025.09l-.09.115a.137.137 0 0 1-.09.063.246.246 0 0 1-.14-.063 2.37 2.37 0 0 0-.619-.327 2.052 2.052 0 0 0-.665-.113ZM89.192 22.995a.114.114 0 0 1 .127.127v.135a.118.118 0 0 1-.08.122.117.117 0 0 1-.051.006h-2.996v1.812h2.42a.14.14 0 0 1 .093.03.123.123 0 0 1 .035.098v.138a.116.116 0 0 1-.078.119c-.016.005-.033.007-.05.005h-2.42v2.038h3.045a.113.113 0 0 1 .122.073.111.111 0 0 1 .006.051v.142a.108.108 0 0 1-.075.117.109.109 0 0 1-.05.004h-3.328a.106.106 0 0 1-.077-.03.12.12 0 0 1-.03-.087v-4.77a.037.037 0 0 1 0-.018.033.033 0 0 0 0-.014c.007-.063.046-.095.117-.095l3.27-.003ZM94.076 23.11a.11.11 0 0 1 .034-.087.109.109 0 0 1 .088-.028h.153c.076 0 .114.036.115.108v4.802a.11.11 0 0 1-.077.109.11.11 0 0 1-.047.003h-.16a.14.14 0 0 1-.112-.054l-3.409-4.313v4.248a.108.108 0 0 1-.124.12h-.14a.105.105 0 0 1-.09-.03.106.106 0 0 1-.031-.09v-4.774a.137.137 0 0 1 .026-.087.103.103 0 0 1 .084-.034h.214a.08.08 0 0 1 .065.033l.832 1.052.876 1.096.876 1.097.832 1.051-.005-4.222ZM99.682 23.475a.131.131 0 0 1 .068.086.104.104 0 0 1-.025.09l-.09.115a.137.137 0 0 1-.09.063.245.245 0 0 1-.14-.063 2.492 2.492 0 0 0-.618-.333c-.22-.08-.45-.12-.684-.119a2.152 2.152 0 0 0-1.12.308 2.24 2.24 0 0 0-1.005 1.314 2.044 2.044 0 0 0 .005 1.13 2.282 2.282 0 0 0 .58.976c.134.134.283.252.444.35.159.1.33.177.51.232a1.882 1.882 0 0 0 .903.049c.124-.023.245-.056.363-.098.12-.044.238-.096.35-.158.111-.06.216-.131.312-.212a.14.14 0 0 1 .107-.028.159.159 0 0 1 .103.082l.051.081c.02.033.027.07.023.109a.132.132 0 0 1-.067.101 2.76 2.76 0 0 1-.57.335 2.59 2.59 0 0 1-1.011.2 2.544 2.544 0 0 1-1.297-.35 2.657 2.657 0 0 1-.525-.405 2.496 2.496 0 0 1-.403-.526 2.67 2.67 0 0 1-.261-.62 2.56 2.56 0 0 1 .259-1.985 2.532 2.532 0 0 1 .928-.928c.195-.113.404-.201.62-.262a2.54 2.54 0 0 1 .69-.093 2.505 2.505 0 0 1 1.306.36c.1.059.194.126.284.2ZM100.347 23.191a.16.16 0 0 1-.028-.066.16.16 0 0 1 .007-.072.111.111 0 0 1 .112-.054h.12a.332.332 0 0 1 .063 0c.017.003.033.01.047.02.018.014.033.03.045.05.016.023.034.052.055.087l1.352 2.267 1.402-2.312a.208.208 0 0 1 .175-.12h.166c.104 0 .126.053.065.157l-1.619 2.662v2.045a.134.134 0 0 1-.006.063.13.13 0 0 1-.033.053.133.133 0 0 1-.054.034.136.136 0 0 1-.063.006h-.08c-.099 0-.149-.052-.149-.156v-2.017l-1.577-2.647Z" fill="#DF9730"/></g></symbol><symbol id="social-icon-instagram"><path d="M15.233 5.488c-.843-.038-1.097-.046-3.233-.046s-2.389.008-3.232.046c-2.17.099-3.181 1.127-3.279 3.279-.039.844-.048 1.097-.048 3.233s.009 2.389.047 3.233c.099 2.148 1.106 3.18 3.279 3.279.843.038 1.097.047 3.233.047 2.137 0 2.39-.008 3.233-.046 2.17-.099 3.18-1.129 3.279-3.279.038-.844.046-1.097.046-3.233s-.008-2.389-.046-3.232c-.099-2.153-1.111-3.182-3.279-3.281zM12 16.108a4.108 4.108 0 1 1 0-8.215 4.108 4.108 0 0 1 0 8.215zm4.271-7.418a.96.96 0 1 1 0-1.92.96.96 0 0 1 0 1.92zM14.667 12a2.667 2.667 0 1 1-5.334 0 2.667 2.667 0 0 1 5.334 0zM19 0H5a5 5 0 0 0-5 5v14a5 5 0 0 0 5 5h14a5 5 0 0 0 5-5V5a5 5 0 0 0-5-5zm.952 15.298c-.132 2.909-1.751 4.521-4.653 4.654-.854.039-1.126.048-3.299.048s-2.444-.009-3.298-.048c-2.908-.133-4.52-1.748-4.654-4.654C4.009 14.445 4 14.173 4 12c0-2.172.009-2.445.048-3.298.134-2.908 1.748-4.521 4.654-4.653C9.556 4.009 9.827 4 12 4s2.445.009 3.299.048c2.908.133 4.523 1.751 4.653 4.653.039.854.048 1.127.048 3.299 0 2.173-.009 2.445-.048 3.298z"/></symbol><symbol id="social-icon-vk"><path d="M19 0H5a5 5 0 0 0-5 5v14a5 5 0 0 0 5 5h14a5 5 0 0 0 5-5V5a5 5 0 0 0-5-5zm.25 16.996h-2.134c-1.205 0-1.409-.687-2.401-1.679-.897-.897-1.395-.209-1.374 1.068.006.339-.161.611-.566.611-1.264 0-3.08.178-4.918-1.806C5.974 13.157 4 9.079 4 8.677c0-.237.196-.344.524-.344h2.17c.574 0 .623.284.783.649.667 1.521 2.265 4.574 2.69 2.87.244-.978.344-3.245-.703-3.44-.594-.11.452-.746 1.968-.746.377 0 .786.041 1.205.137.769.179.771.523.761 1.026-.039 1.903-.269 3.184.233 3.507.479.31 1.739-1.717 2.403-3.281.183-.433.219-.722.734-.722h2.654c1.39 0-.182 1.997-1.383 3.557-.968 1.255-.916 1.28.209 2.324.803.744 1.75 1.76 1.75 2.336.002.272-.21.446-.748.446z"/></symbol></svg>